M48
;Layer_Color=9474304
;FILE_FORMAT=2:4
INCH,TZ
;TYPE=PLATED
T1F00S00C0.0120
T2F00S00C0.0130
T4F00S00C0.0354
T5F00S00C0.0394
T6F00S00C0.0701
T7F00S00C0.1260
;TYPE=NON_PLATED
T8F00S00C0.0390
%
T01
X500Y496
X2500
X2700Y1791
X3620
X3164Y2476
X3164Y4742
X2660Y4306
X2170Y5106
X2830Y6376
X4050Y5692
X3310Y9006
X1710Y8980
X500Y8496
X490Y6496
X500Y4496
Y2496
X1700Y1496
X4500Y496
X6500
X6950Y1796
X6860Y3006
X6600Y4696
X5980Y6096
X5920Y6716
X5770Y7616
X5960Y8716
X6640Y8296
X7966Y8516
X8349Y7289
X8683
X9744Y7164
X10364Y7164
X10764
X11660Y7036
X11570Y7456
X12529Y7494
X12390Y6800
X12390Y5966
X12500Y4706
X12490Y3906
X11510Y3926
X12000Y2996
X11510Y2496
X12500
X13000Y2996
X14000
X15000
X15490Y2506
X16460Y2476
X17460Y2456
X18000Y2996
X17520Y3486
X16470Y3516
X15530Y3526
X15330Y5160
X14440Y4680
X14080Y5990
X13870Y7060
X13223Y6840
X14770Y7026
Y7456
X15330Y7080
X16010Y7606
X15482Y8256
X14693Y8554
X15046Y8956
X13371Y9014
X12923Y8554
X11840Y8846
X11150
X10954Y8534
X10506Y8566
X9220Y9056
X9246Y7939
X9744Y6398
X10180Y6149
X11470Y6496
X10500Y4706
X11000Y2996
X9280Y2986
X9620Y1796
X10500Y1496
Y496
X9000
X8270Y3606
X8500Y5686
X7380Y6916
X16500Y5476
Y4496
X18500
X19066Y5076
X19320Y6210
Y6920
X19490Y7826
X18180Y7696
X18040Y7130
X17890Y8416
X16870
X19470Y2236
X20000Y2996
X21000
X22000
X23000
X24000
X25000
X26310Y3216
X26990Y3300
X26780Y3520
X26990Y4200
X27810Y3920
Y3620
Y2640
X26990Y2630
X28500Y3016
X29780Y2197
X31050
X30500Y496
X28500
X26310
X26990Y5600
Y5900
Y6200
X27810
Y5900
Y5600
Y4820
X28500Y5346
X30500
X30500Y4046
X31780Y4196
X31777Y4940
Y5240
Y5540
X32227Y5910
X32437Y5320
X32780Y5340
X32907Y4680
X32607
X33290Y4206
X33527Y5030
X34500Y5346
X33860Y6030
X32791Y6673
X32500Y7536
Y8896
X34140Y9346
X34169Y8247
X34500Y7526
X34829Y4089
X34500Y3096
X34170Y2202
X35440
X34500Y496
X32500
Y3096
X30650Y7320
X31050Y8240
X29960Y8210
X29180Y8760
X28880
X28580
X28280
X28380Y8080
X27810Y7950
Y7650
Y7350
X26990
Y7650
Y7950
Y8250
X26670Y8510
X27810Y8250
X26170Y7440
X25520Y8082
X25120Y8370
X24620
X24120
X23120
X22350Y8500
X21970Y8940
X22770Y9060
X22810Y7130
X22150Y6650
X22270Y6230
X21970
X22270Y5610
X22500Y4496
X23440
X24067Y5770
X24120Y6802
X24620
X25120Y6800
X20670Y7096
X20840Y7926
X20500Y9040
Y5566
X20485Y4496
X21420Y4950
X29753Y9350
X35449Y8247
X37100Y8496
Y6496
X36500Y5346
X37100Y4496
Y2250
X36500Y496
X37100Y10496
X36790Y11746
X36050
X36059Y13262
X36869
X37150Y14496
Y16496
X36967Y17910
X36810Y18870
X36510
X36260Y19420
X36299Y19910
X36020Y19790
X36299Y20330
X36577Y21000
X37247Y20540
X37510Y20100
Y19620
Y19320
X36890Y19440
X35450Y18970
X35585Y15602
X38500Y18496
Y20496
Y22496
Y24496
X36500Y24486
Y22496
X35000Y21996
X34000
X33000
X32000
X31000
X30000
X29000
X28000
X27000
X26440Y22766
X25620Y22716
X25000Y21996
X24000
X23000
X22000
X21000
X20000
X20520Y19250
X20419Y18758
Y18408
X20163Y17798
X20666Y17478
X21043Y16938
X22366
X21989Y17386
Y17806
Y18226
Y18646
Y19066
X21299Y18380
X22233Y16140
X22123Y14625
X22130Y14120
X22370Y13760
X22490Y13480
X21243Y13940
X20383Y13770
X20653Y14558
X20383Y15708
X19960Y16256
X20900Y12390
X21200
X21500
X21800
X21890Y10950
X22110Y10740
X22330Y10530
X22550Y10320
X22770Y10110
X23070
X23370
X23670
X23970
X24270
X24570
X24870
X25170
X25470
X25287Y10750
X25590Y11100
X25890
X26190
X26490
X26790
X27090
X27390
X27690
X28955Y11403
X29606Y12388
X29855Y13434
X29755Y13834
X29745Y14425
X30356Y14129
X31295Y14240
X32210Y14268
X33395Y14262
Y14692
X33675Y14975
X34005
X34405Y15062
X34115Y15985
X34700Y15996
X33335Y16065
X33545Y16285
X33755Y16505
X33010Y17046
X33060Y18020
X32250Y17470
X32225Y16085
X32465Y15215
X32685Y15425
X32905Y15635
X33125Y15845
X30855Y15995
X29745Y15775
X29120Y16360
X28425Y16635
X26857Y16870
X26440Y17770
X26140
X25840
X25540
X25840Y18670
X26060Y18880
X26660Y19034
X27160
X27660
X28160
X29337Y18910
X30317
X30705Y18125
X30495Y17905
X30285Y17685
X30150Y16910
X29380Y17550
Y17850
X31105Y17985
X32250Y18973
X34740Y18970
X34760Y17470
X34490Y21000
X34500Y22746
X32500Y22726
X32520Y21200
X26410Y20620
X25760Y19350
X24540Y19220
X24660Y18940
X24420Y19500
X24300Y19780
X24593Y14723
X24990Y14720
X26677Y14630
X26662Y13498
X26425Y12616
X26990Y12390
X24677Y12400
X24130Y12600
Y13600
X20713Y11930
Y10330
X20960Y9680
X22330Y9480
X22550Y9690
X22770Y9480
X26550Y9430
X26560Y9960
X28230
X28250Y9430
X31141Y10757
X31515Y10752
X32060Y10780
X32270Y10560
X32690
X32480Y10340
X32900
X33680Y10520
X33470Y10740
X33260Y10960
X34130Y11030
X33920Y11250
X33710Y11470
X34850Y11380
Y12126
X35200Y11806
X34850Y12856
X35045Y13362
Y13692
X35405Y13982
X35300Y10496
X34550Y10590
X34340Y10810
X31850Y11000
X31275Y11501
X28470Y14440
X26140Y23586
X19000Y21996
X18000
X17210Y22756
X16400Y21996
X15400
X14400
X13400
X12400
X11400
X10400Y22000
X9400Y21996
X8400
X7400
X7790Y20496
X6500
X5610Y20596
X5600Y20156
X4760Y19876
X4910Y21206
X4500Y22496
X6500Y23216
X6900Y24496
X5400
X9890Y22576
X10890Y22596
Y19350
X9900Y18696
X9910Y17536
X8950Y17436
X8400Y17996
X7900Y18496
X7400Y19306
X6500Y18496
X6850Y17586
X6820Y16456
X6500Y16746
X5690Y17546
X5240Y15440
X6350Y15280
X8566Y15386
X8846Y15936
X9976Y15786
X10050Y15136
X10420Y14706
X10900Y14896
X11170Y15616
X11710Y15669
X12520
X13200Y15526
X13540Y15506
X13200Y16006
X13070Y16396
X13888Y16376
X14396Y15596
X14916Y15606
X15400Y15596
X15800Y15546
X16340Y15196
X15920Y14346
X16006Y13626
X17030Y13666
X17740Y13536
X18070Y14086
X18400Y14696
X19590Y14996
X19520Y13746
X19610Y12996
X18430Y12626
X17270Y12585
X17270Y11806
X16756Y12269
X16196Y12606
X15190Y12996
X15208Y11783
X15166Y10706
X14500Y10496
X14400Y9576
X12720Y9446
Y10496
X11630Y10696
X10860Y10606
X10470Y10636
X10260Y10406
X10259Y10075
X10536Y9786
X10526Y9486
X11640Y9446
X9186Y9486
Y9786
X9216Y10126
X8716Y10096
X8836Y10886
X8796Y11496
X8786Y11861
X8846Y12206
X8866Y12536
X8376Y13106
X7916Y12236
X8226Y11926
X8410Y11206
X7766Y9866
X6500Y10496
X5250Y10236
X4410Y10246
X4546Y11396
X4326Y11791
X5296Y11666
X6500Y12496
X4500Y14496
X7890Y17066
X8900Y19096
X12910Y19350
X14680
X15213Y18698
X15970Y19350
X16960Y19166
X17223Y18228
X17621Y18424
Y17952
Y17651
X17523Y17258
X17153Y17378
X17157Y17016
Y16596
Y16176
X17447Y16386
X17447Y16806
X17447Y15756
X18293Y16250
X18791Y16830
X18470Y17258
X19211Y17430
X18275Y18109
X18315Y18960
X18535Y19168
X19329Y19058
X19330Y21090
X18400Y20430
X17310Y20896
X15203Y17008
X14360Y14786
X13100Y15039
X12770
X13076Y14466
X13106Y13466
X12470Y13466
X11980Y13316
X11710Y13456
X11290Y13026
X12180
X12440Y12586
X11020Y12236
X10676Y12303
Y12642
X10270Y10886
X13411Y11164
X14101Y11724
X16556Y11016
X16967Y11000
X17517Y10230
X16206Y10366
X16346Y9506
X3100Y9426
X3140Y10066
X2510Y11260
X2390Y11866
X1360Y11840
Y12750
X2790Y13550
X3700Y13500
X3370Y15430
X2500Y14870
X1200Y14990
X1010Y15916
X500Y16496
Y14496
Y18496
X2250Y19166
X3380Y19306
X3100Y20996
X3000Y22496
X2500Y22996
Y24496
X500
Y22996
X2320Y17346
X500Y10496
T02
X31746Y11973
X32218
Y12445
X31746
Y12918
Y13390
X32218
Y12918
X32691
Y13390
X33163
Y12918
Y12445
X32691
Y11973
X33163
T04
X11000Y496
X12000
X13000
Y1496
X12000
X11000
X14000
X15000
Y496
X14000
X16000
Y1496
X17000
X18000
Y496
X17000
X20000
Y1496
X21000
Y496
X22000
X23000
Y1496
X22000
X24000
X25000
Y496
X24000
Y23496
X23000
Y24496
X24000
X25000
Y23496
X27000Y23496
X28000
Y24496
X29000
X30000
X31000
Y23496
X32000
X33000
Y24496
X34000
Y23496
X35000
Y24496
X32000
X30000Y23496
X29000
X27000Y24496
X22000Y24496
X21000
Y23496
X22000
X20000
Y24496
X19000
X18000
Y23496
X19000
X16400
Y24496
X15400
Y23496
X14400
X13400
Y24496
X14400
X12400
X11400
X10400
Y23496
X11400
X12400
X9400
X8400
X7400
Y24496
X8400
X9400
T05
X18600Y5780
X1530Y24306
T06
X2880Y6996
Y17996
T07
X5500Y2996
X26000Y4996
X38000Y2996
X26000Y15996
X6000Y21996
T08
X19000Y12496
X19400Y15496
X18600
M30
