G04 Layer_Color=128*
%FSLAX24Y24*%
%MOIN*%
G70*
G01*
G75*
%ADD29R,0.0402X0.0862*%
%ADD80R,0.0874X0.0402*%
%ADD81R,0.2000X0.2000*%
D29*
X27000Y22573D02*
D03*
Y21419D02*
D03*
X35000D02*
D03*
Y22573D02*
D03*
X31000D02*
D03*
Y21419D02*
D03*
X30000Y22573D02*
D03*
Y21419D02*
D03*
X32000Y22573D02*
D03*
Y21419D02*
D03*
X33000Y22573D02*
D03*
Y21419D02*
D03*
X34000D02*
D03*
Y22573D02*
D03*
X28000Y21419D02*
D03*
Y22573D02*
D03*
X29000Y21419D02*
D03*
Y22573D02*
D03*
X11000Y3573D02*
D03*
Y2419D02*
D03*
X15000D02*
D03*
Y3573D02*
D03*
X16000Y2419D02*
D03*
Y3573D02*
D03*
X14000Y2419D02*
D03*
Y3573D02*
D03*
X13000Y2419D02*
D03*
Y3573D02*
D03*
X12000D02*
D03*
Y2419D02*
D03*
X18000Y3573D02*
D03*
Y2419D02*
D03*
X17000Y3573D02*
D03*
Y2419D02*
D03*
X25000Y21419D02*
D03*
Y22573D02*
D03*
X21000D02*
D03*
Y21419D02*
D03*
X20000Y22573D02*
D03*
Y21419D02*
D03*
X22000Y22573D02*
D03*
Y21419D02*
D03*
X23000Y22573D02*
D03*
Y21419D02*
D03*
X24000D02*
D03*
Y22573D02*
D03*
X18000Y21419D02*
D03*
Y22573D02*
D03*
X19000Y21419D02*
D03*
Y22573D02*
D03*
X8400D02*
D03*
Y21419D02*
D03*
X7400Y22573D02*
D03*
Y21419D02*
D03*
X16400D02*
D03*
Y22573D02*
D03*
X12400D02*
D03*
Y21419D02*
D03*
X11400Y22573D02*
D03*
Y21419D02*
D03*
X13400Y22573D02*
D03*
Y21419D02*
D03*
X14400Y22573D02*
D03*
Y21419D02*
D03*
X15400D02*
D03*
Y22573D02*
D03*
X9400Y21419D02*
D03*
Y22573D02*
D03*
X10400Y21419D02*
D03*
Y22573D02*
D03*
X21000Y2419D02*
D03*
Y3573D02*
D03*
X22000D02*
D03*
Y2419D02*
D03*
X23000Y3573D02*
D03*
Y2419D02*
D03*
X25000Y3573D02*
D03*
Y2419D02*
D03*
X24000Y3573D02*
D03*
Y2419D02*
D03*
X20000D02*
D03*
Y3573D02*
D03*
D80*
X24438Y11996D02*
D03*
X26662D02*
D03*
X24438Y12996D02*
D03*
Y13996D02*
D03*
X26662Y12996D02*
D03*
Y13996D02*
D03*
D81*
X4500Y7340D02*
D03*
Y17640D02*
D03*
M02*
