G04 Layer_Color=8388736*
%FSLAX24Y24*%
%MOIN*%
G70*
G01*
G75*
%ADD94C,0.0240*%
%ADD95C,0.0139*%
%ADD96R,0.0296X0.1084*%
%ADD97R,0.0198X0.0375*%
%ADD98R,0.0257X0.0296*%
%ADD99R,0.0434X0.0395*%
%ADD100R,0.0217X0.0257*%
%ADD101R,0.0296X0.0277*%
%ADD102O,0.0136X0.0305*%
%ADD103O,0.0305X0.0136*%
%ADD104R,0.0296X0.0257*%
%ADD105C,0.0454*%
%ADD106R,0.0359X0.1005*%
%ADD107R,0.0462X0.0922*%
%ADD108O,0.0316X0.0139*%
%ADD109O,0.0139X0.0316*%
%ADD110R,0.1910X0.1910*%
%ADD111R,0.0277X0.0296*%
%ADD112R,0.0355X0.0375*%
%ADD113C,0.0370*%
%ADD114R,0.0316X0.0257*%
%ADD115R,0.0375X0.0355*%
G04:AMPARAMS|DCode=116|XSize=37.5mil|YSize=35.5mil|CornerRadius=0mil|HoleSize=0mil|Usage=FLASHONLY|Rotation=40.000|XOffset=0mil|YOffset=0mil|HoleType=Round|Shape=Rectangle|*
%AMROTATEDRECTD116*
4,1,4,-0.0029,-0.0257,-0.0258,0.0016,0.0029,0.0257,0.0258,-0.0016,-0.0029,-0.0257,0.0*
%
%ADD116ROTATEDRECTD116*%

G04:AMPARAMS|DCode=117|XSize=25.7mil|YSize=31.6mil|CornerRadius=0mil|HoleSize=0mil|Usage=FLASHONLY|Rotation=40.000|XOffset=0mil|YOffset=0mil|HoleType=Round|Shape=Rectangle|*
%AMROTATEDRECTD117*
4,1,4,0.0003,-0.0204,-0.0200,0.0038,-0.0003,0.0204,0.0200,-0.0038,0.0003,-0.0204,0.0*
%
%ADD117ROTATEDRECTD117*%

%ADD118R,0.0360X0.0380*%
%ADD119R,0.0592X0.0217*%
%ADD120R,0.0670X0.0808*%
%ADD121R,0.0611X0.0690*%
%ADD122R,0.0375X0.0355*%
%ADD123R,0.0288X0.0257*%
%ADD124R,0.1560X0.0560*%
%ADD125R,0.0414X0.0198*%
%ADD126R,0.1312X0.0560*%
%ADD127R,0.0460X0.0360*%
%ADD128C,0.0787*%
%ADD129R,0.1143X0.0611*%
%ADD130R,0.0316X0.0395*%
%ADD131R,0.0296X0.0395*%
%ADD132R,0.0454X0.0395*%
%ADD133R,0.0336X0.0178*%
%ADD134R,0.0532X0.0493*%
%ADD135O,0.0710X0.0178*%
%ADD136O,0.0178X0.0710*%
%ADD137R,0.1005X0.0359*%
%ADD138R,0.0532X0.1044*%
%ADD139R,0.0769X0.0454*%
%ADD140C,0.0651*%
%ADD141O,0.0690X0.0414*%
%ADD142R,0.0651X0.0651*%
%ADD143C,0.0761*%
%ADD144C,0.1320*%
%ADD145C,0.0300*%
D94*
X19083Y19288D02*
G03*
X19083Y19288I-110J0D01*
G01*
X19061D02*
G03*
X19061Y19288I-110J0D01*
G01*
X17380Y12949D02*
G03*
X17380Y12949I-110J0D01*
G01*
X19618Y8496D02*
G03*
X19618Y8496I-110J0D01*
G01*
X19596D02*
G03*
X19596Y8496I-110J0D01*
G01*
X19618Y11496D02*
G03*
X19618Y11496I-110J0D01*
G01*
X19596D02*
G03*
X19596Y11496I-110J0D01*
G01*
X18618D02*
G03*
X18618Y11496I-110J0D01*
G01*
X18596D02*
G03*
X18596Y11496I-110J0D01*
G01*
X18618Y8496D02*
G03*
X18618Y8496I-110J0D01*
G01*
X18596D02*
G03*
X18596Y8496I-110J0D01*
G01*
X16688Y6630D02*
G03*
X16688Y6630I-110J0D01*
G01*
X16666D02*
G03*
X16666Y6630I-110J0D01*
G01*
X16688Y6130D02*
G03*
X16688Y6130I-110J0D01*
G01*
X16666D02*
G03*
X16666Y6130I-110J0D01*
G01*
X35733Y17990D02*
G03*
X35733Y17990I-110J0D01*
G01*
X35711D02*
G03*
X35711Y17990I-110J0D01*
G01*
X35733Y18550D02*
G03*
X35733Y18550I-110J0D01*
G01*
X35711D02*
G03*
X35711Y18550I-110J0D01*
G01*
X29070Y17572D02*
G03*
X29070Y17572I-110J0D01*
G01*
X29920D02*
G03*
X29920Y17572I-110J0D01*
G01*
Y17032D02*
G03*
X29920Y17032I-110J0D01*
G01*
Y17054D02*
G03*
X29920Y17054I-110J0D01*
G01*
X29070Y17032D02*
G03*
X29070Y17032I-110J0D01*
G01*
Y17054D02*
G03*
X29070Y17054I-110J0D01*
G01*
X26770Y19388D02*
G03*
X26770Y19388I-110J0D01*
G01*
Y19366D02*
G03*
X26770Y19366I-110J0D01*
G01*
X27270Y19388D02*
G03*
X27270Y19388I-110J0D01*
G01*
Y19366D02*
G03*
X27270Y19366I-110J0D01*
G01*
X27770Y19388D02*
G03*
X27770Y19388I-110J0D01*
G01*
Y19366D02*
G03*
X27770Y19366I-110J0D01*
G01*
X28270Y19388D02*
G03*
X28270Y19388I-110J0D01*
G01*
Y19366D02*
G03*
X28270Y19366I-110J0D01*
G01*
X6488Y5596D02*
G03*
X6488Y5596I-110J0D01*
G01*
Y6096D02*
G03*
X6488Y6096I-110J0D01*
G01*
Y6596D02*
G03*
X6488Y6596I-110J0D01*
G01*
X6020Y17874D02*
G03*
X6020Y17874I-110J0D01*
G01*
Y17852D02*
G03*
X6020Y17852I-110J0D01*
G01*
X35711Y16870D02*
G03*
X35711Y16870I-110J0D01*
G01*
X35733D02*
G03*
X35733Y16870I-110J0D01*
G01*
X35711Y17430D02*
G03*
X35711Y17430I-110J0D01*
G01*
X35733D02*
G03*
X35733Y17430I-110J0D01*
G01*
X21640Y10838D02*
G03*
X21640Y10838I-110J0D01*
G01*
X27292Y14820D02*
G03*
X27292Y14820I-110J0D01*
G01*
X27298Y15340D02*
G03*
X27298Y15340I-110J0D01*
G01*
X27276D02*
G03*
X27276Y15340I-110J0D01*
G01*
X16688Y7130D02*
G03*
X16688Y7130I-110J0D01*
G01*
X16666D02*
G03*
X16666Y7130I-110J0D01*
G01*
X16688Y7630D02*
G03*
X16688Y7630I-110J0D01*
G01*
X16666D02*
G03*
X16666Y7630I-110J0D01*
G01*
X9854Y6792D02*
G03*
X9854Y6792I-110J0D01*
G01*
Y6770D02*
G03*
X9854Y6770I-110J0D01*
G01*
D95*
X19095Y19288D02*
D03*
X18829D02*
D03*
X17270Y12825D02*
D03*
Y13071D02*
D03*
X19630Y8496D02*
D03*
X19364D02*
D03*
X19630Y11496D02*
D03*
X19364D02*
D03*
X18630D02*
D03*
X18364D02*
D03*
X18630Y8496D02*
D03*
X18364D02*
D03*
X16700Y6630D02*
D03*
X16434D02*
D03*
X16700Y6130D02*
D03*
X16434D02*
D03*
X35745Y17990D02*
D03*
X35479D02*
D03*
X35745Y18550D02*
D03*
X35479D02*
D03*
X28960Y17450D02*
D03*
Y17696D02*
D03*
X29810Y17450D02*
D03*
Y17696D02*
D03*
Y16910D02*
D03*
Y17176D02*
D03*
X28960Y16910D02*
D03*
Y17176D02*
D03*
X26660Y19510D02*
D03*
Y19244D02*
D03*
X27160Y19510D02*
D03*
Y19244D02*
D03*
X27660Y19510D02*
D03*
Y19244D02*
D03*
X28160Y19510D02*
D03*
Y19244D02*
D03*
X6254Y5596D02*
D03*
X6500D02*
D03*
X6254Y6096D02*
D03*
X6500D02*
D03*
X6254Y6596D02*
D03*
X6500D02*
D03*
X5910Y17996D02*
D03*
Y17730D02*
D03*
X35479Y16870D02*
D03*
X35745D02*
D03*
X35479Y17430D02*
D03*
X35745D02*
D03*
X21530Y10960D02*
D03*
Y10714D02*
D03*
X27306Y14820D02*
D03*
X27060D02*
D03*
X27310Y15340D02*
D03*
X27044D02*
D03*
X16700Y7130D02*
D03*
X16434D02*
D03*
X16700Y7630D02*
D03*
X16434D02*
D03*
X9744Y6914D02*
D03*
Y6648D02*
D03*
D96*
X28152Y614D02*
D03*
X26656D02*
D03*
D97*
X27601Y1520D02*
D03*
X27404D02*
D03*
X27207D02*
D03*
X27010D02*
D03*
X27797D02*
D03*
D98*
X33675Y14295D02*
D03*
Y14688D02*
D03*
X9096Y11933D02*
D03*
Y11539D02*
D03*
X35200Y12483D02*
D03*
Y12089D02*
D03*
X10886Y15633D02*
D03*
Y15239D02*
D03*
X16516Y9959D02*
D03*
Y10353D02*
D03*
X16486Y12663D02*
D03*
Y12269D02*
D03*
X16336Y13069D02*
D03*
Y13463D02*
D03*
X9066Y15663D02*
D03*
Y15269D02*
D03*
X34105Y12878D02*
D03*
Y12485D02*
D03*
X35405Y14688D02*
D03*
Y14295D02*
D03*
X30016Y12452D02*
D03*
Y12845D02*
D03*
X37189Y12998D02*
D03*
Y12605D02*
D03*
X8226Y12653D02*
D03*
Y12259D02*
D03*
X9096Y12653D02*
D03*
Y12259D02*
D03*
X11936Y7443D02*
D03*
Y7049D02*
D03*
X14500Y7443D02*
D03*
Y7049D02*
D03*
X34005Y14295D02*
D03*
Y14688D02*
D03*
X33527Y5293D02*
D03*
Y5687D02*
D03*
X13556Y14809D02*
D03*
Y15203D02*
D03*
D99*
X34990Y14265D02*
D03*
Y14718D02*
D03*
X34419D02*
D03*
Y14265D02*
D03*
D100*
X23357Y16450D02*
D03*
X23909D02*
D03*
X22307Y15328D02*
D03*
X22859D02*
D03*
X20587D02*
D03*
X21139D02*
D03*
X20587Y16418D02*
D03*
X21138D02*
D03*
D101*
X27225Y9986D02*
D03*
X26832D02*
D03*
X27572D02*
D03*
X27965D02*
D03*
X27572Y9686D02*
D03*
X27965D02*
D03*
X27225D02*
D03*
X26832D02*
D03*
X19769Y18758D02*
D03*
X20163D02*
D03*
X19769Y18408D02*
D03*
X20163D02*
D03*
X21710Y16938D02*
D03*
X22104D02*
D03*
X21316D02*
D03*
X21710D02*
D03*
X23838Y16077D02*
D03*
X23444D02*
D03*
X22780Y14965D02*
D03*
X22386D02*
D03*
X21048Y14958D02*
D03*
X20654D02*
D03*
X22253Y19066D02*
D03*
X22646D02*
D03*
X22253Y18646D02*
D03*
X22646D02*
D03*
X22253Y18226D02*
D03*
X22646D02*
D03*
X22253Y17386D02*
D03*
X22646D02*
D03*
X21057Y16048D02*
D03*
X20663D02*
D03*
X22253Y17806D02*
D03*
X22646D02*
D03*
X15727Y7366D02*
D03*
X15333D02*
D03*
X16589Y11796D02*
D03*
X16983D02*
D03*
X16875Y16596D02*
D03*
X16482D02*
D03*
X16875Y17016D02*
D03*
X16482D02*
D03*
X16875Y16176D02*
D03*
X16482D02*
D03*
X16875Y17386D02*
D03*
X16482D02*
D03*
X1215Y10586D02*
D03*
X822D02*
D03*
X19769Y18058D02*
D03*
X20163D02*
D03*
X24593Y14990D02*
D03*
X24987D02*
D03*
D102*
X36654Y20102D02*
D03*
X36811D02*
D03*
X36969D02*
D03*
X37126D02*
D03*
Y19138D02*
D03*
X36969D02*
D03*
X36811D02*
D03*
X36654D02*
D03*
X18472Y17705D02*
D03*
X18315D02*
D03*
X18157D02*
D03*
X18000D02*
D03*
Y18670D02*
D03*
X18157D02*
D03*
X18315D02*
D03*
X18472D02*
D03*
X21536Y17718D02*
D03*
X21378D02*
D03*
X21221D02*
D03*
X21063D02*
D03*
Y18682D02*
D03*
X21221D02*
D03*
X21378D02*
D03*
X21536D02*
D03*
X32833Y4995D02*
D03*
X32675D02*
D03*
X32518D02*
D03*
X32360D02*
D03*
Y5645D02*
D03*
X32518D02*
D03*
X32675D02*
D03*
X32833D02*
D03*
D103*
X37215Y19856D02*
D03*
Y19699D02*
D03*
Y19541D02*
D03*
Y19384D02*
D03*
X36565D02*
D03*
Y19541D02*
D03*
Y19699D02*
D03*
Y19856D02*
D03*
X17911Y17952D02*
D03*
Y18109D02*
D03*
Y18266D02*
D03*
Y18424D02*
D03*
X18561D02*
D03*
Y18266D02*
D03*
Y18109D02*
D03*
Y17952D02*
D03*
X20975Y17964D02*
D03*
Y18121D02*
D03*
Y18279D02*
D03*
Y18436D02*
D03*
X21624D02*
D03*
Y18279D02*
D03*
Y18121D02*
D03*
Y17964D02*
D03*
X33079Y5556D02*
D03*
Y5399D02*
D03*
Y5241D02*
D03*
Y5084D02*
D03*
X32114D02*
D03*
Y5241D02*
D03*
Y5399D02*
D03*
Y5556D02*
D03*
D104*
X18190Y17258D02*
D03*
X17796D02*
D03*
X21267Y17278D02*
D03*
X20873D02*
D03*
X23838Y15737D02*
D03*
X23444D02*
D03*
X22386Y14625D02*
D03*
X22780D02*
D03*
X20654Y14618D02*
D03*
X21048D02*
D03*
X21057Y15708D02*
D03*
X20663D02*
D03*
X27573Y9350D02*
D03*
X27967D02*
D03*
X10679Y14576D02*
D03*
X11073D02*
D03*
X16549Y10736D02*
D03*
X16943D02*
D03*
X10359Y7436D02*
D03*
X10753D02*
D03*
X8719Y10416D02*
D03*
X9113D02*
D03*
X8689Y11216D02*
D03*
X9083D02*
D03*
X1215Y10236D02*
D03*
X822D02*
D03*
X31532Y11072D02*
D03*
X31138D02*
D03*
X29259Y11408D02*
D03*
X29653D02*
D03*
X12799Y14746D02*
D03*
X13193D02*
D03*
X3619Y11806D02*
D03*
X4013D02*
D03*
X14739Y14826D02*
D03*
X15133D02*
D03*
X3593Y9016D02*
D03*
X3987D02*
D03*
X30552Y13432D02*
D03*
X30158D02*
D03*
X34318Y13692D02*
D03*
X34711D02*
D03*
X34318Y13362D02*
D03*
X34711D02*
D03*
X26833Y9350D02*
D03*
X27227D02*
D03*
X36967Y20540D02*
D03*
X36573D02*
D03*
D105*
X20500Y9496D02*
D03*
X21500Y6496D02*
D03*
X7000Y7246D02*
D03*
X21500Y7496D02*
D03*
Y8496D02*
D03*
X19500Y10496D02*
D03*
Y9496D02*
D03*
X18500Y10496D02*
D03*
Y9496D02*
D03*
X4000Y14996D02*
D03*
Y13996D02*
D03*
X5000Y12996D02*
D03*
Y12246D02*
D03*
D106*
X23120Y8965D02*
D03*
X23620D02*
D03*
X24120D02*
D03*
X24620D02*
D03*
X25120D02*
D03*
X23120Y7430D02*
D03*
X23620D02*
D03*
X24120D02*
D03*
X24620D02*
D03*
X25120D02*
D03*
D107*
X7400Y17419D02*
D03*
Y18573D02*
D03*
X11400D02*
D03*
Y17419D02*
D03*
X12400Y18573D02*
D03*
Y17419D02*
D03*
X10400Y18573D02*
D03*
Y17419D02*
D03*
X9400Y18573D02*
D03*
Y17419D02*
D03*
X8400D02*
D03*
Y18573D02*
D03*
X14400Y17419D02*
D03*
Y18573D02*
D03*
X13400Y17419D02*
D03*
Y18573D02*
D03*
X27000Y21419D02*
D03*
Y22573D02*
D03*
X33000D02*
D03*
X29000D02*
D03*
X33000Y21419D02*
D03*
X29000D02*
D03*
X34000Y22573D02*
D03*
X35000D02*
D03*
X30000D02*
D03*
X31000D02*
D03*
X28000D02*
D03*
X34000Y21419D02*
D03*
X35000D02*
D03*
X30000Y21419D02*
D03*
X31000Y21419D02*
D03*
X28000D02*
D03*
X32000Y22573D02*
D03*
Y21419D02*
D03*
X22000Y21419D02*
D03*
Y22573D02*
D03*
X18000Y21419D02*
D03*
X21000D02*
D03*
X20000Y21419D02*
D03*
X25000Y21419D02*
D03*
X24000D02*
D03*
X18000Y22573D02*
D03*
X21000D02*
D03*
X20000D02*
D03*
X25000D02*
D03*
X24000D02*
D03*
X19000Y21419D02*
D03*
X23000D02*
D03*
X19000Y22573D02*
D03*
X23000D02*
D03*
X7400Y21419D02*
D03*
X13400D02*
D03*
X7400Y22573D02*
D03*
X13400D02*
D03*
X8400Y21419D02*
D03*
X9400Y21419D02*
D03*
X11400D02*
D03*
X12400D02*
D03*
X15400D02*
D03*
X16400D02*
D03*
X8400Y22573D02*
D03*
X9400D02*
D03*
X11400D02*
D03*
X12400D02*
D03*
X15400D02*
D03*
X16400D02*
D03*
X10400Y21419D02*
D03*
X14400Y21419D02*
D03*
X10400Y22573D02*
D03*
X14400D02*
D03*
X14000Y3573D02*
D03*
Y2419D02*
D03*
X18000Y3573D02*
D03*
X15000D02*
D03*
X16000Y3573D02*
D03*
X11000Y3573D02*
D03*
X12000D02*
D03*
X18000Y2419D02*
D03*
X15000D02*
D03*
X16000D02*
D03*
X11000D02*
D03*
X12000D02*
D03*
X17000Y3573D02*
D03*
X13000D02*
D03*
X17000Y2419D02*
D03*
X13000D02*
D03*
X22000Y2419D02*
D03*
Y3573D02*
D03*
X20000Y2419D02*
D03*
X21000D02*
D03*
X24000D02*
D03*
X25000D02*
D03*
X20000Y3573D02*
D03*
X21000D02*
D03*
X24000D02*
D03*
X25000D02*
D03*
X23000Y2419D02*
D03*
X23000Y3573D02*
D03*
D108*
X31264Y13548D02*
D03*
Y13390D02*
D03*
Y13233D02*
D03*
Y13075D02*
D03*
Y12918D02*
D03*
Y12760D02*
D03*
Y12603D02*
D03*
Y12445D02*
D03*
Y12288D02*
D03*
Y12130D02*
D03*
Y11973D02*
D03*
Y11815D02*
D03*
X33646D02*
D03*
Y11973D02*
D03*
Y12130D02*
D03*
Y12288D02*
D03*
Y12445D02*
D03*
Y12603D02*
D03*
Y12760D02*
D03*
Y12918D02*
D03*
Y13075D02*
D03*
Y13233D02*
D03*
Y13390D02*
D03*
Y13548D02*
D03*
D109*
X31589Y11491D02*
D03*
X31746D02*
D03*
X31903D02*
D03*
X32061D02*
D03*
X32218D02*
D03*
X32376D02*
D03*
X32533D02*
D03*
X32691D02*
D03*
X32848D02*
D03*
X33006D02*
D03*
X33163D02*
D03*
X33321D02*
D03*
Y13873D02*
D03*
X33163D02*
D03*
X33006D02*
D03*
X32848D02*
D03*
X32691D02*
D03*
X32533D02*
D03*
X32376D02*
D03*
X32218D02*
D03*
X32061D02*
D03*
X31903D02*
D03*
X31746D02*
D03*
X31589D02*
D03*
D110*
X32455Y12682D02*
D03*
D111*
X6520Y17619D02*
D03*
Y18013D02*
D03*
X16336Y13839D02*
D03*
Y14233D02*
D03*
X15630Y18823D02*
D03*
Y18429D02*
D03*
X5260Y20583D02*
D03*
Y20189D02*
D03*
X4360Y19259D02*
D03*
Y19653D02*
D03*
X32250Y18647D02*
D03*
Y18253D02*
D03*
X34740Y18647D02*
D03*
Y18253D02*
D03*
X34760Y17147D02*
D03*
Y16753D02*
D03*
X32250D02*
D03*
Y17147D02*
D03*
X3720Y20773D02*
D03*
Y20379D02*
D03*
X8329Y7983D02*
D03*
Y7589D02*
D03*
X8703Y7983D02*
D03*
Y7589D02*
D03*
X8576Y12653D02*
D03*
Y12259D02*
D03*
X12923Y7053D02*
D03*
Y7447D02*
D03*
X13513Y7053D02*
D03*
Y7447D02*
D03*
X7460Y14952D02*
D03*
Y14559D02*
D03*
X7460Y13816D02*
D03*
Y14210D02*
D03*
D112*
X15784Y14806D02*
D03*
X16316D02*
D03*
X14560Y15226D02*
D03*
X15092D02*
D03*
X4192Y11406D02*
D03*
X3660D02*
D03*
X3424Y9436D02*
D03*
X3956D02*
D03*
X30089Y13832D02*
D03*
X30620D02*
D03*
D113*
X19250Y14996D02*
D03*
Y13496D02*
D03*
Y13996D02*
D03*
Y12996D02*
D03*
X18750Y14996D02*
D03*
X19250Y14496D02*
D03*
X18750D02*
D03*
Y13996D02*
D03*
Y12996D02*
D03*
Y13496D02*
D03*
D114*
X34842Y12482D02*
D03*
X34468D02*
D03*
D115*
X31705Y14366D02*
D03*
Y14897D02*
D03*
X3470Y10080D02*
D03*
Y10612D02*
D03*
D116*
X31686Y15588D02*
D03*
X31344Y15995D02*
D03*
D117*
X31365Y15308D02*
D03*
X31125Y15595D02*
D03*
D118*
X31225Y18440D02*
D03*
X31775D02*
D03*
X33725D02*
D03*
X34275D02*
D03*
X31225Y16940D02*
D03*
X31775D02*
D03*
X33725D02*
D03*
X34275D02*
D03*
D119*
X1818Y12496D02*
D03*
Y12752D02*
D03*
Y13008D02*
D03*
Y12240D02*
D03*
Y11984D02*
D03*
D120*
X765Y12968D02*
D03*
Y12024D02*
D03*
D121*
X1730Y11236D02*
D03*
Y13756D02*
D03*
D122*
X36045Y12078D02*
D03*
Y12885D02*
D03*
X36793Y12078D02*
D03*
Y12885D02*
D03*
D123*
X35962Y12482D02*
D03*
X36875D02*
D03*
D124*
X26425Y11996D02*
D03*
X24675D02*
D03*
X26425Y12996D02*
D03*
X24675D02*
D03*
X26425Y13996D02*
D03*
X24675D02*
D03*
D125*
X16874Y18230D02*
D03*
Y18486D02*
D03*
Y18742D02*
D03*
X16126D02*
D03*
X16126Y18486D02*
D03*
X16126Y18230D02*
D03*
X4844Y20320D02*
D03*
Y20576D02*
D03*
Y20832D02*
D03*
X4096D02*
D03*
Y20576D02*
D03*
Y20320D02*
D03*
D126*
X4650Y17496D02*
D03*
Y18496D02*
D03*
Y7496D02*
D03*
Y6496D02*
D03*
D127*
X4000Y10626D02*
D03*
Y9878D02*
D03*
X4827Y10252D02*
D03*
D128*
X37973Y23596D02*
D03*
X4580Y1310D02*
D03*
D129*
X29091Y2199D02*
D03*
Y3774D02*
D03*
X31749Y2199D02*
D03*
Y3774D02*
D03*
X33491Y2199D02*
D03*
Y3774D02*
D03*
X36149Y2199D02*
D03*
Y3774D02*
D03*
X6941Y2209D02*
D03*
Y3783D02*
D03*
X9599Y2209D02*
D03*
Y3783D02*
D03*
X36149Y8244D02*
D03*
Y6669D02*
D03*
X33491Y8244D02*
D03*
Y6669D02*
D03*
X31749Y8244D02*
D03*
Y6669D02*
D03*
X29091Y8244D02*
D03*
Y6669D02*
D03*
D130*
X8349Y8701D02*
D03*
Y9271D02*
D03*
X8683Y8701D02*
D03*
Y9271D02*
D03*
D131*
X2852Y12222D02*
D03*
X3600D02*
D03*
X2852Y13030D02*
D03*
D132*
X3521D02*
D03*
D133*
X4450Y5436D02*
D03*
Y5948D02*
D03*
Y5692D02*
D03*
X5080Y5436D02*
D03*
Y5692D02*
D03*
Y5948D02*
D03*
D134*
X9506Y15105D02*
D03*
Y15807D02*
D03*
X10446Y15105D02*
D03*
Y15807D02*
D03*
D135*
X9744Y8634D02*
D03*
Y9027D02*
D03*
Y8831D02*
D03*
Y9421D02*
D03*
Y9224D02*
D03*
Y10012D02*
D03*
Y9815D02*
D03*
Y10209D02*
D03*
Y9618D02*
D03*
Y11193D02*
D03*
Y11587D02*
D03*
Y11390D02*
D03*
Y10602D02*
D03*
Y10405D02*
D03*
Y10996D02*
D03*
Y10799D02*
D03*
Y12768D02*
D03*
Y12571D02*
D03*
Y13161D02*
D03*
Y12965D02*
D03*
Y11980D02*
D03*
Y11783D02*
D03*
Y12374D02*
D03*
Y12177D02*
D03*
Y13358D02*
D03*
X15708Y8831D02*
D03*
Y8634D02*
D03*
Y9224D02*
D03*
Y9027D02*
D03*
Y9618D02*
D03*
Y9421D02*
D03*
Y9815D02*
D03*
Y10209D02*
D03*
Y10012D02*
D03*
Y10602D02*
D03*
Y10405D02*
D03*
Y11587D02*
D03*
Y11980D02*
D03*
Y11783D02*
D03*
Y10996D02*
D03*
Y10799D02*
D03*
Y11390D02*
D03*
Y11193D02*
D03*
Y13161D02*
D03*
Y12965D02*
D03*
Y13358D02*
D03*
Y12374D02*
D03*
Y12177D02*
D03*
Y12768D02*
D03*
Y12571D02*
D03*
D136*
X10364Y8014D02*
D03*
X10561D02*
D03*
X11151D02*
D03*
X11348D02*
D03*
X10758D02*
D03*
X10954D02*
D03*
X11939D02*
D03*
X12136D02*
D03*
X11545D02*
D03*
X11742D02*
D03*
X10954Y13978D02*
D03*
X11151D02*
D03*
X10364D02*
D03*
X10758D02*
D03*
X11348D02*
D03*
X11545D02*
D03*
X10561D02*
D03*
X12136D02*
D03*
X12332D02*
D03*
X11742D02*
D03*
X11939D02*
D03*
X14104Y8014D02*
D03*
X13710D02*
D03*
X13907D02*
D03*
X14695D02*
D03*
X14891D02*
D03*
X14301D02*
D03*
X14498D02*
D03*
X12726D02*
D03*
X12332D02*
D03*
X12529D02*
D03*
X13317D02*
D03*
X13513D02*
D03*
X12923D02*
D03*
X13120D02*
D03*
X15088D02*
D03*
X12529Y13978D02*
D03*
X12726D02*
D03*
X12923D02*
D03*
X13120D02*
D03*
X13317D02*
D03*
X13907D02*
D03*
X14104D02*
D03*
X13513D02*
D03*
X13710D02*
D03*
X14695D02*
D03*
X14891D02*
D03*
X14301D02*
D03*
X14498D02*
D03*
X15088D02*
D03*
D137*
X2298Y22506D02*
D03*
Y22006D02*
D03*
Y21506D02*
D03*
Y21006D02*
D03*
Y20506D02*
D03*
X762Y22506D02*
D03*
Y22006D02*
D03*
Y21506D02*
D03*
Y21006D02*
D03*
Y20506D02*
D03*
D138*
X3164Y1783D02*
D03*
X1196D02*
D03*
X2180D02*
D03*
Y3949D02*
D03*
X1196D02*
D03*
X3164D02*
D03*
D139*
X29456Y11826D02*
D03*
Y12811D02*
D03*
D140*
X1530Y24306D02*
D03*
X18600Y5780D02*
D03*
X28000Y24496D02*
D03*
Y23496D02*
D03*
X31000D02*
D03*
Y24496D02*
D03*
X33000Y23496D02*
D03*
Y24496D02*
D03*
X34000Y23496D02*
D03*
Y24496D02*
D03*
X35000Y23496D02*
D03*
X32000Y24496D02*
D03*
Y23496D02*
D03*
X30000Y24496D02*
D03*
Y23496D02*
D03*
X29000D02*
D03*
Y24496D02*
D03*
X27000D02*
D03*
Y23496D02*
D03*
X25000Y1496D02*
D03*
Y496D02*
D03*
X23000Y1496D02*
D03*
Y496D02*
D03*
X20000Y1496D02*
D03*
X21000Y496D02*
D03*
Y1496D02*
D03*
X22000Y496D02*
D03*
Y1496D02*
D03*
X24000Y496D02*
D03*
Y1496D02*
D03*
X18000Y496D02*
D03*
Y1496D02*
D03*
X15000D02*
D03*
Y496D02*
D03*
X13000Y1496D02*
D03*
Y496D02*
D03*
X12000Y1496D02*
D03*
Y496D02*
D03*
X11000Y1496D02*
D03*
X14000Y496D02*
D03*
Y1496D02*
D03*
X16000Y496D02*
D03*
Y1496D02*
D03*
X17000D02*
D03*
Y496D02*
D03*
X18000Y24496D02*
D03*
Y23496D02*
D03*
X21000D02*
D03*
Y24496D02*
D03*
X23000Y23496D02*
D03*
Y24496D02*
D03*
X24000Y23496D02*
D03*
Y24496D02*
D03*
X25000Y23496D02*
D03*
X22000Y24496D02*
D03*
Y23496D02*
D03*
X20000Y24496D02*
D03*
Y23496D02*
D03*
X19000D02*
D03*
Y24496D02*
D03*
X7400D02*
D03*
Y23496D02*
D03*
X8400D02*
D03*
Y24496D02*
D03*
X10400D02*
D03*
Y23496D02*
D03*
X11400D02*
D03*
Y24496D02*
D03*
X13400Y23496D02*
D03*
Y24496D02*
D03*
X16400Y23496D02*
D03*
X15400Y24496D02*
D03*
Y23496D02*
D03*
X14400Y24496D02*
D03*
Y23496D02*
D03*
X12400Y24496D02*
D03*
Y23496D02*
D03*
X9400D02*
D03*
Y24496D02*
D03*
D141*
X765Y11197D02*
D03*
Y13795D02*
D03*
D142*
X35000Y24496D02*
D03*
X20000Y496D02*
D03*
X11000D02*
D03*
X25000Y24496D02*
D03*
X16400D02*
D03*
D143*
X2880Y17996D02*
D03*
Y6996D02*
D03*
D144*
X26000Y4996D02*
D03*
Y15996D02*
D03*
X5500Y2996D02*
D03*
X6000Y21996D02*
D03*
X38000Y2996D02*
D03*
D145*
X3370Y15430D02*
D03*
X5240Y15440D02*
D03*
X2500Y14870D02*
D03*
X2790Y13550D02*
D03*
X2510Y11260D02*
D03*
X1360Y11840D02*
D03*
Y12750D02*
D03*
X4326Y11791D02*
D03*
X6350Y15280D02*
D03*
X6500Y12496D02*
D03*
X3700Y13500D02*
D03*
X5296Y11666D02*
D03*
X7916Y12236D02*
D03*
X6500Y10496D02*
D03*
X2390Y11866D02*
D03*
X4546Y11396D02*
D03*
X4500Y14496D02*
D03*
X3100Y9426D02*
D03*
X3140Y10066D02*
D03*
X4410Y10246D02*
D03*
X5250Y10236D02*
D03*
M02*
