G04 Layer_Color=65535*
%FSLAX24Y24*%
%MOIN*%
G70*
G01*
G75*
%ADD14C,0.0060*%
%ADD15C,0.0050*%
G36*
X6847Y20037D02*
X6582Y19903D01*
X6847D01*
Y19841D01*
X6440D01*
Y19906D01*
X6712Y20042D01*
X6440D01*
Y20105D01*
X6847D01*
Y20037D01*
D02*
G37*
G36*
X6661Y20454D02*
X6667D01*
X6673Y20453D01*
X6679Y20453D01*
X6694Y20451D01*
X6709Y20449D01*
X6725Y20446D01*
X6740Y20442D01*
X6740D01*
X6741Y20441D01*
X6744Y20441D01*
X6746Y20440D01*
X6750Y20438D01*
X6753Y20437D01*
X6762Y20434D01*
X6772Y20429D01*
X6782Y20424D01*
X6792Y20418D01*
X6801Y20411D01*
X6803Y20411D01*
X6805Y20408D01*
X6809Y20404D01*
X6814Y20400D01*
X6820Y20393D01*
X6825Y20385D01*
X6831Y20377D01*
X6836Y20368D01*
Y20367D01*
X6836Y20367D01*
X6837Y20365D01*
X6837Y20363D01*
X6838Y20361D01*
X6839Y20357D01*
X6841Y20350D01*
X6843Y20340D01*
X6845Y20329D01*
X6846Y20316D01*
X6847Y20301D01*
Y20175D01*
X6440D01*
Y20297D01*
Y20298D01*
Y20299D01*
Y20302D01*
Y20305D01*
X6441Y20309D01*
Y20314D01*
X6441Y20324D01*
X6443Y20335D01*
X6444Y20347D01*
X6447Y20358D01*
X6451Y20368D01*
Y20368D01*
X6451Y20369D01*
X6453Y20371D01*
X6455Y20376D01*
X6459Y20382D01*
X6464Y20389D01*
X6470Y20396D01*
X6477Y20404D01*
X6486Y20411D01*
X6487Y20413D01*
X6489Y20414D01*
X6490Y20415D01*
X6496Y20418D01*
X6503Y20423D01*
X6513Y20428D01*
X6523Y20433D01*
X6536Y20438D01*
X6550Y20443D01*
X6550D01*
X6552Y20443D01*
X6554Y20444D01*
X6557Y20444D01*
X6561Y20446D01*
X6566Y20447D01*
X6571Y20448D01*
X6577Y20449D01*
X6583Y20449D01*
X6591Y20450D01*
X6599Y20451D01*
X6608Y20453D01*
X6617Y20453D01*
X6627Y20454D01*
X6648Y20454D01*
X6656D01*
X6661Y20454D01*
D02*
G37*
G36*
X5813Y19507D02*
X5829D01*
X5849Y19505D01*
X5871Y19503D01*
X5897Y19500D01*
X5925Y19495D01*
X5954Y19489D01*
X5984Y19481D01*
X6015Y19473D01*
X6046Y19461D01*
X6076Y19449D01*
X6106Y19434D01*
X6134Y19418D01*
X6160Y19397D01*
X6161Y19396D01*
X6165Y19392D01*
X6171Y19388D01*
X6177Y19380D01*
X6187Y19370D01*
X6196Y19359D01*
X6208Y19345D01*
X6217Y19329D01*
X6229Y19311D01*
X6240Y19291D01*
X6249Y19270D01*
X6258Y19246D01*
X6265Y19221D01*
X6271Y19194D01*
X6275Y19165D01*
X6276Y19135D01*
Y19134D01*
Y19128D01*
X6275Y19119D01*
Y19108D01*
X6273Y19094D01*
X6270Y19078D01*
X6266Y19059D01*
X6261Y19039D01*
X6256Y19019D01*
X6249Y18997D01*
X6239Y18975D01*
X6227Y18952D01*
X6215Y18931D01*
X6199Y18910D01*
X6181Y18890D01*
X6161Y18871D01*
X6160Y18870D01*
X6155Y18866D01*
X6148Y18861D01*
X6136Y18854D01*
X6124Y18846D01*
X6106Y18836D01*
X6087Y18826D01*
X6065Y18816D01*
X6041Y18806D01*
X6014Y18796D01*
X5984Y18786D01*
X5951Y18779D01*
X5916Y18771D01*
X5879Y18766D01*
X5839Y18763D01*
X5796Y18761D01*
X5780D01*
X5769Y18763D01*
X5754D01*
X5738Y18764D01*
X5719Y18765D01*
X5699Y18767D01*
X5677Y18770D01*
X5655Y18774D01*
X5609Y18781D01*
X5562Y18794D01*
X5541Y18801D01*
X5520Y18810D01*
X5519D01*
X5515Y18813D01*
X5510Y18815D01*
X5502Y18819D01*
X5493Y18824D01*
X5483Y18830D01*
X5459Y18845D01*
X5433Y18864D01*
X5405Y18886D01*
X5380Y18911D01*
X5369Y18925D01*
X5357Y18940D01*
X5356Y18941D01*
X5355Y18944D01*
X5353Y18949D01*
X5349Y18954D01*
X5345Y18963D01*
X5340Y18971D01*
X5335Y18982D01*
X5330Y18995D01*
X5325Y19008D01*
X5321Y19023D01*
X5312Y19056D01*
X5306Y19094D01*
X5304Y19114D01*
Y19135D01*
Y19138D01*
Y19143D01*
X5305Y19151D01*
X5306Y19162D01*
X5307Y19176D01*
X5310Y19193D01*
X5315Y19211D01*
X5320Y19230D01*
X5326Y19251D01*
X5335Y19274D01*
X5345Y19295D01*
X5357Y19318D01*
X5372Y19340D01*
X5389Y19362D01*
X5409Y19384D01*
X5431Y19404D01*
X5433Y19405D01*
X5437Y19409D01*
X5445Y19414D01*
X5455Y19420D01*
X5468Y19429D01*
X5484Y19438D01*
X5502Y19446D01*
X5524Y19456D01*
X5548Y19466D01*
X5574Y19475D01*
X5604Y19485D01*
X5636Y19492D01*
X5670Y19499D01*
X5707Y19504D01*
X5748Y19507D01*
X5790Y19509D01*
X5800D01*
X5813Y19507D01*
D02*
G37*
G36*
X6260Y21179D02*
X5320D01*
Y21334D01*
X6260D01*
Y21179D01*
D02*
G37*
G36*
X5831Y21050D02*
X5844D01*
X5857Y21049D01*
X5872Y21047D01*
X5906Y21044D01*
X5941Y21039D01*
X5978Y21033D01*
X6012Y21023D01*
X6014D01*
X6016Y21021D01*
X6021Y21020D01*
X6028Y21017D01*
X6035Y21015D01*
X6044Y21011D01*
X6064Y21004D01*
X6086Y20994D01*
X6110Y20981D01*
X6134Y20968D01*
X6155Y20952D01*
X6158Y20951D01*
X6164Y20945D01*
X6173Y20936D01*
X6185Y20925D01*
X6198Y20910D01*
X6210Y20893D01*
X6223Y20872D01*
X6234Y20851D01*
Y20850D01*
X6235Y20849D01*
X6236Y20845D01*
X6237Y20840D01*
X6240Y20835D01*
X6242Y20828D01*
X6246Y20810D01*
X6251Y20787D01*
X6256Y20761D01*
X6259Y20731D01*
X6260Y20698D01*
Y20406D01*
X5320D01*
Y20689D01*
Y20690D01*
Y20694D01*
Y20699D01*
Y20706D01*
X5321Y20715D01*
Y20726D01*
X5322Y20750D01*
X5326Y20776D01*
X5330Y20803D01*
X5336Y20829D01*
X5345Y20851D01*
Y20852D01*
X5346Y20854D01*
X5350Y20860D01*
X5355Y20871D01*
X5364Y20885D01*
X5375Y20900D01*
X5389Y20917D01*
X5406Y20935D01*
X5426Y20952D01*
X5429Y20955D01*
X5433Y20958D01*
X5436Y20960D01*
X5449Y20969D01*
X5466Y20979D01*
X5487Y20990D01*
X5512Y21003D01*
X5541Y21015D01*
X5574Y21025D01*
X5575D01*
X5577Y21026D01*
X5583Y21028D01*
X5590Y21029D01*
X5599Y21031D01*
X5610Y21034D01*
X5623Y21036D01*
X5636Y21039D01*
X5651Y21040D01*
X5669Y21042D01*
X5688Y21045D01*
X5707Y21047D01*
X5729Y21049D01*
X5751Y21050D01*
X5800Y21051D01*
X5820D01*
X5831Y21050D01*
D02*
G37*
G36*
X6260Y20135D02*
X6056Y20024D01*
X6055Y20022D01*
X6051Y20021D01*
X6046Y20017D01*
X6039Y20014D01*
X6030Y20009D01*
X6020Y20004D01*
X5997Y19991D01*
X5974Y19978D01*
X5951Y19964D01*
X5940Y19957D01*
X5931Y19951D01*
X5924Y19946D01*
X5918Y19941D01*
X5916Y19940D01*
X5913Y19937D01*
X5907Y19934D01*
X5901Y19928D01*
X5889Y19913D01*
X5884Y19904D01*
X5879Y19895D01*
Y19894D01*
X5878Y19890D01*
X5875Y19885D01*
X5872Y19876D01*
X5871Y19866D01*
X5869Y19852D01*
X5867Y19836D01*
Y19818D01*
Y19786D01*
X6260D01*
Y19631D01*
X5320D01*
Y19959D01*
Y19960D01*
Y19964D01*
Y19971D01*
Y19979D01*
X5321Y19990D01*
Y20001D01*
X5324Y20027D01*
X5326Y20057D01*
X5331Y20087D01*
X5337Y20115D01*
X5341Y20126D01*
X5346Y20138D01*
Y20139D01*
X5347Y20140D01*
X5351Y20146D01*
X5357Y20156D01*
X5366Y20169D01*
X5379Y20182D01*
X5394Y20198D01*
X5412Y20213D01*
X5434Y20226D01*
X5435D01*
X5436Y20227D01*
X5440Y20230D01*
X5445Y20231D01*
X5458Y20238D01*
X5476Y20244D01*
X5497Y20250D01*
X5524Y20256D01*
X5552Y20260D01*
X5584Y20261D01*
X5594D01*
X5602Y20260D01*
X5611D01*
X5623Y20259D01*
X5648Y20255D01*
X5675Y20249D01*
X5705Y20239D01*
X5734Y20225D01*
X5748Y20217D01*
X5761Y20208D01*
X5763D01*
X5764Y20205D01*
X5773Y20198D01*
X5784Y20186D01*
X5798Y20169D01*
X5811Y20148D01*
X5825Y20122D01*
X5838Y20092D01*
X5846Y20057D01*
X5847Y20060D01*
X5853Y20066D01*
X5860Y20075D01*
X5869Y20086D01*
X5881Y20100D01*
X5894Y20114D01*
X5909Y20127D01*
X5925Y20140D01*
X5928Y20141D01*
X5934Y20146D01*
X5944Y20154D01*
X5951Y20157D01*
X5960Y20164D01*
X5970Y20169D01*
X5981Y20176D01*
X5994Y20184D01*
X6008Y20191D01*
X6022Y20200D01*
X6039Y20209D01*
X6058Y20219D01*
X6077Y20229D01*
X6260Y20322D01*
Y20135D01*
D02*
G37*
G36*
X6653Y21777D02*
X6660D01*
X6669Y21776D01*
X6679Y21775D01*
X6690Y21774D01*
X6702Y21772D01*
X6714Y21769D01*
X6727Y21766D01*
X6741Y21762D01*
X6754Y21757D01*
X6767Y21751D01*
X6780Y21745D01*
X6792Y21738D01*
X6804Y21729D01*
X6804Y21729D01*
X6806Y21727D01*
X6809Y21725D01*
X6811Y21722D01*
X6816Y21717D01*
X6819Y21713D01*
X6824Y21707D01*
X6829Y21700D01*
X6833Y21692D01*
X6838Y21683D01*
X6842Y21674D01*
X6846Y21664D01*
X6849Y21653D01*
X6852Y21641D01*
X6853Y21629D01*
X6854Y21616D01*
Y21615D01*
Y21612D01*
X6853Y21609D01*
Y21604D01*
X6852Y21598D01*
X6851Y21591D01*
X6850Y21583D01*
X6847Y21574D01*
X6845Y21565D01*
X6842Y21556D01*
X6838Y21546D01*
X6833Y21537D01*
X6827Y21528D01*
X6820Y21518D01*
X6813Y21510D01*
X6804Y21502D01*
X6804Y21501D01*
X6801Y21499D01*
X6798Y21497D01*
X6793Y21494D01*
X6788Y21491D01*
X6780Y21486D01*
X6772Y21482D01*
X6763Y21478D01*
X6752Y21473D01*
X6740Y21469D01*
X6727Y21465D01*
X6713Y21462D01*
X6698Y21458D01*
X6682Y21456D01*
X6665Y21454D01*
X6646Y21454D01*
X6639D01*
X6634Y21454D01*
X6628D01*
X6621Y21455D01*
X6613Y21456D01*
X6604Y21457D01*
X6595Y21458D01*
X6585Y21459D01*
X6565Y21463D01*
X6545Y21468D01*
X6536Y21471D01*
X6527Y21475D01*
X6526D01*
X6524Y21476D01*
X6522Y21477D01*
X6519Y21479D01*
X6515Y21481D01*
X6510Y21484D01*
X6500Y21490D01*
X6489Y21498D01*
X6477Y21508D01*
X6466Y21519D01*
X6461Y21525D01*
X6456Y21531D01*
X6456Y21532D01*
X6455Y21533D01*
X6454Y21535D01*
X6453Y21537D01*
X6451Y21541D01*
X6449Y21545D01*
X6447Y21550D01*
X6444Y21555D01*
X6442Y21561D01*
X6441Y21567D01*
X6437Y21582D01*
X6434Y21598D01*
X6433Y21607D01*
Y21616D01*
Y21617D01*
Y21619D01*
X6434Y21623D01*
X6434Y21628D01*
X6435Y21634D01*
X6436Y21641D01*
X6438Y21649D01*
X6440Y21657D01*
X6443Y21666D01*
X6447Y21676D01*
X6451Y21685D01*
X6456Y21695D01*
X6463Y21704D01*
X6470Y21714D01*
X6478Y21723D01*
X6488Y21732D01*
X6489Y21733D01*
X6491Y21734D01*
X6494Y21736D01*
X6499Y21739D01*
X6504Y21743D01*
X6511Y21747D01*
X6519Y21750D01*
X6528Y21755D01*
X6539Y21759D01*
X6550Y21763D01*
X6563Y21767D01*
X6577Y21770D01*
X6592Y21773D01*
X6608Y21775D01*
X6625Y21777D01*
X6643Y21777D01*
X6648D01*
X6653Y21777D01*
D02*
G37*
G36*
X6509Y21325D02*
X6847D01*
Y21258D01*
X6509D01*
Y21159D01*
X6440D01*
Y21424D01*
X6509D01*
Y21325D01*
D02*
G37*
G36*
X6726Y21126D02*
X6730Y21124D01*
X6734Y21123D01*
X6740Y21121D01*
X6746Y21119D01*
X6753Y21117D01*
X6761Y21114D01*
X6777Y21107D01*
X6794Y21098D01*
X6801Y21093D01*
X6809Y21087D01*
X6816Y21081D01*
X6823Y21075D01*
X6823Y21074D01*
X6824Y21073D01*
X6825Y21071D01*
X6827Y21068D01*
X6830Y21065D01*
X6832Y21061D01*
X6836Y21056D01*
X6838Y21051D01*
X6841Y21044D01*
X6844Y21038D01*
X6847Y21031D01*
X6849Y21023D01*
X6851Y21015D01*
X6852Y21007D01*
X6853Y20997D01*
X6854Y20988D01*
Y20987D01*
Y20985D01*
X6853Y20981D01*
Y20977D01*
X6852Y20971D01*
X6851Y20965D01*
X6850Y20958D01*
X6847Y20950D01*
X6845Y20942D01*
X6842Y20934D01*
X6838Y20924D01*
X6833Y20916D01*
X6827Y20907D01*
X6820Y20898D01*
X6813Y20890D01*
X6804Y20882D01*
X6804Y20882D01*
X6801Y20880D01*
X6798Y20878D01*
X6793Y20875D01*
X6787Y20871D01*
X6780Y20868D01*
X6772Y20863D01*
X6763Y20859D01*
X6752Y20855D01*
X6740Y20850D01*
X6727Y20846D01*
X6713Y20843D01*
X6698Y20840D01*
X6682Y20838D01*
X6665Y20836D01*
X6647Y20836D01*
X6643D01*
X6638Y20836D01*
X6630D01*
X6621Y20837D01*
X6611Y20838D01*
X6600Y20839D01*
X6588Y20842D01*
X6575Y20844D01*
X6562Y20847D01*
X6548Y20851D01*
X6535Y20855D01*
X6521Y20860D01*
X6508Y20867D01*
X6496Y20874D01*
X6484Y20882D01*
X6484Y20883D01*
X6482Y20884D01*
X6480Y20886D01*
X6476Y20890D01*
X6473Y20894D01*
X6468Y20899D01*
X6463Y20905D01*
X6458Y20911D01*
X6454Y20919D01*
X6449Y20927D01*
X6445Y20936D01*
X6441Y20946D01*
X6438Y20956D01*
X6435Y20968D01*
X6434Y20979D01*
X6433Y20992D01*
Y20992D01*
Y20995D01*
Y20997D01*
X6434Y21001D01*
X6434Y21006D01*
X6435Y21012D01*
X6436Y21018D01*
X6438Y21025D01*
X6440Y21032D01*
X6442Y21040D01*
X6445Y21048D01*
X6449Y21055D01*
X6454Y21063D01*
X6459Y21071D01*
X6464Y21079D01*
X6471Y21086D01*
X6472Y21087D01*
X6473Y21087D01*
X6474Y21089D01*
X6476Y21090D01*
X6480Y21093D01*
X6483Y21095D01*
X6487Y21098D01*
X6492Y21101D01*
X6497Y21104D01*
X6503Y21107D01*
X6510Y21110D01*
X6517Y21114D01*
X6525Y21117D01*
X6533Y21120D01*
X6542Y21123D01*
X6552Y21126D01*
X6572Y21059D01*
X6571D01*
X6570Y21058D01*
X6568D01*
X6566Y21058D01*
X6560Y21056D01*
X6553Y21054D01*
X6545Y21050D01*
X6536Y21045D01*
X6528Y21040D01*
X6521Y21033D01*
X6521Y21032D01*
X6519Y21030D01*
X6516Y21025D01*
X6512Y21021D01*
X6509Y21014D01*
X6506Y21006D01*
X6504Y20997D01*
X6503Y20988D01*
Y20988D01*
Y20987D01*
Y20984D01*
X6504Y20982D01*
X6504Y20979D01*
X6505Y20975D01*
X6507Y20967D01*
X6511Y20957D01*
X6514Y20952D01*
X6517Y20948D01*
X6521Y20942D01*
X6525Y20937D01*
X6530Y20932D01*
X6536Y20928D01*
X6536D01*
X6537Y20927D01*
X6539Y20926D01*
X6542Y20924D01*
X6546Y20923D01*
X6550Y20921D01*
X6555Y20919D01*
X6561Y20917D01*
X6568Y20915D01*
X6576Y20912D01*
X6585Y20910D01*
X6594Y20909D01*
X6605Y20907D01*
X6616Y20906D01*
X6628Y20905D01*
X6642Y20905D01*
X6649D01*
X6654Y20905D01*
X6661D01*
X6668Y20906D01*
X6676Y20907D01*
X6684Y20908D01*
X6702Y20910D01*
X6720Y20915D01*
X6729Y20917D01*
X6737Y20920D01*
X6745Y20924D01*
X6751Y20928D01*
X6752Y20928D01*
X6753Y20929D01*
X6754Y20930D01*
X6756Y20932D01*
X6761Y20937D01*
X6767Y20943D01*
X6773Y20952D01*
X6779Y20962D01*
X6780Y20968D01*
X6782Y20974D01*
X6783Y20980D01*
X6784Y20987D01*
Y20987D01*
Y20988D01*
X6783Y20991D01*
X6783Y20996D01*
X6781Y21002D01*
X6779Y21009D01*
X6775Y21017D01*
X6770Y21025D01*
X6763Y21033D01*
X6762Y21034D01*
X6759Y21036D01*
X6754Y21039D01*
X6747Y21043D01*
X6738Y21048D01*
X6733Y21050D01*
X6727Y21053D01*
X6720Y21055D01*
X6713Y21057D01*
X6706Y21059D01*
X6698Y21061D01*
X6723Y21126D01*
X6724D01*
X6726Y21126D01*
D02*
G37*
G36*
X6260Y18474D02*
X5648Y18165D01*
X6260D01*
Y18020D01*
X5320D01*
Y18171D01*
X5949Y18486D01*
X5320D01*
Y18631D01*
X6260D01*
Y18474D01*
D02*
G37*
G36*
X6847Y22049D02*
X6759Y22000D01*
X6758Y22000D01*
X6757Y21999D01*
X6754Y21998D01*
X6751Y21996D01*
X6747Y21994D01*
X6743Y21992D01*
X6733Y21986D01*
X6723Y21980D01*
X6713Y21974D01*
X6708Y21972D01*
X6705Y21969D01*
X6701Y21967D01*
X6699Y21965D01*
X6698Y21964D01*
X6697Y21963D01*
X6694Y21961D01*
X6692Y21959D01*
X6686Y21952D01*
X6684Y21948D01*
X6682Y21945D01*
Y21944D01*
X6681Y21942D01*
X6680Y21940D01*
X6679Y21937D01*
X6679Y21932D01*
X6678Y21926D01*
X6677Y21919D01*
Y21911D01*
Y21898D01*
X6847D01*
Y21830D01*
X6440D01*
Y21972D01*
Y21973D01*
Y21974D01*
Y21978D01*
Y21981D01*
X6441Y21986D01*
Y21991D01*
X6442Y22002D01*
X6443Y22015D01*
X6445Y22028D01*
X6448Y22040D01*
X6449Y22045D01*
X6451Y22050D01*
Y22050D01*
X6452Y22051D01*
X6454Y22053D01*
X6456Y22058D01*
X6460Y22063D01*
X6466Y22069D01*
X6472Y22076D01*
X6480Y22082D01*
X6489Y22088D01*
X6490D01*
X6490Y22089D01*
X6492Y22090D01*
X6494Y22090D01*
X6500Y22093D01*
X6508Y22096D01*
X6517Y22098D01*
X6528Y22101D01*
X6541Y22103D01*
X6554Y22103D01*
X6559D01*
X6562Y22103D01*
X6566D01*
X6571Y22102D01*
X6582Y22100D01*
X6594Y22098D01*
X6607Y22093D01*
X6619Y22087D01*
X6625Y22084D01*
X6631Y22080D01*
X6632D01*
X6632Y22079D01*
X6636Y22076D01*
X6641Y22071D01*
X6647Y22063D01*
X6653Y22054D01*
X6659Y22043D01*
X6664Y22030D01*
X6668Y22015D01*
X6668Y22016D01*
X6671Y22019D01*
X6674Y22023D01*
X6678Y22027D01*
X6683Y22033D01*
X6688Y22039D01*
X6695Y22045D01*
X6702Y22051D01*
X6703Y22051D01*
X6706Y22053D01*
X6710Y22057D01*
X6713Y22058D01*
X6717Y22061D01*
X6721Y22063D01*
X6726Y22066D01*
X6732Y22070D01*
X6738Y22073D01*
X6744Y22077D01*
X6751Y22080D01*
X6759Y22085D01*
X6768Y22089D01*
X6847Y22130D01*
Y22049D01*
D02*
G37*
G36*
X6682Y20777D02*
X6691D01*
X6700Y20777D01*
X6719Y20776D01*
X6739Y20774D01*
X6748Y20773D01*
X6757Y20772D01*
X6765Y20770D01*
X6773Y20768D01*
X6773D01*
X6774Y20768D01*
X6776Y20767D01*
X6779Y20767D01*
X6782Y20766D01*
X6785Y20764D01*
X6794Y20760D01*
X6803Y20755D01*
X6813Y20748D01*
X6823Y20740D01*
X6832Y20729D01*
Y20728D01*
X6833Y20727D01*
X6834Y20726D01*
X6835Y20724D01*
X6837Y20720D01*
X6839Y20717D01*
X6841Y20712D01*
X6843Y20707D01*
X6845Y20702D01*
X6847Y20696D01*
X6849Y20689D01*
X6851Y20682D01*
X6853Y20666D01*
X6854Y20648D01*
Y20647D01*
Y20646D01*
Y20643D01*
X6853Y20639D01*
Y20635D01*
X6853Y20630D01*
X6852Y20624D01*
X6852Y20618D01*
X6850Y20605D01*
X6846Y20592D01*
X6841Y20578D01*
X6836Y20566D01*
Y20566D01*
X6834Y20565D01*
X6833Y20563D01*
X6832Y20561D01*
X6828Y20556D01*
X6822Y20550D01*
X6814Y20543D01*
X6805Y20536D01*
X6795Y20529D01*
X6783Y20524D01*
X6783D01*
X6781Y20523D01*
X6779Y20523D01*
X6776Y20522D01*
X6772Y20521D01*
X6767Y20520D01*
X6761Y20519D01*
X6754Y20517D01*
X6747Y20516D01*
X6738Y20515D01*
X6727Y20514D01*
X6716Y20513D01*
X6703Y20512D01*
X6689Y20512D01*
X6674Y20511D01*
X6440D01*
Y20578D01*
X6678D01*
X6688Y20579D01*
X6700D01*
X6711Y20579D01*
X6715D01*
X6720Y20580D01*
X6724D01*
X6727Y20580D01*
X6728D01*
X6732Y20581D01*
X6737Y20582D01*
X6743Y20585D01*
X6750Y20587D01*
X6757Y20591D01*
X6763Y20595D01*
X6769Y20601D01*
X6770Y20602D01*
X6771Y20605D01*
X6774Y20608D01*
X6776Y20613D01*
X6779Y20620D01*
X6781Y20628D01*
X6783Y20636D01*
X6784Y20646D01*
Y20647D01*
Y20647D01*
Y20650D01*
X6783Y20654D01*
X6783Y20660D01*
X6781Y20666D01*
X6779Y20673D01*
X6777Y20679D01*
X6773Y20685D01*
X6773Y20685D01*
X6771Y20687D01*
X6769Y20690D01*
X6766Y20693D01*
X6762Y20696D01*
X6757Y20699D01*
X6751Y20703D01*
X6745Y20705D01*
X6744Y20705D01*
X6743D01*
X6741Y20706D01*
X6739Y20706D01*
X6735Y20707D01*
X6732Y20707D01*
X6728Y20708D01*
X6723Y20708D01*
X6717Y20709D01*
X6711D01*
X6704Y20710D01*
X6695Y20710D01*
X6686Y20711D01*
X6440D01*
Y20778D01*
X6674D01*
X6682Y20777D01*
D02*
G37*
G36*
X5980Y22125D02*
X5989Y22122D01*
X6000Y22119D01*
X6012Y22115D01*
X6028Y22110D01*
X6044Y22105D01*
X6061Y22097D01*
X6099Y22081D01*
X6137Y22061D01*
X6155Y22049D01*
X6173Y22036D01*
X6189Y22023D01*
X6204Y22008D01*
X6205Y22006D01*
X6206Y22004D01*
X6210Y21999D01*
X6215Y21992D01*
X6220Y21985D01*
X6226Y21975D01*
X6234Y21965D01*
X6240Y21953D01*
X6246Y21937D01*
X6254Y21923D01*
X6260Y21906D01*
X6265Y21889D01*
X6270Y21870D01*
X6273Y21850D01*
X6275Y21829D01*
X6276Y21806D01*
Y21805D01*
Y21800D01*
X6275Y21791D01*
Y21781D01*
X6273Y21769D01*
X6270Y21754D01*
X6266Y21737D01*
X6261Y21720D01*
X6256Y21700D01*
X6249Y21681D01*
X6239Y21660D01*
X6227Y21640D01*
X6215Y21620D01*
X6199Y21600D01*
X6181Y21581D01*
X6161Y21562D01*
X6160Y21561D01*
X6155Y21558D01*
X6148Y21553D01*
X6136Y21546D01*
X6122Y21537D01*
X6106Y21529D01*
X6087Y21519D01*
X6065Y21509D01*
X6041Y21499D01*
X6014Y21489D01*
X5984Y21480D01*
X5951Y21471D01*
X5916Y21465D01*
X5880Y21460D01*
X5840Y21456D01*
X5799Y21455D01*
X5789D01*
X5776Y21456D01*
X5759D01*
X5739Y21459D01*
X5715Y21461D01*
X5690Y21464D01*
X5661Y21469D01*
X5633Y21474D01*
X5601Y21481D01*
X5570Y21490D01*
X5539Y21500D01*
X5508Y21512D01*
X5477Y21528D01*
X5449Y21544D01*
X5422Y21562D01*
X5421Y21564D01*
X5418Y21567D01*
X5411Y21572D01*
X5404Y21580D01*
X5395Y21590D01*
X5385Y21601D01*
X5374Y21615D01*
X5362Y21630D01*
X5353Y21648D01*
X5341Y21666D01*
X5331Y21688D01*
X5322Y21710D01*
X5315Y21734D01*
X5309Y21760D01*
X5305Y21788D01*
X5304Y21816D01*
Y21818D01*
Y21823D01*
Y21829D01*
X5305Y21837D01*
X5306Y21849D01*
X5309Y21862D01*
X5311Y21876D01*
X5315Y21892D01*
X5320Y21909D01*
X5325Y21926D01*
X5332Y21945D01*
X5341Y21962D01*
X5351Y21981D01*
X5364Y21999D01*
X5376Y22018D01*
X5393Y22034D01*
X5394Y22035D01*
X5395Y22036D01*
X5399Y22040D01*
X5404Y22044D01*
X5411Y22049D01*
X5419Y22055D01*
X5429Y22061D01*
X5440Y22069D01*
X5452Y22075D01*
X5466Y22083D01*
X5481Y22090D01*
X5497Y22099D01*
X5516Y22105D01*
X5535Y22113D01*
X5556Y22119D01*
X5579Y22125D01*
X5624Y21971D01*
X5623D01*
X5620Y21970D01*
X5616D01*
X5611Y21969D01*
X5598Y21964D01*
X5581Y21959D01*
X5562Y21950D01*
X5543Y21940D01*
X5524Y21926D01*
X5508Y21911D01*
X5506Y21909D01*
X5501Y21904D01*
X5495Y21894D01*
X5486Y21883D01*
X5479Y21866D01*
X5472Y21849D01*
X5468Y21829D01*
X5466Y21807D01*
Y21806D01*
Y21804D01*
Y21799D01*
X5468Y21794D01*
X5469Y21786D01*
X5470Y21778D01*
X5475Y21759D01*
X5485Y21736D01*
X5490Y21725D01*
X5497Y21714D01*
X5506Y21701D01*
X5516Y21690D01*
X5527Y21679D01*
X5541Y21669D01*
X5543D01*
X5545Y21666D01*
X5549Y21664D01*
X5555Y21660D01*
X5564Y21656D01*
X5574Y21651D01*
X5585Y21648D01*
X5600Y21642D01*
X5615Y21637D01*
X5634Y21632D01*
X5654Y21628D01*
X5676Y21624D01*
X5700Y21620D01*
X5726Y21618D01*
X5755Y21616D01*
X5786Y21615D01*
X5803D01*
X5815Y21616D01*
X5830D01*
X5846Y21618D01*
X5865Y21620D01*
X5884Y21621D01*
X5926Y21628D01*
X5968Y21637D01*
X5987Y21644D01*
X6006Y21650D01*
X6024Y21659D01*
X6039Y21667D01*
X6040Y21669D01*
X6043Y21670D01*
X6046Y21672D01*
X6050Y21677D01*
X6062Y21689D01*
X6076Y21704D01*
X6090Y21724D01*
X6102Y21748D01*
X6106Y21760D01*
X6110Y21774D01*
X6112Y21789D01*
X6114Y21804D01*
Y21805D01*
Y21806D01*
X6112Y21814D01*
X6111Y21825D01*
X6108Y21840D01*
X6102Y21856D01*
X6094Y21875D01*
X6083Y21892D01*
X6066Y21910D01*
X6064Y21913D01*
X6058Y21918D01*
X6046Y21925D01*
X6030Y21935D01*
X6009Y21946D01*
X5996Y21951D01*
X5982Y21956D01*
X5968Y21961D01*
X5951Y21966D01*
X5934Y21971D01*
X5915Y21975D01*
X5974Y22126D01*
X5975D01*
X5980Y22125D01*
D02*
G37*
G36*
X6847Y19010D02*
X6440D01*
Y19077D01*
X6847D01*
Y19010D01*
D02*
G37*
G36*
X6726Y19419D02*
X6730Y19418D01*
X6734Y19417D01*
X6740Y19415D01*
X6746Y19413D01*
X6753Y19411D01*
X6761Y19407D01*
X6777Y19400D01*
X6794Y19392D01*
X6801Y19386D01*
X6809Y19381D01*
X6816Y19375D01*
X6823Y19368D01*
X6823Y19368D01*
X6824Y19367D01*
X6825Y19365D01*
X6827Y19362D01*
X6830Y19359D01*
X6832Y19354D01*
X6836Y19350D01*
X6838Y19345D01*
X6841Y19338D01*
X6844Y19332D01*
X6847Y19325D01*
X6849Y19317D01*
X6851Y19309D01*
X6852Y19300D01*
X6853Y19291D01*
X6854Y19281D01*
Y19281D01*
Y19279D01*
X6853Y19275D01*
Y19270D01*
X6852Y19265D01*
X6851Y19259D01*
X6850Y19252D01*
X6847Y19244D01*
X6845Y19235D01*
X6842Y19227D01*
X6838Y19218D01*
X6833Y19209D01*
X6827Y19201D01*
X6820Y19192D01*
X6813Y19184D01*
X6804Y19176D01*
X6804Y19175D01*
X6801Y19174D01*
X6798Y19171D01*
X6793Y19169D01*
X6787Y19165D01*
X6780Y19161D01*
X6772Y19157D01*
X6763Y19153D01*
X6752Y19148D01*
X6740Y19144D01*
X6727Y19140D01*
X6713Y19136D01*
X6698Y19134D01*
X6682Y19131D01*
X6665Y19130D01*
X6647Y19129D01*
X6643D01*
X6638Y19130D01*
X6630D01*
X6621Y19131D01*
X6611Y19132D01*
X6600Y19133D01*
X6588Y19135D01*
X6575Y19137D01*
X6562Y19141D01*
X6548Y19144D01*
X6535Y19149D01*
X6521Y19154D01*
X6508Y19161D01*
X6496Y19168D01*
X6484Y19176D01*
X6484Y19176D01*
X6482Y19178D01*
X6480Y19180D01*
X6476Y19183D01*
X6473Y19188D01*
X6468Y19193D01*
X6463Y19199D01*
X6458Y19205D01*
X6454Y19213D01*
X6449Y19221D01*
X6445Y19230D01*
X6441Y19240D01*
X6438Y19250D01*
X6435Y19261D01*
X6434Y19273D01*
X6433Y19286D01*
Y19286D01*
Y19288D01*
Y19291D01*
X6434Y19295D01*
X6434Y19300D01*
X6435Y19306D01*
X6436Y19312D01*
X6438Y19319D01*
X6440Y19326D01*
X6442Y19333D01*
X6445Y19341D01*
X6449Y19349D01*
X6454Y19357D01*
X6459Y19365D01*
X6464Y19373D01*
X6471Y19380D01*
X6472Y19380D01*
X6473Y19381D01*
X6474Y19382D01*
X6476Y19384D01*
X6480Y19386D01*
X6483Y19389D01*
X6487Y19392D01*
X6492Y19395D01*
X6497Y19398D01*
X6503Y19401D01*
X6510Y19404D01*
X6517Y19408D01*
X6525Y19411D01*
X6533Y19414D01*
X6542Y19417D01*
X6552Y19419D01*
X6572Y19353D01*
X6571D01*
X6570Y19352D01*
X6568D01*
X6566Y19352D01*
X6560Y19349D01*
X6553Y19347D01*
X6545Y19344D01*
X6536Y19339D01*
X6528Y19333D01*
X6521Y19327D01*
X6521Y19326D01*
X6519Y19323D01*
X6516Y19319D01*
X6512Y19314D01*
X6509Y19307D01*
X6506Y19300D01*
X6504Y19291D01*
X6503Y19282D01*
Y19281D01*
Y19280D01*
Y19278D01*
X6504Y19276D01*
X6504Y19273D01*
X6505Y19269D01*
X6507Y19261D01*
X6511Y19251D01*
X6514Y19246D01*
X6517Y19241D01*
X6521Y19236D01*
X6525Y19231D01*
X6530Y19226D01*
X6536Y19222D01*
X6536D01*
X6537Y19221D01*
X6539Y19220D01*
X6542Y19218D01*
X6546Y19216D01*
X6550Y19214D01*
X6555Y19213D01*
X6561Y19210D01*
X6568Y19208D01*
X6576Y19206D01*
X6585Y19204D01*
X6594Y19202D01*
X6605Y19201D01*
X6616Y19200D01*
X6628Y19199D01*
X6642Y19199D01*
X6649D01*
X6654Y19199D01*
X6661D01*
X6668Y19200D01*
X6676Y19201D01*
X6684Y19201D01*
X6702Y19204D01*
X6720Y19208D01*
X6729Y19211D01*
X6737Y19214D01*
X6745Y19217D01*
X6751Y19221D01*
X6752Y19222D01*
X6753Y19222D01*
X6754Y19223D01*
X6756Y19226D01*
X6761Y19230D01*
X6767Y19237D01*
X6773Y19246D01*
X6779Y19256D01*
X6780Y19261D01*
X6782Y19267D01*
X6783Y19274D01*
X6784Y19280D01*
Y19281D01*
Y19281D01*
X6783Y19285D01*
X6783Y19289D01*
X6781Y19296D01*
X6779Y19303D01*
X6775Y19311D01*
X6770Y19319D01*
X6763Y19326D01*
X6762Y19327D01*
X6759Y19329D01*
X6754Y19333D01*
X6747Y19337D01*
X6738Y19342D01*
X6733Y19344D01*
X6727Y19346D01*
X6720Y19348D01*
X6713Y19351D01*
X6706Y19353D01*
X6698Y19354D01*
X6723Y19420D01*
X6724D01*
X6726Y19419D01*
D02*
G37*
G36*
X6653Y19786D02*
X6660D01*
X6669Y19785D01*
X6679Y19784D01*
X6690Y19783D01*
X6702Y19781D01*
X6714Y19778D01*
X6727Y19775D01*
X6741Y19771D01*
X6754Y19766D01*
X6767Y19761D01*
X6780Y19754D01*
X6792Y19747D01*
X6804Y19738D01*
X6804Y19738D01*
X6806Y19736D01*
X6809Y19734D01*
X6811Y19731D01*
X6816Y19727D01*
X6819Y19722D01*
X6824Y19716D01*
X6829Y19709D01*
X6833Y19701D01*
X6838Y19692D01*
X6842Y19683D01*
X6846Y19673D01*
X6849Y19662D01*
X6852Y19650D01*
X6853Y19638D01*
X6854Y19625D01*
Y19624D01*
Y19622D01*
X6853Y19618D01*
Y19613D01*
X6852Y19607D01*
X6851Y19600D01*
X6850Y19592D01*
X6847Y19583D01*
X6845Y19575D01*
X6842Y19565D01*
X6838Y19556D01*
X6833Y19546D01*
X6827Y19537D01*
X6820Y19527D01*
X6813Y19519D01*
X6804Y19511D01*
X6804Y19510D01*
X6801Y19509D01*
X6798Y19506D01*
X6793Y19503D01*
X6788Y19500D01*
X6780Y19496D01*
X6772Y19491D01*
X6763Y19487D01*
X6752Y19483D01*
X6740Y19478D01*
X6727Y19474D01*
X6713Y19471D01*
X6698Y19467D01*
X6682Y19465D01*
X6665Y19464D01*
X6646Y19463D01*
X6639D01*
X6634Y19464D01*
X6628D01*
X6621Y19464D01*
X6613Y19465D01*
X6604Y19466D01*
X6595Y19467D01*
X6585Y19468D01*
X6565Y19472D01*
X6545Y19477D01*
X6536Y19480D01*
X6527Y19484D01*
X6526D01*
X6524Y19485D01*
X6522Y19486D01*
X6519Y19488D01*
X6515Y19490D01*
X6510Y19493D01*
X6500Y19499D01*
X6489Y19507D01*
X6477Y19517D01*
X6466Y19528D01*
X6461Y19534D01*
X6456Y19540D01*
X6456Y19541D01*
X6455Y19542D01*
X6454Y19544D01*
X6453Y19546D01*
X6451Y19550D01*
X6449Y19554D01*
X6447Y19559D01*
X6444Y19564D01*
X6442Y19570D01*
X6441Y19576D01*
X6437Y19591D01*
X6434Y19607D01*
X6433Y19616D01*
Y19625D01*
Y19626D01*
Y19628D01*
X6434Y19632D01*
X6434Y19637D01*
X6435Y19643D01*
X6436Y19650D01*
X6438Y19658D01*
X6440Y19666D01*
X6443Y19675D01*
X6447Y19685D01*
X6451Y19694D01*
X6456Y19704D01*
X6463Y19714D01*
X6470Y19723D01*
X6478Y19732D01*
X6488Y19741D01*
X6489Y19742D01*
X6491Y19743D01*
X6494Y19745D01*
X6499Y19748D01*
X6504Y19752D01*
X6511Y19756D01*
X6519Y19760D01*
X6528Y19764D01*
X6539Y19768D01*
X6550Y19772D01*
X6563Y19776D01*
X6577Y19780D01*
X6592Y19782D01*
X6608Y19784D01*
X6625Y19786D01*
X6643Y19787D01*
X6648D01*
X6653Y19786D01*
D02*
G37*
G36*
X6738Y18256D02*
X6743Y18256D01*
X6748Y18255D01*
X6753Y18254D01*
X6760Y18252D01*
X6774Y18249D01*
X6781Y18246D01*
X6789Y18243D01*
X6797Y18239D01*
X6804Y18234D01*
X6811Y18230D01*
X6818Y18224D01*
X6819Y18223D01*
X6820Y18222D01*
X6821Y18220D01*
X6824Y18218D01*
X6826Y18214D01*
X6830Y18210D01*
X6833Y18205D01*
X6836Y18199D01*
X6839Y18192D01*
X6843Y18185D01*
X6846Y18176D01*
X6849Y18167D01*
X6851Y18157D01*
X6852Y18146D01*
X6853Y18134D01*
X6854Y18122D01*
Y18121D01*
Y18120D01*
Y18119D01*
X6853Y18117D01*
Y18114D01*
X6853Y18111D01*
X6852Y18102D01*
X6850Y18093D01*
X6846Y18082D01*
X6842Y18071D01*
X6837Y18059D01*
X6829Y18047D01*
X6820Y18035D01*
X6814Y18029D01*
X6809Y18023D01*
X6802Y18018D01*
X6795Y18013D01*
X6787Y18008D01*
X6779Y18003D01*
X6770Y18000D01*
X6760Y17996D01*
X6750Y17993D01*
X6739Y17990D01*
X6727Y17988D01*
X6714Y17986D01*
X6707Y18052D01*
X6708D01*
X6710Y18052D01*
X6714Y18053D01*
X6719Y18054D01*
X6725Y18056D01*
X6732Y18058D01*
X6739Y18061D01*
X6746Y18065D01*
X6753Y18069D01*
X6760Y18074D01*
X6767Y18080D01*
X6772Y18087D01*
X6778Y18094D01*
X6781Y18104D01*
X6784Y18113D01*
X6785Y18124D01*
Y18125D01*
Y18126D01*
Y18127D01*
Y18129D01*
X6784Y18134D01*
X6783Y18141D01*
X6781Y18149D01*
X6778Y18157D01*
X6774Y18165D01*
X6769Y18172D01*
X6768Y18172D01*
X6766Y18174D01*
X6763Y18177D01*
X6758Y18181D01*
X6752Y18184D01*
X6746Y18187D01*
X6738Y18189D01*
X6730Y18190D01*
X6727D01*
X6725Y18189D01*
X6721D01*
X6713Y18187D01*
X6709Y18185D01*
X6706Y18183D01*
X6705D01*
X6704Y18182D01*
X6702Y18180D01*
X6700Y18179D01*
X6698Y18176D01*
X6695Y18173D01*
X6692Y18169D01*
X6690Y18165D01*
X6689Y18164D01*
X6689Y18162D01*
X6687Y18158D01*
X6686Y18155D01*
X6685Y18152D01*
X6684Y18149D01*
X6682Y18145D01*
X6680Y18139D01*
X6678Y18134D01*
X6676Y18127D01*
X6674Y18120D01*
X6672Y18113D01*
X6669Y18104D01*
Y18104D01*
X6668Y18102D01*
X6668Y18100D01*
X6667Y18097D01*
X6666Y18094D01*
X6664Y18089D01*
X6660Y18080D01*
X6656Y18070D01*
X6652Y18060D01*
X6646Y18050D01*
X6641Y18041D01*
X6640Y18040D01*
X6638Y18038D01*
X6634Y18034D01*
X6630Y18030D01*
X6624Y18025D01*
X6618Y18020D01*
X6609Y18014D01*
X6601Y18009D01*
X6600D01*
X6600Y18009D01*
X6596Y18008D01*
X6592Y18006D01*
X6585Y18004D01*
X6577Y18002D01*
X6568Y18000D01*
X6557Y17999D01*
X6547Y17998D01*
X6542D01*
X6539Y17999D01*
X6535D01*
X6527Y18000D01*
X6518Y18002D01*
X6508Y18004D01*
X6497Y18008D01*
X6487Y18013D01*
X6487D01*
X6486Y18013D01*
X6483Y18015D01*
X6478Y18019D01*
X6472Y18023D01*
X6466Y18029D01*
X6459Y18036D01*
X6453Y18045D01*
X6447Y18054D01*
Y18055D01*
X6447Y18055D01*
X6446Y18057D01*
X6445Y18059D01*
X6444Y18062D01*
X6443Y18065D01*
X6440Y18073D01*
X6437Y18082D01*
X6435Y18094D01*
X6434Y18106D01*
X6433Y18120D01*
Y18121D01*
Y18123D01*
Y18126D01*
X6434Y18130D01*
X6434Y18135D01*
X6435Y18141D01*
X6436Y18147D01*
X6437Y18154D01*
X6441Y18168D01*
X6443Y18177D01*
X6447Y18184D01*
X6450Y18192D01*
X6454Y18199D01*
X6460Y18206D01*
X6465Y18212D01*
X6466Y18213D01*
X6467Y18214D01*
X6468Y18216D01*
X6471Y18218D01*
X6474Y18220D01*
X6478Y18223D01*
X6483Y18226D01*
X6488Y18229D01*
X6494Y18232D01*
X6501Y18236D01*
X6509Y18238D01*
X6517Y18241D01*
X6526Y18244D01*
X6535Y18245D01*
X6545Y18247D01*
X6556Y18247D01*
X6560Y18180D01*
X6558D01*
X6556Y18179D01*
X6554Y18179D01*
X6549Y18178D01*
X6542Y18175D01*
X6534Y18173D01*
X6527Y18170D01*
X6520Y18165D01*
X6514Y18160D01*
X6514Y18160D01*
X6512Y18158D01*
X6510Y18154D01*
X6508Y18150D01*
X6506Y18144D01*
X6503Y18137D01*
X6502Y18128D01*
X6501Y18119D01*
Y18118D01*
Y18118D01*
Y18114D01*
X6502Y18109D01*
X6503Y18104D01*
X6504Y18096D01*
X6506Y18089D01*
X6509Y18083D01*
X6513Y18077D01*
X6513Y18076D01*
X6515Y18075D01*
X6517Y18072D01*
X6520Y18070D01*
X6524Y18067D01*
X6529Y18065D01*
X6535Y18063D01*
X6541Y18062D01*
X6544D01*
X6547Y18063D01*
X6551Y18064D01*
X6555Y18066D01*
X6560Y18068D01*
X6565Y18071D01*
X6569Y18075D01*
X6569Y18076D01*
X6571Y18078D01*
X6573Y18082D01*
X6575Y18085D01*
X6576Y18088D01*
X6578Y18092D01*
X6580Y18096D01*
X6582Y18101D01*
X6585Y18107D01*
X6587Y18113D01*
X6589Y18120D01*
X6592Y18128D01*
X6594Y18137D01*
Y18137D01*
X6595Y18139D01*
X6596Y18141D01*
X6597Y18145D01*
X6598Y18149D01*
X6600Y18154D01*
X6603Y18165D01*
X6608Y18177D01*
X6613Y18189D01*
X6619Y18200D01*
X6622Y18205D01*
X6625Y18210D01*
X6626Y18211D01*
X6628Y18213D01*
X6632Y18217D01*
X6636Y18223D01*
X6642Y18228D01*
X6650Y18234D01*
X6658Y18239D01*
X6667Y18244D01*
X6668D01*
X6668Y18245D01*
X6670Y18245D01*
X6672Y18246D01*
X6677Y18248D01*
X6685Y18251D01*
X6693Y18253D01*
X6704Y18254D01*
X6716Y18256D01*
X6729Y18257D01*
X6734D01*
X6738Y18256D01*
D02*
G37*
G36*
X6847Y18313D02*
X6440D01*
Y18561D01*
X6509D01*
Y18381D01*
X6599D01*
Y18548D01*
X6668D01*
Y18381D01*
X6778D01*
Y18567D01*
X6847D01*
Y18313D01*
D02*
G37*
G36*
Y18882D02*
X6527D01*
X6847Y18816D01*
Y18751D01*
X6527Y18686D01*
X6847D01*
Y18623D01*
X6440D01*
Y18724D01*
X6718Y18784D01*
X6440Y18843D01*
Y18945D01*
X6847D01*
Y18882D01*
D02*
G37*
G36*
X6540Y4365D02*
X6591D01*
Y4281D01*
X6540D01*
Y4180D01*
X6465D01*
Y4281D01*
X6296D01*
Y4364D01*
X6474Y4682D01*
X6540D01*
Y4365D01*
D02*
G37*
G36*
X6772Y4681D02*
X6776Y4681D01*
X6782Y4680D01*
X6796Y4678D01*
X6810Y4673D01*
X6826Y4666D01*
X6833Y4662D01*
X6840Y4658D01*
X6847Y4652D01*
X6853Y4645D01*
X6854Y4644D01*
X6854Y4643D01*
X6855Y4641D01*
X6858Y4638D01*
X6860Y4635D01*
X6863Y4630D01*
X6866Y4625D01*
X6869Y4620D01*
X6875Y4606D01*
X6880Y4591D01*
X6883Y4573D01*
X6884Y4564D01*
X6885Y4554D01*
Y4553D01*
Y4552D01*
Y4550D01*
Y4548D01*
X6884Y4541D01*
X6883Y4532D01*
X6881Y4522D01*
X6878Y4512D01*
X6875Y4501D01*
X6869Y4490D01*
X6869Y4489D01*
X6867Y4486D01*
X6863Y4481D01*
X6859Y4475D01*
X6853Y4469D01*
X6846Y4462D01*
X6838Y4456D01*
X6828Y4450D01*
X6829D01*
X6830Y4449D01*
X6834Y4446D01*
X6840Y4443D01*
X6848Y4438D01*
X6856Y4430D01*
X6865Y4422D01*
X6873Y4413D01*
X6880Y4402D01*
Y4401D01*
X6881Y4400D01*
X6882Y4398D01*
X6883Y4396D01*
X6886Y4390D01*
X6889Y4381D01*
X6892Y4370D01*
X6895Y4357D01*
X6897Y4342D01*
X6898Y4326D01*
Y4325D01*
Y4324D01*
Y4321D01*
Y4318D01*
X6897Y4314D01*
Y4309D01*
X6896Y4299D01*
X6894Y4286D01*
X6891Y4272D01*
X6887Y4258D01*
X6881Y4244D01*
Y4243D01*
X6880Y4243D01*
X6879Y4241D01*
X6877Y4238D01*
X6873Y4232D01*
X6868Y4224D01*
X6861Y4215D01*
X6854Y4207D01*
X6844Y4198D01*
X6833Y4190D01*
X6832Y4189D01*
X6828Y4187D01*
X6822Y4184D01*
X6813Y4181D01*
X6803Y4177D01*
X6792Y4174D01*
X6779Y4172D01*
X6765Y4171D01*
X6759D01*
X6755Y4172D01*
X6750Y4173D01*
X6744Y4173D01*
X6738Y4175D01*
X6730Y4177D01*
X6715Y4181D01*
X6707Y4185D01*
X6698Y4189D01*
X6690Y4193D01*
X6682Y4199D01*
X6674Y4205D01*
X6667Y4212D01*
X6666Y4213D01*
X6666Y4214D01*
X6664Y4216D01*
X6661Y4219D01*
X6658Y4224D01*
X6655Y4229D01*
X6651Y4235D01*
X6648Y4241D01*
X6644Y4249D01*
X6640Y4257D01*
X6637Y4267D01*
X6634Y4277D01*
X6632Y4287D01*
X6630Y4299D01*
X6629Y4311D01*
X6628Y4323D01*
Y4324D01*
Y4325D01*
Y4328D01*
Y4331D01*
X6629Y4335D01*
Y4339D01*
X6630Y4350D01*
X6632Y4362D01*
X6636Y4374D01*
X6640Y4388D01*
X6646Y4400D01*
Y4401D01*
X6646Y4402D01*
X6649Y4406D01*
X6653Y4412D01*
X6659Y4419D01*
X6666Y4427D01*
X6674Y4435D01*
X6685Y4443D01*
X6696Y4450D01*
X6695Y4450D01*
X6692Y4452D01*
X6686Y4456D01*
X6680Y4460D01*
X6673Y4466D01*
X6666Y4474D01*
X6659Y4482D01*
X6653Y4491D01*
X6652Y4492D01*
X6651Y4496D01*
X6648Y4501D01*
X6646Y4508D01*
X6643Y4518D01*
X6640Y4528D01*
X6639Y4540D01*
X6638Y4553D01*
Y4554D01*
Y4556D01*
Y4559D01*
X6639Y4563D01*
X6640Y4568D01*
X6640Y4574D01*
X6642Y4587D01*
X6646Y4602D01*
X6652Y4618D01*
X6656Y4626D01*
X6661Y4633D01*
X6666Y4640D01*
X6672Y4647D01*
X6672Y4648D01*
X6673Y4648D01*
X6675Y4650D01*
X6678Y4652D01*
X6681Y4655D01*
X6685Y4658D01*
X6690Y4662D01*
X6696Y4665D01*
X6708Y4671D01*
X6724Y4677D01*
X6742Y4681D01*
X6752Y4681D01*
X6762Y4682D01*
X6768D01*
X6772Y4681D01*
D02*
G37*
G36*
X5810D02*
X5814D01*
X5819Y4680D01*
X5825Y4679D01*
X5831Y4678D01*
X5839Y4675D01*
X5846Y4672D01*
X5854Y4668D01*
X5862Y4664D01*
X5870Y4658D01*
X5878Y4652D01*
X5886Y4644D01*
X5893Y4635D01*
X5900Y4625D01*
X5901Y4624D01*
X5902Y4622D01*
X5904Y4619D01*
X5906Y4614D01*
X5909Y4608D01*
X5912Y4600D01*
X5916Y4590D01*
X5919Y4579D01*
X5922Y4566D01*
X5926Y4552D01*
X5929Y4536D01*
X5932Y4517D01*
X5934Y4498D01*
X5936Y4476D01*
X5937Y4452D01*
X5938Y4426D01*
Y4426D01*
Y4425D01*
Y4423D01*
Y4420D01*
Y4413D01*
X5937Y4403D01*
X5936Y4392D01*
X5936Y4378D01*
X5934Y4364D01*
X5933Y4349D01*
X5928Y4316D01*
X5926Y4299D01*
X5922Y4283D01*
X5918Y4267D01*
X5913Y4253D01*
X5907Y4239D01*
X5900Y4228D01*
X5900Y4227D01*
X5898Y4225D01*
X5896Y4223D01*
X5894Y4219D01*
X5890Y4215D01*
X5886Y4210D01*
X5880Y4205D01*
X5874Y4200D01*
X5868Y4195D01*
X5861Y4189D01*
X5845Y4180D01*
X5835Y4177D01*
X5826Y4174D01*
X5815Y4172D01*
X5805Y4171D01*
X5802D01*
X5799Y4172D01*
X5795D01*
X5789Y4173D01*
X5784Y4174D01*
X5777Y4176D01*
X5770Y4179D01*
X5763Y4181D01*
X5755Y4185D01*
X5747Y4189D01*
X5739Y4195D01*
X5731Y4201D01*
X5723Y4209D01*
X5715Y4217D01*
X5708Y4227D01*
X5707Y4228D01*
X5707Y4230D01*
X5705Y4233D01*
X5702Y4239D01*
X5699Y4245D01*
X5697Y4253D01*
X5693Y4263D01*
X5690Y4273D01*
X5686Y4287D01*
X5683Y4301D01*
X5680Y4317D01*
X5677Y4335D01*
X5675Y4356D01*
X5673Y4377D01*
X5672Y4401D01*
X5671Y4427D01*
Y4428D01*
Y4428D01*
Y4430D01*
Y4433D01*
Y4440D01*
X5672Y4450D01*
X5673Y4462D01*
X5673Y4475D01*
X5675Y4489D01*
X5676Y4505D01*
X5680Y4538D01*
X5687Y4570D01*
X5691Y4586D01*
X5696Y4600D01*
X5701Y4614D01*
X5708Y4625D01*
X5709Y4626D01*
X5710Y4628D01*
X5712Y4630D01*
X5715Y4634D01*
X5719Y4638D01*
X5723Y4643D01*
X5728Y4648D01*
X5734Y4654D01*
X5741Y4659D01*
X5747Y4664D01*
X5755Y4669D01*
X5764Y4674D01*
X5773Y4677D01*
X5783Y4679D01*
X5793Y4681D01*
X5804Y4682D01*
X5807D01*
X5810Y4681D01*
D02*
G37*
G36*
X5491D02*
X5495D01*
X5500Y4680D01*
X5506Y4679D01*
X5512Y4678D01*
X5519Y4675D01*
X5527Y4672D01*
X5535Y4668D01*
X5543Y4664D01*
X5551Y4658D01*
X5559Y4652D01*
X5567Y4644D01*
X5574Y4635D01*
X5581Y4625D01*
X5582Y4624D01*
X5583Y4622D01*
X5585Y4619D01*
X5587Y4614D01*
X5590Y4608D01*
X5593Y4600D01*
X5597Y4590D01*
X5600Y4579D01*
X5603Y4566D01*
X5607Y4552D01*
X5610Y4536D01*
X5613Y4517D01*
X5615Y4498D01*
X5617Y4476D01*
X5618Y4452D01*
X5619Y4426D01*
Y4426D01*
Y4425D01*
Y4423D01*
Y4420D01*
Y4413D01*
X5618Y4403D01*
X5617Y4392D01*
X5617Y4378D01*
X5615Y4364D01*
X5614Y4349D01*
X5609Y4316D01*
X5607Y4299D01*
X5603Y4283D01*
X5599Y4267D01*
X5594Y4253D01*
X5588Y4239D01*
X5581Y4228D01*
X5581Y4227D01*
X5579Y4225D01*
X5577Y4223D01*
X5575Y4219D01*
X5571Y4215D01*
X5567Y4210D01*
X5561Y4205D01*
X5555Y4200D01*
X5549Y4195D01*
X5542Y4189D01*
X5525Y4180D01*
X5516Y4177D01*
X5507Y4174D01*
X5496Y4172D01*
X5486Y4171D01*
X5483D01*
X5480Y4172D01*
X5476D01*
X5470Y4173D01*
X5465Y4174D01*
X5458Y4176D01*
X5451Y4179D01*
X5444Y4181D01*
X5436Y4185D01*
X5428Y4189D01*
X5420Y4195D01*
X5412Y4201D01*
X5404Y4209D01*
X5396Y4217D01*
X5389Y4227D01*
X5388Y4228D01*
X5388Y4230D01*
X5386Y4233D01*
X5383Y4239D01*
X5380Y4245D01*
X5378Y4253D01*
X5374Y4263D01*
X5371Y4273D01*
X5367Y4287D01*
X5364Y4301D01*
X5361Y4317D01*
X5358Y4335D01*
X5356Y4356D01*
X5354Y4377D01*
X5353Y4401D01*
X5352Y4427D01*
Y4428D01*
Y4428D01*
Y4430D01*
Y4433D01*
Y4440D01*
X5353Y4450D01*
X5354Y4462D01*
X5354Y4475D01*
X5356Y4489D01*
X5357Y4505D01*
X5361Y4538D01*
X5368Y4570D01*
X5372Y4586D01*
X5377Y4600D01*
X5382Y4614D01*
X5389Y4625D01*
X5390Y4626D01*
X5391Y4628D01*
X5393Y4630D01*
X5396Y4634D01*
X5400Y4638D01*
X5404Y4643D01*
X5409Y4648D01*
X5415Y4654D01*
X5422Y4659D01*
X5428Y4664D01*
X5436Y4669D01*
X5445Y4674D01*
X5454Y4677D01*
X5464Y4679D01*
X5474Y4681D01*
X5485Y4682D01*
X5488D01*
X5491Y4681D01*
D02*
G37*
G36*
X6192Y4180D02*
X6114D01*
Y4542D01*
X6113Y4542D01*
X6112Y4540D01*
X6109Y4538D01*
X6106Y4534D01*
X6102Y4530D01*
X6096Y4526D01*
X6091Y4520D01*
X6084Y4514D01*
X6077Y4508D01*
X6069Y4502D01*
X6052Y4490D01*
X6032Y4479D01*
X6012Y4470D01*
Y4557D01*
X6012D01*
X6013Y4558D01*
X6015Y4558D01*
X6018Y4560D01*
X6024Y4563D01*
X6032Y4568D01*
X6042Y4574D01*
X6054Y4582D01*
X6066Y4592D01*
X6080Y4604D01*
X6080Y4604D01*
X6081Y4605D01*
X6083Y4607D01*
X6086Y4610D01*
X6092Y4617D01*
X6099Y4626D01*
X6107Y4638D01*
X6115Y4651D01*
X6122Y4666D01*
X6128Y4682D01*
X6192D01*
Y4180D01*
D02*
G37*
G36*
X5264Y4365D02*
X5315D01*
Y4281D01*
X5264D01*
Y4180D01*
X5189D01*
Y4281D01*
X5020D01*
Y4364D01*
X5198Y4682D01*
X5264D01*
Y4365D01*
D02*
G37*
%LPC*%
G36*
X6660Y20385D02*
X6633D01*
X6629Y20384D01*
X6619D01*
X6608Y20383D01*
X6596Y20382D01*
X6584Y20381D01*
X6574Y20378D01*
X6573D01*
X6573Y20378D01*
X6569Y20377D01*
X6565Y20376D01*
X6559Y20374D01*
X6552Y20371D01*
X6545Y20368D01*
X6539Y20363D01*
X6533Y20359D01*
X6532Y20358D01*
X6530Y20357D01*
X6528Y20354D01*
X6524Y20350D01*
X6521Y20345D01*
X6518Y20340D01*
X6515Y20334D01*
X6513Y20327D01*
Y20327D01*
X6512Y20324D01*
X6511Y20321D01*
X6510Y20315D01*
X6510Y20308D01*
Y20303D01*
X6509Y20298D01*
Y20292D01*
X6509Y20286D01*
Y20280D01*
Y20272D01*
Y20242D01*
X6778D01*
Y20292D01*
Y20293D01*
Y20294D01*
Y20296D01*
Y20298D01*
X6778Y20303D01*
Y20310D01*
X6777Y20318D01*
X6776Y20326D01*
X6774Y20334D01*
X6772Y20339D01*
X6772Y20340D01*
X6771Y20342D01*
X6770Y20344D01*
X6768Y20348D01*
X6765Y20352D01*
X6762Y20356D01*
X6758Y20360D01*
X6754Y20363D01*
X6753Y20364D01*
X6752Y20365D01*
X6748Y20367D01*
X6744Y20369D01*
X6739Y20371D01*
X6732Y20374D01*
X6724Y20376D01*
X6715Y20378D01*
X6714D01*
X6714Y20379D01*
X6712D01*
X6710Y20380D01*
X6707Y20380D01*
X6704Y20381D01*
X6696Y20382D01*
X6686Y20383D01*
X6674Y20384D01*
X6660Y20385D01*
D02*
G37*
G36*
X5786Y19349D02*
X5771D01*
X5760Y19347D01*
X5746D01*
X5731Y19346D01*
X5714Y19344D01*
X5695Y19341D01*
X5656Y19334D01*
X5616Y19324D01*
X5577Y19309D01*
X5561Y19299D01*
X5545Y19289D01*
X5544Y19288D01*
X5541Y19286D01*
X5537Y19282D01*
X5533Y19279D01*
X5520Y19265D01*
X5505Y19247D01*
X5491Y19225D01*
X5479Y19199D01*
X5474Y19185D01*
X5470Y19169D01*
X5468Y19152D01*
X5466Y19135D01*
Y19134D01*
Y19131D01*
Y19126D01*
X5468Y19119D01*
X5469Y19111D01*
X5470Y19101D01*
X5476Y19080D01*
X5486Y19055D01*
X5493Y19043D01*
X5500Y19030D01*
X5509Y19016D01*
X5520Y19004D01*
X5533Y18991D01*
X5546Y18980D01*
X5548D01*
X5550Y18978D01*
X5555Y18975D01*
X5561Y18971D01*
X5570Y18966D01*
X5580Y18961D01*
X5592Y18956D01*
X5606Y18951D01*
X5623Y18945D01*
X5640Y18940D01*
X5660Y18935D01*
X5683Y18930D01*
X5706Y18926D01*
X5732Y18924D01*
X5760Y18922D01*
X5790Y18921D01*
X5805D01*
X5816Y18922D01*
X5830Y18924D01*
X5846Y18925D01*
X5863Y18926D01*
X5881Y18929D01*
X5921Y18936D01*
X5961Y18947D01*
X5981Y18954D01*
X6000Y18963D01*
X6018Y18971D01*
X6034Y18982D01*
X6035Y18984D01*
X6037Y18985D01*
X6041Y18989D01*
X6046Y18994D01*
X6053Y19000D01*
X6059Y19006D01*
X6074Y19025D01*
X6089Y19046D01*
X6101Y19073D01*
X6106Y19088D01*
X6110Y19102D01*
X6112Y19119D01*
X6114Y19135D01*
Y19136D01*
Y19139D01*
Y19144D01*
X6112Y19150D01*
X6111Y19159D01*
X6110Y19167D01*
X6104Y19189D01*
X6094Y19212D01*
X6087Y19225D01*
X6080Y19239D01*
X6071Y19251D01*
X6060Y19264D01*
X6047Y19276D01*
X6034Y19288D01*
X6033Y19289D01*
X6030Y19290D01*
X6025Y19294D01*
X6019Y19297D01*
X6010Y19301D01*
X6000Y19308D01*
X5987Y19312D01*
X5972Y19319D01*
X5956Y19324D01*
X5939Y19330D01*
X5918Y19335D01*
X5895Y19339D01*
X5871Y19344D01*
X5845Y19346D01*
X5816Y19347D01*
X5786Y19349D01*
D02*
G37*
G36*
X5829Y20891D02*
X5766D01*
X5756Y20890D01*
X5732D01*
X5707Y20887D01*
X5680Y20885D01*
X5652Y20881D01*
X5629Y20876D01*
X5627D01*
X5626Y20875D01*
X5619Y20874D01*
X5608Y20870D01*
X5594Y20865D01*
X5579Y20859D01*
X5562Y20851D01*
X5548Y20841D01*
X5534Y20831D01*
X5533Y20830D01*
X5527Y20826D01*
X5523Y20820D01*
X5515Y20811D01*
X5508Y20800D01*
X5500Y20787D01*
X5493Y20774D01*
X5487Y20758D01*
Y20756D01*
X5486Y20751D01*
X5485Y20742D01*
X5483Y20730D01*
X5481Y20712D01*
Y20703D01*
X5480Y20690D01*
Y20677D01*
X5479Y20664D01*
Y20649D01*
Y20631D01*
Y20561D01*
X6101D01*
Y20677D01*
Y20679D01*
Y20681D01*
Y20685D01*
Y20690D01*
X6100Y20703D01*
Y20719D01*
X6097Y20738D01*
X6095Y20755D01*
X6093Y20773D01*
X6087Y20786D01*
X6086Y20787D01*
X6085Y20793D01*
X6081Y20798D01*
X6077Y20806D01*
X6071Y20815D01*
X6064Y20824D01*
X6055Y20833D01*
X6045Y20841D01*
X6044Y20842D01*
X6040Y20845D01*
X6033Y20849D01*
X6022Y20854D01*
X6010Y20859D01*
X5995Y20865D01*
X5976Y20871D01*
X5955Y20876D01*
X5954D01*
X5953Y20877D01*
X5949D01*
X5944Y20879D01*
X5938Y20880D01*
X5930Y20881D01*
X5911Y20884D01*
X5889Y20886D01*
X5860Y20889D01*
X5829Y20891D01*
D02*
G37*
G36*
X5596Y20101D02*
X5589D01*
X5580Y20100D01*
X5570Y20099D01*
X5559Y20096D01*
X5546Y20094D01*
X5535Y20089D01*
X5524Y20082D01*
X5523Y20081D01*
X5519Y20079D01*
X5515Y20075D01*
X5509Y20070D01*
X5502Y20062D01*
X5496Y20055D01*
X5491Y20045D01*
X5486Y20034D01*
Y20032D01*
X5485Y20029D01*
X5484Y20021D01*
X5483Y20010D01*
X5481Y20003D01*
Y19994D01*
X5480Y19984D01*
Y19971D01*
Y19959D01*
X5479Y19943D01*
Y19926D01*
Y19907D01*
Y19786D01*
X5717D01*
Y19901D01*
Y19902D01*
Y19906D01*
Y19911D01*
Y19919D01*
Y19926D01*
Y19936D01*
X5716Y19957D01*
X5715Y19981D01*
X5714Y20003D01*
X5713Y20014D01*
X5711Y20022D01*
X5710Y20030D01*
X5709Y20036D01*
Y20038D01*
X5707Y20041D01*
X5705Y20046D01*
X5701Y20052D01*
X5696Y20060D01*
X5689Y20068D01*
X5681Y20075D01*
X5671Y20082D01*
X5670Y20084D01*
X5666Y20085D01*
X5660Y20089D01*
X5651Y20092D01*
X5640Y20095D01*
X5627Y20099D01*
X5612Y20100D01*
X5596Y20101D01*
D02*
G37*
G36*
X6642Y21708D02*
X6635D01*
X6631Y21708D01*
X6625D01*
X6618Y21707D01*
X6610Y21706D01*
X6602Y21705D01*
X6586Y21702D01*
X6568Y21697D01*
X6552Y21691D01*
X6544Y21687D01*
X6537Y21682D01*
X6537Y21682D01*
X6536Y21681D01*
X6534Y21680D01*
X6532Y21678D01*
X6527Y21672D01*
X6520Y21664D01*
X6514Y21655D01*
X6509Y21643D01*
X6507Y21637D01*
X6505Y21630D01*
X6504Y21623D01*
X6503Y21616D01*
Y21615D01*
Y21614D01*
Y21612D01*
X6504Y21609D01*
X6504Y21605D01*
X6505Y21601D01*
X6508Y21592D01*
X6512Y21581D01*
X6515Y21576D01*
X6518Y21570D01*
X6522Y21564D01*
X6527Y21559D01*
X6532Y21553D01*
X6538Y21549D01*
X6539D01*
X6540Y21548D01*
X6542Y21546D01*
X6544Y21545D01*
X6548Y21543D01*
X6553Y21541D01*
X6558Y21538D01*
X6564Y21536D01*
X6571Y21533D01*
X6579Y21531D01*
X6587Y21529D01*
X6597Y21527D01*
X6607Y21525D01*
X6619Y21524D01*
X6631Y21524D01*
X6643Y21523D01*
X6650D01*
X6655Y21524D01*
X6661Y21524D01*
X6668Y21525D01*
X6675Y21525D01*
X6683Y21526D01*
X6700Y21530D01*
X6718Y21535D01*
X6726Y21537D01*
X6734Y21541D01*
X6742Y21545D01*
X6749Y21550D01*
X6750Y21550D01*
X6751Y21551D01*
X6752Y21552D01*
X6754Y21555D01*
X6757Y21557D01*
X6760Y21560D01*
X6766Y21568D01*
X6773Y21577D01*
X6778Y21589D01*
X6780Y21595D01*
X6782Y21602D01*
X6783Y21609D01*
X6784Y21616D01*
Y21616D01*
Y21617D01*
Y21620D01*
X6783Y21622D01*
X6783Y21626D01*
X6782Y21630D01*
X6779Y21639D01*
X6775Y21649D01*
X6772Y21655D01*
X6769Y21661D01*
X6765Y21666D01*
X6760Y21671D01*
X6755Y21677D01*
X6749Y21682D01*
X6748Y21682D01*
X6747Y21683D01*
X6745Y21684D01*
X6743Y21686D01*
X6739Y21688D01*
X6734Y21690D01*
X6729Y21693D01*
X6722Y21695D01*
X6715Y21697D01*
X6708Y21700D01*
X6699Y21702D01*
X6689Y21704D01*
X6679Y21706D01*
X6667Y21707D01*
X6655Y21708D01*
X6642Y21708D01*
D02*
G37*
G36*
X6560Y22034D02*
X6556D01*
X6553Y22033D01*
X6548Y22033D01*
X6543Y22032D01*
X6538Y22031D01*
X6533Y22028D01*
X6528Y22026D01*
X6528Y22025D01*
X6526Y22024D01*
X6524Y22023D01*
X6522Y22020D01*
X6519Y22017D01*
X6516Y22014D01*
X6514Y22010D01*
X6512Y22005D01*
Y22004D01*
X6511Y22003D01*
X6511Y21999D01*
X6510Y21994D01*
X6510Y21991D01*
Y21987D01*
X6509Y21983D01*
Y21978D01*
Y21972D01*
X6509Y21965D01*
Y21958D01*
Y21950D01*
Y21898D01*
X6612D01*
Y21947D01*
Y21948D01*
Y21950D01*
Y21952D01*
Y21955D01*
Y21958D01*
Y21962D01*
X6612Y21972D01*
X6611Y21982D01*
X6610Y21991D01*
X6610Y21996D01*
X6609Y22000D01*
X6609Y22003D01*
X6608Y22006D01*
Y22006D01*
X6608Y22008D01*
X6607Y22010D01*
X6605Y22013D01*
X6603Y22016D01*
X6600Y22019D01*
X6596Y22023D01*
X6592Y22026D01*
X6592Y22026D01*
X6590Y22027D01*
X6587Y22028D01*
X6583Y22030D01*
X6579Y22031D01*
X6573Y22033D01*
X6567Y22033D01*
X6560Y22034D01*
D02*
G37*
G36*
X6642Y19717D02*
X6635D01*
X6631Y19717D01*
X6625D01*
X6618Y19716D01*
X6610Y19715D01*
X6602Y19714D01*
X6586Y19711D01*
X6568Y19707D01*
X6552Y19700D01*
X6544Y19696D01*
X6537Y19691D01*
X6537Y19691D01*
X6536Y19690D01*
X6534Y19689D01*
X6532Y19687D01*
X6527Y19681D01*
X6520Y19674D01*
X6514Y19664D01*
X6509Y19652D01*
X6507Y19646D01*
X6505Y19639D01*
X6504Y19632D01*
X6503Y19625D01*
Y19624D01*
Y19623D01*
Y19621D01*
X6504Y19618D01*
X6504Y19615D01*
X6505Y19610D01*
X6508Y19601D01*
X6512Y19590D01*
X6515Y19585D01*
X6518Y19579D01*
X6522Y19573D01*
X6527Y19568D01*
X6532Y19563D01*
X6538Y19558D01*
X6539D01*
X6540Y19557D01*
X6542Y19556D01*
X6544Y19554D01*
X6548Y19552D01*
X6553Y19550D01*
X6558Y19547D01*
X6564Y19545D01*
X6571Y19543D01*
X6579Y19540D01*
X6587Y19538D01*
X6597Y19536D01*
X6607Y19534D01*
X6619Y19533D01*
X6631Y19533D01*
X6643Y19532D01*
X6650D01*
X6655Y19533D01*
X6661Y19533D01*
X6668Y19534D01*
X6675Y19534D01*
X6683Y19536D01*
X6700Y19539D01*
X6718Y19544D01*
X6726Y19546D01*
X6734Y19550D01*
X6742Y19554D01*
X6749Y19559D01*
X6750Y19559D01*
X6751Y19560D01*
X6752Y19562D01*
X6754Y19564D01*
X6757Y19566D01*
X6760Y19569D01*
X6766Y19577D01*
X6773Y19586D01*
X6778Y19598D01*
X6780Y19604D01*
X6782Y19611D01*
X6783Y19618D01*
X6784Y19625D01*
Y19625D01*
Y19626D01*
Y19629D01*
X6783Y19631D01*
X6783Y19635D01*
X6782Y19639D01*
X6779Y19648D01*
X6775Y19658D01*
X6772Y19664D01*
X6769Y19670D01*
X6765Y19675D01*
X6760Y19681D01*
X6755Y19686D01*
X6749Y19691D01*
X6748Y19691D01*
X6747Y19692D01*
X6745Y19694D01*
X6743Y19695D01*
X6739Y19697D01*
X6734Y19699D01*
X6729Y19702D01*
X6722Y19704D01*
X6715Y19707D01*
X6708Y19709D01*
X6699Y19711D01*
X6689Y19713D01*
X6679Y19715D01*
X6667Y19716D01*
X6655Y19717D01*
X6642Y19717D01*
D02*
G37*
G36*
X6465Y4536D02*
X6370Y4365D01*
X6465D01*
Y4536D01*
D02*
G37*
G36*
X6762Y4606D02*
X6759D01*
X6754Y4606D01*
X6750Y4604D01*
X6744Y4602D01*
X6738Y4600D01*
X6732Y4596D01*
X6726Y4590D01*
X6726Y4590D01*
X6724Y4588D01*
X6722Y4584D01*
X6720Y4579D01*
X6717Y4572D01*
X6715Y4565D01*
X6714Y4556D01*
X6713Y4546D01*
Y4545D01*
Y4542D01*
X6714Y4536D01*
X6715Y4530D01*
X6716Y4522D01*
X6718Y4515D01*
X6722Y4508D01*
X6726Y4502D01*
X6727Y4501D01*
X6729Y4499D01*
X6732Y4497D01*
X6736Y4494D01*
X6741Y4491D01*
X6747Y4489D01*
X6754Y4487D01*
X6761Y4486D01*
X6765D01*
X6769Y4487D01*
X6774Y4488D01*
X6780Y4490D01*
X6786Y4493D01*
X6792Y4496D01*
X6797Y4502D01*
X6798Y4502D01*
X6799Y4504D01*
X6802Y4508D01*
X6804Y4513D01*
X6806Y4519D01*
X6809Y4527D01*
X6810Y4536D01*
X6811Y4546D01*
Y4547D01*
Y4548D01*
Y4551D01*
X6810Y4556D01*
X6809Y4562D01*
X6808Y4570D01*
X6805Y4577D01*
X6802Y4584D01*
X6797Y4590D01*
X6796Y4591D01*
X6794Y4593D01*
X6792Y4596D01*
X6788Y4598D01*
X6782Y4601D01*
X6776Y4604D01*
X6770Y4606D01*
X6762Y4606D01*
D02*
G37*
G36*
Y4409D02*
X6758D01*
X6754Y4408D01*
X6748Y4406D01*
X6742Y4404D01*
X6735Y4400D01*
X6728Y4395D01*
X6722Y4388D01*
X6721Y4387D01*
X6719Y4384D01*
X6716Y4379D01*
X6714Y4373D01*
X6711Y4365D01*
X6708Y4356D01*
X6706Y4345D01*
X6706Y4332D01*
Y4331D01*
Y4330D01*
Y4328D01*
Y4325D01*
X6706Y4318D01*
X6708Y4309D01*
X6710Y4299D01*
X6713Y4289D01*
X6717Y4279D01*
X6722Y4270D01*
X6723Y4269D01*
X6726Y4267D01*
X6729Y4263D01*
X6734Y4259D01*
X6740Y4255D01*
X6747Y4252D01*
X6755Y4249D01*
X6764Y4249D01*
X6765D01*
X6768Y4249D01*
X6772Y4250D01*
X6778Y4251D01*
X6784Y4254D01*
X6791Y4257D01*
X6798Y4263D01*
X6804Y4269D01*
X6804Y4270D01*
X6806Y4273D01*
X6809Y4278D01*
X6812Y4285D01*
X6815Y4293D01*
X6818Y4304D01*
X6820Y4317D01*
X6820Y4331D01*
Y4332D01*
Y4333D01*
Y4335D01*
Y4337D01*
X6820Y4344D01*
X6818Y4352D01*
X6816Y4361D01*
X6813Y4370D01*
X6809Y4379D01*
X6804Y4388D01*
X6803Y4388D01*
X6801Y4391D01*
X6797Y4394D01*
X6792Y4398D01*
X6786Y4402D01*
X6779Y4406D01*
X6771Y4408D01*
X6762Y4409D01*
D02*
G37*
G36*
X5809Y4603D02*
X5803D01*
X5801Y4602D01*
X5797Y4602D01*
X5791Y4599D01*
X5785Y4596D01*
X5779Y4590D01*
X5773Y4582D01*
X5770Y4577D01*
X5767Y4572D01*
Y4571D01*
X5767Y4570D01*
X5766Y4568D01*
X5765Y4565D01*
X5764Y4561D01*
X5763Y4556D01*
X5762Y4550D01*
X5761Y4542D01*
X5759Y4533D01*
X5758Y4523D01*
X5757Y4511D01*
X5756Y4498D01*
X5755Y4482D01*
X5755Y4466D01*
X5754Y4447D01*
Y4426D01*
Y4425D01*
Y4422D01*
Y4416D01*
Y4408D01*
X5755Y4399D01*
Y4388D01*
X5755Y4377D01*
X5756Y4365D01*
X5757Y4341D01*
X5759Y4328D01*
X5759Y4317D01*
X5761Y4305D01*
X5763Y4296D01*
X5765Y4287D01*
X5767Y4281D01*
X5768Y4279D01*
X5770Y4276D01*
X5773Y4271D01*
X5777Y4266D01*
X5783Y4260D01*
X5789Y4255D01*
X5797Y4252D01*
X5801Y4251D01*
X5805Y4251D01*
X5806D01*
X5809Y4251D01*
X5813Y4252D01*
X5818Y4255D01*
X5824Y4258D01*
X5830Y4263D01*
X5836Y4271D01*
X5839Y4276D01*
X5841Y4281D01*
Y4282D01*
X5842Y4283D01*
X5843Y4285D01*
X5843Y4288D01*
X5845Y4292D01*
X5846Y4297D01*
X5847Y4303D01*
X5849Y4311D01*
X5849Y4320D01*
X5850Y4330D01*
X5852Y4342D01*
X5853Y4355D01*
X5854Y4370D01*
X5854Y4387D01*
X5855Y4406D01*
Y4426D01*
Y4427D01*
Y4428D01*
Y4432D01*
Y4437D01*
Y4445D01*
X5854Y4454D01*
Y4464D01*
X5854Y4476D01*
X5853Y4488D01*
X5852Y4512D01*
X5850Y4524D01*
X5849Y4536D01*
X5848Y4547D01*
X5846Y4556D01*
X5844Y4565D01*
X5841Y4572D01*
Y4572D01*
X5841Y4573D01*
X5839Y4576D01*
X5836Y4582D01*
X5832Y4588D01*
X5827Y4593D01*
X5820Y4598D01*
X5813Y4602D01*
X5809Y4603D01*
D02*
G37*
G36*
X5490D02*
X5484D01*
X5482Y4602D01*
X5478Y4602D01*
X5472Y4599D01*
X5466Y4596D01*
X5460Y4590D01*
X5454Y4582D01*
X5451Y4577D01*
X5448Y4572D01*
Y4571D01*
X5448Y4570D01*
X5447Y4568D01*
X5446Y4565D01*
X5445Y4561D01*
X5444Y4556D01*
X5443Y4550D01*
X5442Y4542D01*
X5440Y4533D01*
X5439Y4523D01*
X5438Y4511D01*
X5437Y4498D01*
X5436Y4482D01*
X5436Y4466D01*
X5435Y4447D01*
Y4426D01*
Y4425D01*
Y4422D01*
Y4416D01*
Y4408D01*
X5436Y4399D01*
Y4388D01*
X5436Y4377D01*
X5437Y4365D01*
X5438Y4341D01*
X5440Y4328D01*
X5440Y4317D01*
X5442Y4305D01*
X5444Y4296D01*
X5446Y4287D01*
X5448Y4281D01*
X5449Y4279D01*
X5451Y4276D01*
X5454Y4271D01*
X5458Y4266D01*
X5464Y4260D01*
X5470Y4255D01*
X5478Y4252D01*
X5482Y4251D01*
X5486Y4251D01*
X5487D01*
X5490Y4251D01*
X5494Y4252D01*
X5499Y4255D01*
X5505Y4258D01*
X5511Y4263D01*
X5517Y4271D01*
X5519Y4276D01*
X5522Y4281D01*
Y4282D01*
X5523Y4283D01*
X5523Y4285D01*
X5524Y4288D01*
X5525Y4292D01*
X5527Y4297D01*
X5528Y4303D01*
X5529Y4311D01*
X5530Y4320D01*
X5531Y4330D01*
X5533Y4342D01*
X5534Y4355D01*
X5535Y4370D01*
X5535Y4387D01*
X5536Y4406D01*
Y4426D01*
Y4427D01*
Y4428D01*
Y4432D01*
Y4437D01*
Y4445D01*
X5535Y4454D01*
Y4464D01*
X5535Y4476D01*
X5534Y4488D01*
X5533Y4512D01*
X5531Y4524D01*
X5530Y4536D01*
X5529Y4547D01*
X5527Y4556D01*
X5525Y4565D01*
X5522Y4572D01*
Y4572D01*
X5522Y4573D01*
X5519Y4576D01*
X5517Y4582D01*
X5513Y4588D01*
X5508Y4593D01*
X5501Y4598D01*
X5494Y4602D01*
X5490Y4603D01*
D02*
G37*
G36*
X5189Y4536D02*
X5094Y4365D01*
X5189D01*
Y4536D01*
D02*
G37*
%LPD*%
D14*
X6322Y16644D02*
X6788D01*
X6299Y16609D02*
X6839Y17491D01*
X6299Y16609D02*
X6813D01*
X6543Y17006D02*
X6829Y16589D01*
X6535Y16144D02*
X6835Y16577D01*
X5299Y16598D02*
X5567Y16212D01*
X5269Y16557D02*
X5799Y17439D01*
X5559Y16144D02*
X6535D01*
X5269Y16557D02*
X5559Y16144D01*
X5779Y17394D02*
X6042Y16998D01*
X5799Y17439D02*
X6069Y17043D01*
X5794Y17460D02*
X6079Y17063D01*
X5794Y17460D02*
X6028Y17839D01*
X5785Y17416D02*
X6062Y17030D01*
X6502Y16939D02*
X6589D01*
X6470Y16888D02*
X6624D01*
X6449Y16853D02*
X6649D01*
X6421Y16806D02*
X6681D01*
X6398Y16767D02*
X6705D01*
X6374Y16729D02*
X6732D01*
X6351Y16691D02*
X6756D01*
X5318Y17460D02*
X5551Y17839D01*
X5373Y17460D02*
X5606Y17839D01*
X5409Y17460D02*
X5642Y17839D01*
X5456Y17460D02*
X5689Y17839D01*
X5503Y17460D02*
X5736Y17839D01*
X5590Y17460D02*
X5823Y17839D01*
X5637Y17460D02*
X5870Y17839D01*
X5688Y17460D02*
X5921Y17839D01*
X5724Y17460D02*
X5957Y17839D01*
X5775Y17460D02*
X6008Y17839D01*
X5558Y17460D02*
X5791Y17839D01*
X6477D02*
X6518Y17787D01*
X6417Y17839D02*
X6490Y17740D01*
X6358Y17839D02*
X6464Y17696D01*
X6315Y17839D02*
X6444Y17663D01*
X6267Y17839D02*
X6420Y17626D01*
X6221Y17839D02*
X6400Y17591D01*
X6172Y17839D02*
X6378Y17553D01*
X6113Y17839D02*
X6350Y17508D01*
X6056Y17839D02*
X6323Y17465D01*
X6028Y17822D02*
X6302Y17431D01*
X5996Y17770D02*
X6272Y17377D01*
X5969Y17725D02*
X6244Y17337D01*
X5953Y17699D02*
X6226Y17310D01*
X5932Y17664D02*
X6206Y17272D01*
X5910Y17628D02*
X6186Y17235D01*
X5884Y17585D02*
X6159Y17193D01*
X5858Y17543D02*
X6132Y17153D01*
X5834Y17502D02*
X6108Y17111D01*
X5746Y17350D02*
X6019Y16962D01*
X5723Y17311D02*
X5995Y16923D01*
X5697Y17270D02*
X5970Y16881D01*
X5670Y17224D02*
X5943Y16836D01*
X5650Y17191D02*
X5923Y16803D01*
X5625Y17149D02*
X5897Y16762D01*
X5607Y17117D02*
X5878Y16731D01*
X5585Y17078D02*
X5856Y16692D01*
X5561Y17043D02*
X5834Y16654D01*
X5533Y17010D02*
X5810Y16616D01*
X5512Y16963D02*
X5785Y16574D01*
X5489Y16921D02*
X5760Y16534D01*
X5464Y16881D02*
X5735Y16496D01*
X5445Y16850D02*
X5717Y16462D01*
X5422Y16813D02*
X5695Y16424D01*
X5402Y16779D02*
X5674Y16392D01*
X5379Y16741D02*
X5651Y16352D01*
X5354Y16701D02*
X5627Y16313D01*
X5335Y16669D02*
X5608Y16281D01*
X5315Y16633D02*
X5586Y16247D01*
X5264Y17443D02*
X5508Y17839D01*
X5276Y17459D02*
X5772Y17459D01*
X5264Y17443D02*
X5536Y17006D01*
X5510Y17839D02*
X6579Y17839D01*
X6583Y17839D02*
X6839Y17491D01*
X5547Y16180D02*
X6551Y17839D01*
X1960Y23870D02*
Y24050D01*
X2050Y24140D01*
X2140Y24050D01*
Y23870D01*
Y24005D01*
X1960D01*
X2230Y23870D02*
X2320D01*
X2275D01*
Y24140D01*
X2230Y24095D01*
D15*
X5201Y4050D02*
X5166Y4038D01*
X5142Y4002D01*
X5130Y3943D01*
Y3907D01*
X5142Y3848D01*
X5166Y3812D01*
X5201Y3800D01*
X5225D01*
X5261Y3812D01*
X5285Y3848D01*
X5297Y3907D01*
Y3943D01*
X5285Y4002D01*
X5261Y4038D01*
X5225Y4050D01*
X5201D01*
X5424D02*
X5388Y4038D01*
X5364Y4002D01*
X5353Y3943D01*
Y3907D01*
X5364Y3848D01*
X5388Y3812D01*
X5424Y3800D01*
X5448D01*
X5483Y3812D01*
X5507Y3848D01*
X5519Y3907D01*
Y3943D01*
X5507Y4002D01*
X5483Y4038D01*
X5448Y4050D01*
X5424D01*
X5575Y4002D02*
X5599Y4014D01*
X5635Y4050D01*
Y3800D01*
X5818Y4050D02*
X5782Y4038D01*
X5770Y4014D01*
Y3990D01*
X5782Y3967D01*
X5806Y3955D01*
X5854Y3943D01*
X5889Y3931D01*
X5913Y3907D01*
X5925Y3883D01*
Y3848D01*
X5913Y3824D01*
X5901Y3812D01*
X5866Y3800D01*
X5818D01*
X5782Y3812D01*
X5770Y3824D01*
X5758Y3848D01*
Y3883D01*
X5770Y3907D01*
X5794Y3931D01*
X5830Y3943D01*
X5877Y3955D01*
X5901Y3967D01*
X5913Y3990D01*
Y4014D01*
X5901Y4038D01*
X5866Y4050D01*
X5818D01*
X6064D02*
Y3800D01*
X5981Y4050D02*
X6148D01*
X6249D02*
X6225Y4038D01*
X6201Y4014D01*
X6189Y3990D01*
X6177Y3955D01*
Y3895D01*
X6189Y3860D01*
X6201Y3836D01*
X6225Y3812D01*
X6249Y3800D01*
X6296D01*
X6320Y3812D01*
X6344Y3836D01*
X6356Y3860D01*
X6368Y3895D01*
Y3955D01*
X6356Y3990D01*
X6344Y4014D01*
X6320Y4038D01*
X6296Y4050D01*
X6249D01*
X6426D02*
Y3800D01*
Y4050D02*
X6533D01*
X6569Y4038D01*
X6581Y4026D01*
X6593Y4002D01*
Y3979D01*
X6581Y3955D01*
X6569Y3943D01*
X6533Y3931D01*
X6426D01*
X6509D02*
X6593Y3800D01*
X6815Y4014D02*
X6792Y4038D01*
X6756Y4050D01*
X6708D01*
X6673Y4038D01*
X6649Y4014D01*
Y3990D01*
X6661Y3967D01*
X6673Y3955D01*
X6696Y3943D01*
X6768Y3919D01*
X6792Y3907D01*
X6803Y3895D01*
X6815Y3871D01*
Y3836D01*
X6792Y3812D01*
X6756Y3800D01*
X6708D01*
X6673Y3812D01*
X6649Y3836D01*
M02*
