G04 Layer_Color=32896*
%FSLAX24Y24*%
%MOIN*%
G70*
G01*
G75*
%ADD17C,0.0039*%
G36*
X14513Y1957D02*
X14521D01*
X14530Y1955D01*
X14539Y1954D01*
X14549Y1953D01*
X14573Y1948D01*
X14598Y1940D01*
X14611Y1935D01*
X14624Y1931D01*
X14637Y1924D01*
X14650Y1917D01*
X14650Y1916D01*
X14653Y1915D01*
X14656Y1913D01*
X14660Y1909D01*
X14666Y1905D01*
X14673Y1899D01*
X14680Y1894D01*
X14688Y1886D01*
X14696Y1879D01*
X14704Y1870D01*
X14714Y1860D01*
X14723Y1849D01*
X14732Y1838D01*
X14740Y1826D01*
X14748Y1812D01*
X14756Y1799D01*
X14757Y1798D01*
X14758Y1795D01*
X14760Y1791D01*
X14763Y1785D01*
X14765Y1778D01*
X14769Y1769D01*
X14773Y1759D01*
X14777Y1749D01*
X14780Y1736D01*
X14784Y1723D01*
X14787Y1708D01*
X14790Y1694D01*
X14795Y1662D01*
X14796Y1644D01*
X14796Y1627D01*
Y1626D01*
Y1621D01*
X14796Y1615D01*
Y1606D01*
X14794Y1595D01*
X14792Y1582D01*
X14790Y1567D01*
X14787Y1552D01*
X14783Y1535D01*
X14778Y1517D01*
X14773Y1498D01*
X14765Y1480D01*
X14757Y1461D01*
X14747Y1441D01*
X14736Y1422D01*
X14723Y1404D01*
X14722Y1403D01*
X14720Y1401D01*
X14716Y1397D01*
X14712Y1392D01*
X14706Y1385D01*
X14699Y1379D01*
X14691Y1371D01*
X14682Y1364D01*
X14673Y1356D01*
X14662Y1348D01*
X14650Y1342D01*
X14639Y1336D01*
X14627Y1330D01*
X14613Y1326D01*
X14600Y1324D01*
X14586Y1323D01*
X14581D01*
X14575Y1324D01*
X14568Y1325D01*
X14559Y1327D01*
X14551Y1330D01*
X14544Y1334D01*
X14537Y1339D01*
X14536Y1340D01*
X14535Y1343D01*
X14532Y1347D01*
X14530Y1352D01*
X14527Y1360D01*
X14524Y1370D01*
X14522Y1380D01*
X14520Y1393D01*
X14519Y1392D01*
X14516Y1388D01*
X14511Y1382D01*
X14504Y1374D01*
X14496Y1366D01*
X14487Y1357D01*
X14477Y1348D01*
X14467Y1341D01*
X14466Y1340D01*
X14462Y1339D01*
X14457Y1335D01*
X14449Y1333D01*
X14441Y1330D01*
X14433Y1326D01*
X14423Y1325D01*
X14414Y1324D01*
X14409D01*
X14406Y1325D01*
X14396Y1326D01*
X14385Y1330D01*
X14371Y1335D01*
X14357Y1343D01*
X14349Y1348D01*
X14343Y1355D01*
X14335Y1361D01*
X14329Y1370D01*
X14328Y1371D01*
X14327Y1372D01*
X14325Y1375D01*
X14322Y1380D01*
X14319Y1385D01*
X14316Y1392D01*
X14312Y1400D01*
X14308Y1409D01*
X14304Y1419D01*
X14300Y1430D01*
X14297Y1441D01*
X14294Y1454D01*
X14291Y1468D01*
X14289Y1482D01*
X14288Y1498D01*
X14287Y1514D01*
Y1515D01*
Y1517D01*
Y1521D01*
X14288Y1526D01*
Y1533D01*
X14289Y1540D01*
X14290Y1548D01*
X14291Y1558D01*
X14294Y1580D01*
X14299Y1603D01*
X14307Y1627D01*
X14317Y1653D01*
Y1653D01*
X14318Y1656D01*
X14320Y1659D01*
X14322Y1664D01*
X14325Y1669D01*
X14328Y1676D01*
X14337Y1690D01*
X14348Y1707D01*
X14359Y1724D01*
X14373Y1740D01*
X14381Y1746D01*
X14388Y1753D01*
X14389D01*
X14390Y1754D01*
X14392Y1756D01*
X14395Y1758D01*
X14403Y1763D01*
X14413Y1769D01*
X14426Y1775D01*
X14439Y1781D01*
X14454Y1784D01*
X14468Y1785D01*
X14473D01*
X14479Y1785D01*
X14486Y1783D01*
X14495Y1781D01*
X14504Y1777D01*
X14515Y1772D01*
X14525Y1766D01*
X14527Y1765D01*
X14530Y1762D01*
X14535Y1758D01*
X14541Y1751D01*
X14549Y1743D01*
X14557Y1733D01*
X14565Y1721D01*
X14572Y1707D01*
X14584Y1772D01*
X14647D01*
X14596Y1487D01*
Y1486D01*
Y1484D01*
X14595Y1481D01*
X14595Y1478D01*
X14593Y1468D01*
X14591Y1457D01*
X14590Y1445D01*
X14588Y1434D01*
X14587Y1430D01*
Y1426D01*
X14586Y1423D01*
Y1421D01*
Y1421D01*
Y1420D01*
X14587Y1414D01*
X14589Y1407D01*
X14593Y1401D01*
X14595Y1400D01*
X14598Y1398D01*
X14604Y1394D01*
X14610Y1393D01*
X14611D01*
X14613Y1394D01*
X14618Y1395D01*
X14624Y1398D01*
X14632Y1401D01*
X14641Y1406D01*
X14651Y1413D01*
X14663Y1423D01*
X14665Y1425D01*
X14669Y1429D01*
X14676Y1435D01*
X14684Y1445D01*
X14693Y1457D01*
X14702Y1472D01*
X14712Y1489D01*
X14721Y1509D01*
Y1510D01*
X14722Y1512D01*
X14723Y1515D01*
X14725Y1519D01*
X14727Y1524D01*
X14728Y1530D01*
X14731Y1537D01*
X14733Y1545D01*
X14737Y1563D01*
X14741Y1583D01*
X14744Y1605D01*
X14745Y1628D01*
Y1629D01*
Y1631D01*
Y1635D01*
X14744Y1641D01*
Y1648D01*
X14743Y1655D01*
X14742Y1664D01*
X14741Y1673D01*
X14736Y1694D01*
X14731Y1717D01*
X14723Y1741D01*
X14712Y1764D01*
Y1765D01*
X14710Y1767D01*
X14709Y1770D01*
X14706Y1774D01*
X14703Y1780D01*
X14699Y1785D01*
X14688Y1799D01*
X14676Y1815D01*
X14660Y1831D01*
X14642Y1846D01*
X14622Y1860D01*
X14621Y1861D01*
X14619Y1862D01*
X14616Y1863D01*
X14612Y1866D01*
X14606Y1868D01*
X14600Y1871D01*
X14593Y1874D01*
X14585Y1877D01*
X14566Y1884D01*
X14545Y1889D01*
X14521Y1893D01*
X14496Y1894D01*
X14489D01*
X14483Y1894D01*
X14476Y1893D01*
X14468Y1892D01*
X14458Y1891D01*
X14449Y1889D01*
X14426Y1884D01*
X14401Y1876D01*
X14389Y1872D01*
X14376Y1866D01*
X14363Y1858D01*
X14351Y1851D01*
X14350Y1850D01*
X14349Y1849D01*
X14345Y1846D01*
X14340Y1843D01*
X14335Y1839D01*
X14328Y1833D01*
X14322Y1826D01*
X14313Y1819D01*
X14305Y1810D01*
X14297Y1800D01*
X14288Y1790D01*
X14280Y1778D01*
X14271Y1766D01*
X14263Y1753D01*
X14254Y1738D01*
X14246Y1722D01*
X14245Y1721D01*
X14244Y1718D01*
X14243Y1714D01*
X14240Y1708D01*
X14237Y1699D01*
X14234Y1689D01*
X14230Y1679D01*
X14226Y1666D01*
X14222Y1653D01*
X14219Y1637D01*
X14215Y1621D01*
X14212Y1604D01*
X14210Y1586D01*
X14208Y1567D01*
X14207Y1548D01*
X14206Y1528D01*
Y1527D01*
Y1523D01*
Y1518D01*
X14207Y1511D01*
Y1502D01*
X14208Y1492D01*
X14209Y1480D01*
X14211Y1467D01*
X14212Y1454D01*
X14215Y1439D01*
X14222Y1411D01*
X14231Y1380D01*
X14235Y1366D01*
X14242Y1352D01*
X14243Y1352D01*
X14244Y1349D01*
X14246Y1346D01*
X14249Y1341D01*
X14253Y1334D01*
X14257Y1328D01*
X14268Y1311D01*
X14283Y1294D01*
X14301Y1275D01*
X14322Y1258D01*
X14345Y1243D01*
X14346D01*
X14349Y1241D01*
X14352Y1239D01*
X14358Y1237D01*
X14364Y1234D01*
X14372Y1230D01*
X14381Y1227D01*
X14391Y1224D01*
X14403Y1220D01*
X14415Y1217D01*
X14428Y1214D01*
X14442Y1211D01*
X14458Y1208D01*
X14473Y1207D01*
X14490Y1206D01*
X14507Y1205D01*
X14515D01*
X14521Y1206D01*
X14528D01*
X14536Y1207D01*
X14546Y1208D01*
X14557Y1209D01*
X14580Y1214D01*
X14604Y1220D01*
X14629Y1229D01*
X14641Y1234D01*
X14654Y1240D01*
X14654Y1241D01*
X14656Y1242D01*
X14659Y1243D01*
X14664Y1247D01*
X14669Y1250D01*
X14676Y1254D01*
X14690Y1265D01*
X14705Y1279D01*
X14721Y1294D01*
X14736Y1312D01*
X14750Y1333D01*
X14814D01*
Y1332D01*
X14813Y1330D01*
X14811Y1328D01*
X14809Y1324D01*
X14807Y1320D01*
X14805Y1314D01*
X14797Y1302D01*
X14787Y1287D01*
X14776Y1270D01*
X14761Y1253D01*
X14745Y1235D01*
X14744Y1234D01*
X14742Y1233D01*
X14740Y1230D01*
X14736Y1228D01*
X14732Y1224D01*
X14727Y1219D01*
X14714Y1209D01*
X14698Y1197D01*
X14680Y1185D01*
X14660Y1175D01*
X14639Y1165D01*
X14638D01*
X14636Y1164D01*
X14633Y1162D01*
X14629Y1161D01*
X14623Y1160D01*
X14617Y1157D01*
X14609Y1156D01*
X14601Y1153D01*
X14591Y1151D01*
X14581Y1149D01*
X14559Y1145D01*
X14533Y1143D01*
X14506Y1142D01*
X14495D01*
X14488Y1143D01*
X14478Y1143D01*
X14468Y1144D01*
X14455Y1146D01*
X14441Y1147D01*
X14427Y1150D01*
X14412Y1152D01*
X14381Y1161D01*
X14365Y1166D01*
X14349Y1171D01*
X14334Y1179D01*
X14319Y1186D01*
X14318Y1187D01*
X14316Y1188D01*
X14312Y1191D01*
X14307Y1194D01*
X14300Y1199D01*
X14293Y1205D01*
X14285Y1211D01*
X14276Y1219D01*
X14266Y1228D01*
X14256Y1238D01*
X14246Y1248D01*
X14236Y1260D01*
X14226Y1272D01*
X14217Y1286D01*
X14208Y1301D01*
X14199Y1316D01*
X14198Y1317D01*
X14197Y1320D01*
X14194Y1325D01*
X14192Y1332D01*
X14189Y1340D01*
X14185Y1350D01*
X14181Y1361D01*
X14176Y1374D01*
X14172Y1389D01*
X14168Y1404D01*
X14165Y1421D01*
X14161Y1439D01*
X14158Y1458D01*
X14156Y1479D01*
X14155Y1500D01*
X14154Y1522D01*
Y1524D01*
Y1528D01*
Y1535D01*
X14155Y1544D01*
X14156Y1555D01*
X14157Y1568D01*
X14158Y1584D01*
X14160Y1599D01*
X14163Y1617D01*
X14166Y1635D01*
X14170Y1655D01*
X14175Y1675D01*
X14181Y1695D01*
X14187Y1715D01*
X14194Y1735D01*
X14203Y1755D01*
X14203Y1756D01*
X14205Y1760D01*
X14208Y1765D01*
X14212Y1772D01*
X14217Y1781D01*
X14222Y1790D01*
X14229Y1802D01*
X14236Y1813D01*
X14245Y1826D01*
X14254Y1838D01*
X14276Y1864D01*
X14287Y1876D01*
X14299Y1888D01*
X14313Y1899D01*
X14326Y1908D01*
X14326Y1909D01*
X14329Y1911D01*
X14333Y1913D01*
X14339Y1916D01*
X14346Y1920D01*
X14354Y1924D01*
X14364Y1928D01*
X14376Y1933D01*
X14388Y1938D01*
X14401Y1942D01*
X14415Y1946D01*
X14431Y1950D01*
X14447Y1953D01*
X14463Y1955D01*
X14481Y1957D01*
X14499Y1958D01*
X14508D01*
X14513Y1957D01*
D02*
G37*
G36*
X21123Y1325D02*
X21059D01*
Y1844D01*
X20910Y1325D01*
X20850D01*
X20702Y1853D01*
Y1325D01*
X20637D01*
Y1947D01*
X20738D01*
X20859Y1506D01*
X20883Y1414D01*
X20884Y1416D01*
X20885Y1421D01*
X20887Y1428D01*
X20890Y1439D01*
X20894Y1453D01*
X20899Y1471D01*
X20904Y1490D01*
X20910Y1513D01*
X21032Y1947D01*
X21123D01*
Y1325D01*
D02*
G37*
G36*
X21717D02*
X21652D01*
Y1844D01*
X21504Y1325D01*
X21443D01*
X21296Y1853D01*
Y1325D01*
X21231D01*
Y1947D01*
X21332D01*
X21453Y1506D01*
X21477Y1414D01*
X21478Y1416D01*
X21479Y1421D01*
X21481Y1428D01*
X21483Y1439D01*
X21488Y1453D01*
X21492Y1471D01*
X21497Y1490D01*
X21504Y1513D01*
X21626Y1947D01*
X21717D01*
Y1325D01*
D02*
G37*
G36*
X21908D02*
X21837D01*
Y1412D01*
X21908D01*
Y1325D01*
D02*
G37*
G36*
X18782Y1946D02*
X18789D01*
X18804Y1945D01*
X18822Y1943D01*
X18839Y1940D01*
X18855Y1935D01*
X18863Y1932D01*
X18869Y1929D01*
X18871Y1928D01*
X18875Y1926D01*
X18881Y1922D01*
X18889Y1915D01*
X18897Y1907D01*
X18907Y1897D01*
X18916Y1885D01*
X18924Y1871D01*
Y1870D01*
X18925Y1869D01*
X18927Y1867D01*
X18927Y1863D01*
X18932Y1855D01*
X18936Y1844D01*
X18939Y1831D01*
X18943Y1814D01*
X18946Y1797D01*
X18946Y1777D01*
Y1776D01*
Y1774D01*
Y1771D01*
X18946Y1766D01*
Y1759D01*
X18945Y1753D01*
X18941Y1736D01*
X18937Y1718D01*
X18931Y1699D01*
X18922Y1680D01*
X18916Y1671D01*
X18909Y1662D01*
Y1662D01*
X18908Y1661D01*
X18905Y1658D01*
X18903Y1656D01*
X18899Y1652D01*
X18894Y1648D01*
X18889Y1644D01*
X18882Y1639D01*
X18868Y1630D01*
X18849Y1621D01*
X18827Y1613D01*
X18803Y1607D01*
X18804Y1607D01*
X18808Y1604D01*
X18813Y1601D01*
X18818Y1597D01*
X18833Y1585D01*
X18840Y1580D01*
X18846Y1573D01*
X18848Y1571D01*
X18851Y1566D01*
X18857Y1559D01*
X18864Y1549D01*
X18872Y1538D01*
X18881Y1525D01*
X18890Y1509D01*
X18899Y1494D01*
X18988Y1325D01*
X18903D01*
X18835Y1453D01*
X18834Y1454D01*
X18833Y1457D01*
X18831Y1461D01*
X18828Y1466D01*
X18825Y1472D01*
X18822Y1479D01*
X18813Y1495D01*
X18803Y1512D01*
X18793Y1529D01*
X18783Y1544D01*
X18779Y1550D01*
X18775Y1556D01*
X18774Y1557D01*
X18772Y1560D01*
X18768Y1565D01*
X18763Y1570D01*
X18757Y1576D01*
X18750Y1582D01*
X18744Y1587D01*
X18736Y1591D01*
X18736Y1592D01*
X18733Y1593D01*
X18729Y1594D01*
X18722Y1596D01*
X18715Y1598D01*
X18706Y1599D01*
X18696Y1601D01*
X18606D01*
Y1325D01*
X18539D01*
Y1947D01*
X18776D01*
X18782Y1946D01*
D02*
G37*
G36*
X19135Y1325D02*
X19064D01*
Y1412D01*
X19135D01*
Y1325D01*
D02*
G37*
G36*
X19928D02*
X19857D01*
Y1412D01*
X19928D01*
Y1325D01*
D02*
G37*
G36*
X19135Y1689D02*
X19064D01*
Y1776D01*
X19135D01*
Y1689D01*
D02*
G37*
G36*
X10730Y1325D02*
X10663D01*
Y1618D01*
X10397D01*
Y1325D01*
X10330D01*
Y1947D01*
X10397D01*
Y1692D01*
X10663D01*
Y1947D01*
X10730D01*
Y1325D01*
D02*
G37*
G36*
X11274Y1957D02*
X11281Y1956D01*
X11288Y1955D01*
X11297Y1954D01*
X11306Y1952D01*
X11325Y1946D01*
X11336Y1943D01*
X11347Y1938D01*
X11358Y1932D01*
X11369Y1926D01*
X11379Y1919D01*
X11389Y1911D01*
X11390Y1910D01*
X11392Y1908D01*
X11394Y1906D01*
X11398Y1903D01*
X11402Y1898D01*
X11407Y1892D01*
X11413Y1885D01*
X11419Y1877D01*
X11424Y1868D01*
X11431Y1858D01*
X11437Y1847D01*
X11443Y1835D01*
X11449Y1822D01*
X11455Y1808D01*
X11460Y1793D01*
X11464Y1776D01*
X11397Y1758D01*
Y1759D01*
X11396Y1763D01*
X11393Y1770D01*
X11391Y1778D01*
X11386Y1788D01*
X11381Y1799D01*
X11374Y1810D01*
X11367Y1822D01*
X11359Y1835D01*
X11349Y1846D01*
X11338Y1857D01*
X11325Y1867D01*
X11311Y1875D01*
X11296Y1881D01*
X11279Y1885D01*
X11260Y1887D01*
X11252D01*
X11242Y1885D01*
X11230Y1884D01*
X11216Y1881D01*
X11201Y1876D01*
X11187Y1870D01*
X11172Y1861D01*
X11170Y1860D01*
X11166Y1856D01*
X11159Y1849D01*
X11151Y1841D01*
X11142Y1830D01*
X11132Y1815D01*
X11122Y1799D01*
X11113Y1779D01*
Y1778D01*
X11112Y1776D01*
X11111Y1773D01*
X11110Y1769D01*
X11108Y1763D01*
X11106Y1757D01*
X11104Y1749D01*
X11102Y1741D01*
X11100Y1731D01*
X11098Y1721D01*
X11096Y1709D01*
X11094Y1697D01*
X11093Y1684D01*
X11092Y1670D01*
X11091Y1639D01*
Y1638D01*
Y1634D01*
Y1627D01*
X11092Y1618D01*
X11092Y1607D01*
X11093Y1596D01*
X11095Y1582D01*
X11096Y1567D01*
X11101Y1536D01*
X11110Y1505D01*
X11115Y1489D01*
X11120Y1474D01*
X11128Y1461D01*
X11135Y1448D01*
X11136Y1447D01*
X11137Y1445D01*
X11140Y1442D01*
X11143Y1438D01*
X11148Y1433D01*
X11153Y1428D01*
X11160Y1422D01*
X11167Y1416D01*
X11175Y1410D01*
X11184Y1404D01*
X11194Y1399D01*
X11205Y1394D01*
X11216Y1390D01*
X11229Y1387D01*
X11241Y1385D01*
X11255Y1384D01*
X11260D01*
X11264Y1385D01*
X11269D01*
X11274Y1387D01*
X11288Y1389D01*
X11302Y1394D01*
X11318Y1401D01*
X11334Y1411D01*
X11342Y1416D01*
X11350Y1423D01*
X11351Y1424D01*
X11351Y1425D01*
X11354Y1427D01*
X11356Y1430D01*
X11360Y1434D01*
X11363Y1439D01*
X11367Y1446D01*
X11372Y1453D01*
X11376Y1461D01*
X11381Y1470D01*
X11385Y1480D01*
X11390Y1490D01*
X11394Y1502D01*
X11397Y1515D01*
X11401Y1528D01*
X11404Y1543D01*
X11472Y1522D01*
Y1521D01*
X11471Y1517D01*
X11470Y1512D01*
X11468Y1505D01*
X11465Y1496D01*
X11462Y1486D01*
X11458Y1475D01*
X11453Y1463D01*
X11443Y1437D01*
X11429Y1412D01*
X11412Y1386D01*
X11402Y1375D01*
X11393Y1365D01*
X11392Y1364D01*
X11390Y1362D01*
X11387Y1360D01*
X11383Y1357D01*
X11377Y1353D01*
X11370Y1348D01*
X11363Y1344D01*
X11355Y1339D01*
X11345Y1334D01*
X11335Y1330D01*
X11324Y1325D01*
X11311Y1322D01*
X11299Y1319D01*
X11285Y1316D01*
X11271Y1315D01*
X11256Y1314D01*
X11250D01*
X11244Y1315D01*
X11238D01*
X11231Y1316D01*
X11224Y1317D01*
X11215Y1318D01*
X11196Y1322D01*
X11175Y1329D01*
X11155Y1337D01*
X11135Y1348D01*
X11134Y1349D01*
X11133Y1350D01*
X11130Y1352D01*
X11127Y1355D01*
X11123Y1359D01*
X11118Y1363D01*
X11112Y1369D01*
X11106Y1375D01*
X11100Y1383D01*
X11093Y1390D01*
X11087Y1400D01*
X11079Y1410D01*
X11073Y1421D01*
X11066Y1433D01*
X11060Y1445D01*
X11053Y1459D01*
Y1460D01*
X11051Y1462D01*
X11050Y1466D01*
X11048Y1473D01*
X11046Y1480D01*
X11043Y1489D01*
X11040Y1498D01*
X11037Y1510D01*
X11034Y1523D01*
X11031Y1537D01*
X11028Y1552D01*
X11026Y1567D01*
X11024Y1585D01*
X11023Y1602D01*
X11021Y1639D01*
Y1640D01*
Y1644D01*
Y1649D01*
X11022Y1657D01*
Y1666D01*
X11023Y1676D01*
X11024Y1687D01*
X11025Y1699D01*
X11027Y1713D01*
X11029Y1727D01*
X11034Y1756D01*
X11042Y1785D01*
X11053Y1813D01*
Y1814D01*
X11055Y1817D01*
X11056Y1820D01*
X11059Y1825D01*
X11062Y1831D01*
X11066Y1838D01*
X11076Y1853D01*
X11088Y1871D01*
X11103Y1889D01*
X11120Y1906D01*
X11129Y1913D01*
X11139Y1921D01*
X11140Y1922D01*
X11142Y1922D01*
X11145Y1924D01*
X11149Y1926D01*
X11154Y1929D01*
X11160Y1932D01*
X11167Y1935D01*
X11175Y1940D01*
X11193Y1946D01*
X11215Y1952D01*
X11238Y1956D01*
X11250Y1958D01*
X11270D01*
X11274Y1957D01*
D02*
G37*
G36*
X20189Y1949D02*
X20194Y1948D01*
X20200Y1947D01*
X20215Y1944D01*
X20231Y1938D01*
X20249Y1930D01*
X20258Y1925D01*
X20267Y1919D01*
X20276Y1912D01*
X20284Y1904D01*
X20285Y1903D01*
X20285Y1901D01*
X20288Y1899D01*
X20290Y1895D01*
X20294Y1890D01*
X20298Y1885D01*
X20302Y1879D01*
X20306Y1872D01*
X20313Y1855D01*
X20321Y1835D01*
X20326Y1812D01*
X20326Y1801D01*
X20327Y1788D01*
Y1787D01*
Y1786D01*
Y1784D01*
Y1781D01*
X20326Y1772D01*
X20325Y1762D01*
X20322Y1751D01*
X20319Y1738D01*
X20315Y1725D01*
X20308Y1712D01*
X20308Y1711D01*
X20305Y1708D01*
X20301Y1701D01*
X20295Y1694D01*
X20288Y1686D01*
X20280Y1677D01*
X20269Y1669D01*
X20258Y1662D01*
X20259D01*
X20262Y1660D01*
X20268Y1658D01*
X20276Y1655D01*
X20283Y1651D01*
X20291Y1646D01*
X20300Y1639D01*
X20308Y1633D01*
X20308Y1632D01*
X20311Y1630D01*
X20314Y1626D01*
X20319Y1620D01*
X20324Y1612D01*
X20330Y1603D01*
X20335Y1593D01*
X20340Y1581D01*
X20340Y1580D01*
X20341Y1576D01*
X20344Y1569D01*
X20346Y1560D01*
X20348Y1549D01*
X20350Y1537D01*
X20351Y1523D01*
X20352Y1508D01*
Y1507D01*
Y1504D01*
Y1500D01*
X20351Y1494D01*
X20350Y1487D01*
X20349Y1478D01*
X20348Y1469D01*
X20345Y1458D01*
X20340Y1436D01*
X20335Y1425D01*
X20331Y1413D01*
X20325Y1401D01*
X20317Y1389D01*
X20310Y1379D01*
X20301Y1368D01*
X20300Y1367D01*
X20299Y1366D01*
X20296Y1363D01*
X20292Y1360D01*
X20287Y1356D01*
X20281Y1351D01*
X20275Y1346D01*
X20267Y1341D01*
X20249Y1331D01*
X20229Y1322D01*
X20217Y1319D01*
X20206Y1316D01*
X20194Y1315D01*
X20180Y1314D01*
X20174D01*
X20170Y1315D01*
X20164Y1316D01*
X20157Y1316D01*
X20142Y1320D01*
X20125Y1325D01*
X20115Y1330D01*
X20106Y1334D01*
X20096Y1339D01*
X20087Y1346D01*
X20078Y1353D01*
X20069Y1361D01*
X20068Y1362D01*
X20067Y1364D01*
X20065Y1366D01*
X20062Y1371D01*
X20058Y1375D01*
X20054Y1381D01*
X20050Y1388D01*
X20046Y1395D01*
X20041Y1404D01*
X20037Y1414D01*
X20033Y1424D01*
X20029Y1435D01*
X20025Y1448D01*
X20022Y1461D01*
X20020Y1475D01*
X20018Y1489D01*
X20080Y1499D01*
Y1498D01*
X20081Y1494D01*
X20083Y1488D01*
X20085Y1480D01*
X20087Y1471D01*
X20090Y1461D01*
X20095Y1449D01*
X20100Y1439D01*
X20106Y1427D01*
X20112Y1416D01*
X20121Y1406D01*
X20130Y1396D01*
X20140Y1389D01*
X20152Y1382D01*
X20165Y1379D01*
X20179Y1377D01*
X20183D01*
X20186Y1378D01*
X20194Y1379D01*
X20204Y1382D01*
X20217Y1386D01*
X20229Y1393D01*
X20241Y1402D01*
X20248Y1407D01*
X20253Y1413D01*
Y1414D01*
X20255Y1415D01*
X20258Y1420D01*
X20263Y1428D01*
X20270Y1439D01*
X20276Y1452D01*
X20280Y1468D01*
X20284Y1486D01*
X20285Y1507D01*
Y1507D01*
Y1509D01*
Y1512D01*
X20285Y1516D01*
Y1521D01*
X20284Y1525D01*
X20282Y1539D01*
X20278Y1553D01*
X20273Y1566D01*
X20266Y1581D01*
X20256Y1594D01*
X20254Y1596D01*
X20251Y1599D01*
X20244Y1605D01*
X20236Y1612D01*
X20226Y1617D01*
X20214Y1623D01*
X20200Y1626D01*
X20185Y1628D01*
X20182D01*
X20178Y1627D01*
X20173D01*
X20166Y1626D01*
X20159Y1624D01*
X20151Y1622D01*
X20141Y1619D01*
X20148Y1686D01*
X20158Y1685D01*
X20162D01*
X20166Y1685D01*
X20175Y1686D01*
X20185Y1688D01*
X20197Y1692D01*
X20209Y1697D01*
X20222Y1703D01*
X20234Y1713D01*
X20235Y1715D01*
X20239Y1718D01*
X20243Y1725D01*
X20249Y1734D01*
X20254Y1744D01*
X20258Y1758D01*
X20262Y1772D01*
X20263Y1790D01*
Y1790D01*
Y1791D01*
Y1794D01*
Y1797D01*
X20262Y1804D01*
X20260Y1815D01*
X20258Y1826D01*
X20253Y1837D01*
X20247Y1849D01*
X20239Y1859D01*
X20238Y1860D01*
X20235Y1863D01*
X20229Y1867D01*
X20222Y1873D01*
X20213Y1878D01*
X20203Y1882D01*
X20192Y1885D01*
X20180Y1886D01*
X20174D01*
X20166Y1885D01*
X20158Y1883D01*
X20148Y1880D01*
X20139Y1875D01*
X20128Y1867D01*
X20118Y1858D01*
X20117Y1857D01*
X20114Y1853D01*
X20110Y1847D01*
X20105Y1837D01*
X20100Y1826D01*
X20094Y1811D01*
X20090Y1794D01*
X20087Y1774D01*
X20025Y1788D01*
Y1789D01*
X20025Y1791D01*
X20026Y1795D01*
X20027Y1801D01*
X20029Y1808D01*
X20030Y1815D01*
X20033Y1824D01*
X20035Y1833D01*
X20043Y1853D01*
X20052Y1872D01*
X20063Y1891D01*
X20070Y1900D01*
X20077Y1908D01*
X20078Y1909D01*
X20079Y1910D01*
X20081Y1913D01*
X20085Y1915D01*
X20089Y1918D01*
X20094Y1922D01*
X20106Y1929D01*
X20120Y1936D01*
X20137Y1943D01*
X20157Y1948D01*
X20167Y1949D01*
X20178Y1949D01*
X20184D01*
X20189Y1949D01*
D02*
G37*
G36*
X12432Y1325D02*
X12363D01*
X12095Y1812D01*
Y1325D01*
X12030D01*
Y1947D01*
X12099D01*
X12367Y1458D01*
Y1947D01*
X12432D01*
Y1325D01*
D02*
G37*
G36*
X17949D02*
X17880D01*
X17612Y1812D01*
Y1325D01*
X17547D01*
Y1947D01*
X17616D01*
X17884Y1458D01*
Y1947D01*
X17949D01*
Y1325D01*
D02*
G37*
G36*
X11752Y1694D02*
X11976Y1325D01*
X11887D01*
X11705Y1639D01*
X11621Y1540D01*
Y1325D01*
X11554D01*
Y1947D01*
X11621D01*
Y1638D01*
X11875Y1947D01*
X11967D01*
X11752Y1694D01*
D02*
G37*
G36*
X18433Y1873D02*
X18132D01*
Y1684D01*
X18415D01*
Y1610D01*
X18132D01*
Y1398D01*
X18445D01*
Y1325D01*
X18065D01*
Y1947D01*
X18433D01*
Y1873D01*
D02*
G37*
G36*
X9246Y1325D02*
X9168D01*
X9109Y1513D01*
X8895D01*
X8840Y1325D01*
X8769D01*
X8964Y1947D01*
X9037D01*
X9246Y1325D01*
D02*
G37*
G36*
X9363Y1398D02*
X9615D01*
Y1325D01*
X9296D01*
Y1947D01*
X9363D01*
Y1398D01*
D02*
G37*
G36*
X10262Y1873D02*
X10093D01*
Y1325D01*
X10026D01*
Y1873D01*
X9857D01*
Y1947D01*
X10262D01*
Y1873D01*
D02*
G37*
G36*
X8756D02*
X8587D01*
Y1325D01*
X8520D01*
Y1873D01*
X8352D01*
Y1947D01*
X8756D01*
Y1873D01*
D02*
G37*
G36*
X8072Y1957D02*
X8077D01*
X8085Y1956D01*
X8092Y1954D01*
X8100Y1953D01*
X8119Y1949D01*
X8140Y1941D01*
X8161Y1932D01*
X8172Y1926D01*
X8182Y1919D01*
X8183Y1918D01*
X8185Y1917D01*
X8188Y1915D01*
X8191Y1912D01*
X8196Y1908D01*
X8202Y1903D01*
X8208Y1897D01*
X8214Y1890D01*
X8221Y1883D01*
X8228Y1875D01*
X8236Y1866D01*
X8243Y1856D01*
X8250Y1845D01*
X8258Y1833D01*
X8271Y1808D01*
Y1807D01*
X8272Y1804D01*
X8274Y1800D01*
X8276Y1794D01*
X8278Y1788D01*
X8281Y1780D01*
X8284Y1770D01*
X8287Y1759D01*
X8290Y1747D01*
X8293Y1734D01*
X8296Y1719D01*
X8299Y1704D01*
X8300Y1688D01*
X8302Y1671D01*
X8304Y1635D01*
Y1633D01*
Y1629D01*
Y1621D01*
X8303Y1612D01*
X8302Y1600D01*
X8300Y1586D01*
X8299Y1571D01*
X8295Y1555D01*
X8292Y1537D01*
X8288Y1519D01*
X8283Y1500D01*
X8277Y1481D01*
X8270Y1462D01*
X8261Y1444D01*
X8252Y1426D01*
X8240Y1409D01*
X8240Y1408D01*
X8237Y1405D01*
X8233Y1400D01*
X8228Y1394D01*
X8221Y1387D01*
X8213Y1379D01*
X8203Y1371D01*
X8192Y1361D01*
X8180Y1352D01*
X8166Y1344D01*
X8151Y1336D01*
X8135Y1329D01*
X8117Y1323D01*
X8099Y1318D01*
X8080Y1315D01*
X8059Y1314D01*
X8054D01*
X8049Y1315D01*
X8040Y1316D01*
X8031Y1317D01*
X8020Y1319D01*
X8008Y1322D01*
X7994Y1326D01*
X7980Y1331D01*
X7965Y1338D01*
X7950Y1346D01*
X7935Y1356D01*
X7920Y1366D01*
X7905Y1380D01*
X7891Y1395D01*
X7878Y1412D01*
X7877Y1413D01*
X7876Y1416D01*
X7872Y1421D01*
X7868Y1428D01*
X7863Y1437D01*
X7858Y1447D01*
X7853Y1459D01*
X7847Y1472D01*
X7841Y1488D01*
X7835Y1503D01*
X7830Y1521D01*
X7826Y1540D01*
X7821Y1561D01*
X7818Y1582D01*
X7816Y1604D01*
X7816Y1627D01*
Y1628D01*
Y1629D01*
Y1631D01*
Y1635D01*
X7816Y1643D01*
Y1653D01*
X7818Y1667D01*
X7820Y1682D01*
X7821Y1699D01*
X7825Y1717D01*
X7828Y1737D01*
X7833Y1757D01*
X7839Y1777D01*
X7845Y1798D01*
X7853Y1817D01*
X7862Y1836D01*
X7873Y1855D01*
X7885Y1872D01*
X7886Y1872D01*
X7889Y1876D01*
X7893Y1880D01*
X7898Y1885D01*
X7905Y1891D01*
X7913Y1899D01*
X7922Y1907D01*
X7934Y1915D01*
X7945Y1922D01*
X7958Y1931D01*
X7973Y1938D01*
X7989Y1945D01*
X8005Y1949D01*
X8022Y1954D01*
X8041Y1957D01*
X8060Y1958D01*
X8067D01*
X8072Y1957D01*
D02*
G37*
G36*
X19602Y1949D02*
X19608Y1948D01*
X19615Y1946D01*
X19632Y1941D01*
X19640Y1938D01*
X19650Y1934D01*
X19660Y1928D01*
X19669Y1922D01*
X19679Y1914D01*
X19688Y1905D01*
X19697Y1895D01*
X19705Y1884D01*
X19706Y1883D01*
X19707Y1880D01*
X19710Y1876D01*
X19713Y1869D01*
X19716Y1860D01*
X19721Y1849D01*
X19725Y1837D01*
X19730Y1822D01*
X19735Y1806D01*
X19739Y1787D01*
X19744Y1767D01*
X19747Y1744D01*
X19751Y1719D01*
X19753Y1692D01*
X19755Y1662D01*
X19756Y1631D01*
Y1630D01*
Y1630D01*
Y1627D01*
Y1625D01*
Y1617D01*
X19755Y1606D01*
X19754Y1593D01*
X19753Y1578D01*
X19752Y1561D01*
X19751Y1544D01*
X19748Y1525D01*
X19745Y1505D01*
X19738Y1466D01*
X19733Y1446D01*
X19727Y1428D01*
X19720Y1411D01*
X19713Y1394D01*
X19712Y1393D01*
X19711Y1391D01*
X19709Y1387D01*
X19705Y1382D01*
X19701Y1375D01*
X19696Y1369D01*
X19689Y1361D01*
X19682Y1354D01*
X19674Y1347D01*
X19665Y1339D01*
X19654Y1333D01*
X19643Y1326D01*
X19631Y1321D01*
X19618Y1317D01*
X19603Y1315D01*
X19588Y1314D01*
X19585D01*
X19582Y1315D01*
X19576D01*
X19570Y1316D01*
X19563Y1318D01*
X19555Y1320D01*
X19547Y1323D01*
X19538Y1326D01*
X19528Y1331D01*
X19518Y1337D01*
X19508Y1343D01*
X19498Y1352D01*
X19488Y1361D01*
X19479Y1372D01*
X19469Y1384D01*
X19469Y1385D01*
X19468Y1388D01*
X19465Y1392D01*
X19462Y1398D01*
X19459Y1407D01*
X19455Y1416D01*
X19451Y1428D01*
X19447Y1442D01*
X19442Y1458D01*
X19438Y1476D01*
X19434Y1496D01*
X19431Y1519D01*
X19428Y1544D01*
X19425Y1571D01*
X19424Y1599D01*
X19424Y1631D01*
Y1632D01*
Y1633D01*
Y1635D01*
Y1638D01*
Y1646D01*
X19424Y1657D01*
X19425Y1670D01*
X19426Y1685D01*
X19427Y1702D01*
X19429Y1720D01*
X19431Y1739D01*
X19433Y1758D01*
X19442Y1798D01*
X19446Y1817D01*
X19451Y1835D01*
X19458Y1853D01*
X19465Y1868D01*
X19466Y1869D01*
X19467Y1872D01*
X19469Y1876D01*
X19474Y1881D01*
X19478Y1887D01*
X19483Y1894D01*
X19489Y1901D01*
X19497Y1909D01*
X19505Y1917D01*
X19515Y1924D01*
X19524Y1931D01*
X19536Y1937D01*
X19547Y1942D01*
X19561Y1946D01*
X19575Y1949D01*
X19590Y1949D01*
X19597D01*
X19602Y1949D01*
D02*
G37*
G36*
X7766Y1873D02*
X7598D01*
Y1325D01*
X7530D01*
Y1873D01*
X7362D01*
Y1947D01*
X7766D01*
Y1873D01*
D02*
G37*
G36*
X16552D02*
X16275D01*
Y1681D01*
X16514D01*
Y1607D01*
X16275D01*
Y1325D01*
X16208D01*
Y1947D01*
X16552D01*
Y1873D01*
D02*
G37*
G36*
X16987D02*
X16710D01*
Y1681D01*
X16950D01*
Y1607D01*
X16710D01*
Y1325D01*
X16643D01*
Y1947D01*
X16987D01*
Y1873D01*
D02*
G37*
G36*
X17443D02*
X17142D01*
Y1684D01*
X17425D01*
Y1610D01*
X17142D01*
Y1398D01*
X17456D01*
Y1325D01*
X17075D01*
Y1947D01*
X17443D01*
Y1873D01*
D02*
G37*
G36*
X16085Y1325D02*
X16017D01*
Y1947D01*
X16085D01*
Y1325D01*
D02*
G37*
G36*
X10924D02*
X10857D01*
Y1947D01*
X10924D01*
Y1325D01*
D02*
G37*
G36*
X12916Y1873D02*
X12615D01*
Y1684D01*
X12898D01*
Y1610D01*
X12615D01*
Y1398D01*
X12928D01*
Y1325D01*
X12548D01*
Y1947D01*
X12916D01*
Y1873D01*
D02*
G37*
G36*
X15936D02*
X15767D01*
Y1325D01*
X15700D01*
Y1873D01*
X15532D01*
Y1947D01*
X15936D01*
Y1873D01*
D02*
G37*
G36*
X12941Y2641D02*
X12772D01*
Y2093D01*
X12704D01*
Y2641D01*
X12536D01*
Y2715D01*
X12941D01*
Y2641D01*
D02*
G37*
G36*
X13376D02*
X13207D01*
Y2093D01*
X13140D01*
Y2641D01*
X12972D01*
Y2715D01*
X13376D01*
Y2641D01*
D02*
G37*
G36*
X15347Y2093D02*
X15279D01*
Y2715D01*
X15347D01*
Y2093D01*
D02*
G37*
G36*
X10725Y2641D02*
X10424D01*
Y2452D01*
X10707D01*
Y2378D01*
X10424D01*
Y2167D01*
X10737D01*
Y2093D01*
X10357D01*
Y2715D01*
X10725D01*
Y2641D01*
D02*
G37*
G36*
X11074Y2714D02*
X11081D01*
X11096Y2713D01*
X11114Y2711D01*
X11131Y2708D01*
X11147Y2703D01*
X11155Y2700D01*
X11161Y2697D01*
X11163Y2696D01*
X11167Y2694D01*
X11173Y2690D01*
X11181Y2683D01*
X11189Y2675D01*
X11199Y2665D01*
X11208Y2653D01*
X11216Y2639D01*
Y2638D01*
X11217Y2637D01*
X11219Y2635D01*
X11219Y2632D01*
X11224Y2623D01*
X11228Y2612D01*
X11231Y2599D01*
X11235Y2582D01*
X11238Y2565D01*
X11238Y2545D01*
Y2545D01*
Y2542D01*
Y2539D01*
X11238Y2534D01*
Y2527D01*
X11237Y2521D01*
X11233Y2504D01*
X11229Y2486D01*
X11223Y2468D01*
X11214Y2449D01*
X11208Y2440D01*
X11201Y2431D01*
Y2430D01*
X11200Y2429D01*
X11197Y2427D01*
X11195Y2424D01*
X11191Y2420D01*
X11186Y2417D01*
X11181Y2412D01*
X11174Y2408D01*
X11160Y2398D01*
X11141Y2389D01*
X11119Y2381D01*
X11095Y2376D01*
X11096Y2375D01*
X11100Y2372D01*
X11105Y2369D01*
X11110Y2365D01*
X11125Y2354D01*
X11132Y2348D01*
X11138Y2341D01*
X11140Y2340D01*
X11143Y2335D01*
X11149Y2327D01*
X11156Y2317D01*
X11164Y2306D01*
X11173Y2293D01*
X11182Y2277D01*
X11191Y2262D01*
X11280Y2093D01*
X11195D01*
X11127Y2222D01*
X11126Y2222D01*
X11125Y2225D01*
X11123Y2229D01*
X11120Y2234D01*
X11117Y2240D01*
X11114Y2247D01*
X11105Y2263D01*
X11095Y2280D01*
X11085Y2297D01*
X11075Y2312D01*
X11071Y2318D01*
X11067Y2324D01*
X11066Y2325D01*
X11064Y2328D01*
X11060Y2333D01*
X11055Y2338D01*
X11049Y2345D01*
X11042Y2350D01*
X11036Y2355D01*
X11028Y2359D01*
X11028Y2360D01*
X11025Y2361D01*
X11021Y2363D01*
X11014Y2364D01*
X11007Y2366D01*
X10998Y2367D01*
X10988Y2369D01*
X10898D01*
Y2093D01*
X10831D01*
Y2715D01*
X11068D01*
X11074Y2714D01*
D02*
G37*
G36*
X11747D02*
X11752D01*
X11766Y2713D01*
X11780Y2711D01*
X11795Y2708D01*
X11810Y2703D01*
X11824Y2697D01*
X11825Y2696D01*
X11830Y2694D01*
X11836Y2690D01*
X11844Y2683D01*
X11853Y2676D01*
X11862Y2666D01*
X11871Y2654D01*
X11880Y2641D01*
X11880Y2639D01*
X11883Y2634D01*
X11887Y2626D01*
X11891Y2616D01*
X11894Y2604D01*
X11898Y2589D01*
X11901Y2573D01*
X11902Y2556D01*
Y2555D01*
Y2554D01*
Y2552D01*
Y2549D01*
X11901Y2540D01*
X11899Y2531D01*
X11897Y2518D01*
X11894Y2505D01*
X11889Y2492D01*
X11883Y2479D01*
X11882Y2477D01*
X11880Y2473D01*
X11875Y2467D01*
X11869Y2459D01*
X11862Y2450D01*
X11853Y2441D01*
X11843Y2432D01*
X11830Y2424D01*
X11831D01*
X11832Y2423D01*
X11834Y2422D01*
X11838Y2421D01*
X11846Y2417D01*
X11856Y2411D01*
X11867Y2404D01*
X11879Y2394D01*
X11889Y2382D01*
X11900Y2368D01*
Y2367D01*
X11901Y2367D01*
X11903Y2364D01*
X11904Y2362D01*
X11908Y2354D01*
X11913Y2342D01*
X11918Y2328D01*
X11922Y2312D01*
X11926Y2294D01*
X11926Y2273D01*
Y2272D01*
Y2271D01*
Y2267D01*
Y2263D01*
X11926Y2258D01*
Y2253D01*
X11923Y2240D01*
X11921Y2224D01*
X11916Y2208D01*
X11911Y2190D01*
X11903Y2174D01*
Y2173D01*
X11902Y2172D01*
X11898Y2167D01*
X11894Y2159D01*
X11886Y2150D01*
X11877Y2140D01*
X11867Y2130D01*
X11855Y2120D01*
X11841Y2112D01*
X11840D01*
X11839Y2111D01*
X11837Y2110D01*
X11834Y2108D01*
X11830Y2108D01*
X11825Y2106D01*
X11813Y2103D01*
X11798Y2099D01*
X11780Y2096D01*
X11759Y2094D01*
X11735Y2093D01*
X11541D01*
Y2715D01*
X11742D01*
X11747Y2714D01*
D02*
G37*
G36*
X15661D02*
X15675Y2714D01*
X15692Y2713D01*
X15708Y2710D01*
X15724Y2708D01*
X15738Y2704D01*
X15739D01*
X15739Y2703D01*
X15742Y2702D01*
X15745Y2700D01*
X15753Y2696D01*
X15764Y2691D01*
X15776Y2683D01*
X15789Y2674D01*
X15802Y2663D01*
X15815Y2649D01*
Y2648D01*
X15816Y2647D01*
X15818Y2645D01*
X15821Y2641D01*
X15826Y2633D01*
X15834Y2622D01*
X15842Y2607D01*
X15850Y2591D01*
X15858Y2571D01*
X15866Y2550D01*
Y2549D01*
X15866Y2547D01*
X15867Y2544D01*
X15869Y2539D01*
X15870Y2533D01*
X15871Y2527D01*
X15873Y2518D01*
X15875Y2509D01*
X15877Y2499D01*
X15879Y2488D01*
X15880Y2477D01*
X15881Y2464D01*
X15884Y2437D01*
X15884Y2407D01*
Y2406D01*
Y2402D01*
Y2397D01*
X15884Y2389D01*
Y2380D01*
X15883Y2369D01*
X15882Y2358D01*
X15880Y2345D01*
X15879Y2331D01*
X15877Y2317D01*
X15871Y2286D01*
X15864Y2256D01*
X15853Y2227D01*
Y2226D01*
X15852Y2224D01*
X15850Y2221D01*
X15848Y2216D01*
X15844Y2209D01*
X15841Y2203D01*
X15832Y2187D01*
X15821Y2170D01*
X15807Y2153D01*
X15791Y2136D01*
X15783Y2130D01*
X15774Y2123D01*
X15773D01*
X15771Y2121D01*
X15769Y2121D01*
X15765Y2118D01*
X15760Y2116D01*
X15754Y2113D01*
X15748Y2111D01*
X15740Y2108D01*
X15731Y2105D01*
X15721Y2103D01*
X15711Y2100D01*
X15700Y2098D01*
X15675Y2094D01*
X15647Y2093D01*
X15463D01*
Y2715D01*
X15655D01*
X15661Y2714D01*
D02*
G37*
G36*
X10241Y2093D02*
X10172D01*
X9904Y2580D01*
Y2093D01*
X9839D01*
Y2715D01*
X9908D01*
X10176Y2226D01*
Y2715D01*
X10241D01*
Y2093D01*
D02*
G37*
G36*
X7577Y2725D02*
X7583D01*
X7596Y2723D01*
X7611Y2720D01*
X7628Y2716D01*
X7645Y2710D01*
X7661Y2703D01*
X7662D01*
X7663Y2702D01*
X7669Y2699D01*
X7676Y2694D01*
X7686Y2686D01*
X7696Y2677D01*
X7707Y2666D01*
X7718Y2653D01*
X7727Y2638D01*
Y2637D01*
X7728Y2636D01*
X7730Y2634D01*
X7731Y2631D01*
X7733Y2627D01*
X7734Y2622D01*
X7739Y2610D01*
X7744Y2595D01*
X7748Y2579D01*
X7752Y2560D01*
X7753Y2540D01*
X7689Y2534D01*
Y2535D01*
Y2536D01*
X7689Y2540D01*
X7688Y2544D01*
X7687Y2549D01*
X7686Y2554D01*
X7683Y2568D01*
X7678Y2582D01*
X7671Y2597D01*
X7663Y2611D01*
X7652Y2623D01*
X7651Y2625D01*
X7647Y2628D01*
X7639Y2632D01*
X7630Y2638D01*
X7617Y2644D01*
X7602Y2648D01*
X7584Y2651D01*
X7565Y2653D01*
X7555D01*
X7550Y2652D01*
X7545Y2651D01*
X7532Y2650D01*
X7517Y2646D01*
X7503Y2642D01*
X7488Y2636D01*
X7476Y2627D01*
X7475Y2626D01*
X7471Y2622D01*
X7467Y2617D01*
X7461Y2609D01*
X7456Y2600D01*
X7452Y2588D01*
X7448Y2575D01*
X7447Y2560D01*
Y2559D01*
Y2554D01*
X7447Y2547D01*
X7449Y2539D01*
X7452Y2530D01*
X7456Y2520D01*
X7461Y2511D01*
X7468Y2502D01*
X7469Y2501D01*
X7473Y2499D01*
X7479Y2495D01*
X7484Y2492D01*
X7488Y2489D01*
X7495Y2486D01*
X7502Y2483D01*
X7511Y2479D01*
X7520Y2476D01*
X7529Y2472D01*
X7542Y2468D01*
X7554Y2464D01*
X7568Y2460D01*
X7569D01*
X7571Y2459D01*
X7575Y2458D01*
X7580Y2457D01*
X7586Y2455D01*
X7593Y2453D01*
X7610Y2448D01*
X7627Y2442D01*
X7644Y2436D01*
X7661Y2430D01*
X7667Y2427D01*
X7674Y2424D01*
X7675D01*
X7676Y2423D01*
X7678Y2422D01*
X7681Y2420D01*
X7690Y2414D01*
X7700Y2408D01*
X7712Y2398D01*
X7723Y2387D01*
X7734Y2375D01*
X7744Y2361D01*
Y2360D01*
X7745Y2359D01*
X7747Y2357D01*
X7748Y2354D01*
X7753Y2346D01*
X7757Y2335D01*
X7762Y2322D01*
X7765Y2306D01*
X7768Y2289D01*
X7769Y2269D01*
Y2268D01*
Y2267D01*
Y2264D01*
Y2260D01*
X7768Y2255D01*
X7767Y2249D01*
X7766Y2236D01*
X7762Y2222D01*
X7758Y2205D01*
X7752Y2188D01*
X7744Y2171D01*
Y2170D01*
X7743Y2169D01*
X7741Y2167D01*
X7739Y2163D01*
X7733Y2156D01*
X7725Y2146D01*
X7716Y2135D01*
X7704Y2125D01*
X7690Y2114D01*
X7675Y2104D01*
X7674D01*
X7673Y2103D01*
X7671Y2103D01*
X7667Y2101D01*
X7663Y2099D01*
X7658Y2097D01*
X7646Y2094D01*
X7630Y2089D01*
X7613Y2085D01*
X7593Y2083D01*
X7571Y2082D01*
X7562D01*
X7556Y2083D01*
X7548Y2084D01*
X7539Y2085D01*
X7528Y2087D01*
X7516Y2089D01*
X7505Y2092D01*
X7493Y2096D01*
X7480Y2100D01*
X7467Y2106D01*
X7455Y2112D01*
X7443Y2120D01*
X7430Y2129D01*
X7420Y2139D01*
X7419Y2140D01*
X7417Y2141D01*
X7415Y2144D01*
X7411Y2149D01*
X7406Y2155D01*
X7402Y2162D01*
X7397Y2171D01*
X7392Y2180D01*
X7386Y2190D01*
X7381Y2202D01*
X7376Y2215D01*
X7372Y2229D01*
X7368Y2244D01*
X7365Y2259D01*
X7363Y2276D01*
X7362Y2294D01*
X7426Y2300D01*
Y2299D01*
Y2298D01*
X7427Y2295D01*
Y2292D01*
X7429Y2282D01*
X7431Y2271D01*
X7434Y2258D01*
X7438Y2244D01*
X7443Y2231D01*
X7449Y2220D01*
X7450Y2218D01*
X7452Y2215D01*
X7456Y2210D01*
X7462Y2203D01*
X7470Y2196D01*
X7478Y2189D01*
X7488Y2181D01*
X7500Y2174D01*
X7502Y2173D01*
X7506Y2171D01*
X7513Y2168D01*
X7522Y2166D01*
X7534Y2162D01*
X7547Y2159D01*
X7561Y2158D01*
X7576Y2157D01*
X7582D01*
X7586Y2158D01*
X7591D01*
X7597Y2158D01*
X7611Y2160D01*
X7625Y2164D01*
X7641Y2169D01*
X7656Y2176D01*
X7670Y2185D01*
X7671Y2187D01*
X7675Y2191D01*
X7680Y2197D01*
X7687Y2206D01*
X7693Y2217D01*
X7698Y2230D01*
X7702Y2245D01*
X7703Y2262D01*
Y2263D01*
Y2267D01*
X7703Y2272D01*
X7702Y2278D01*
X7700Y2285D01*
X7698Y2294D01*
X7695Y2302D01*
X7691Y2310D01*
X7690Y2311D01*
X7689Y2313D01*
X7686Y2317D01*
X7682Y2322D01*
X7676Y2327D01*
X7671Y2333D01*
X7663Y2339D01*
X7654Y2344D01*
X7653Y2345D01*
X7649Y2346D01*
X7646Y2348D01*
X7642Y2349D01*
X7638Y2351D01*
X7632Y2354D01*
X7625Y2356D01*
X7617Y2358D01*
X7609Y2362D01*
X7599Y2365D01*
X7589Y2368D01*
X7576Y2372D01*
X7563Y2376D01*
X7548Y2381D01*
X7548D01*
X7545Y2381D01*
X7542Y2383D01*
X7537Y2385D01*
X7530Y2386D01*
X7524Y2389D01*
X7508Y2394D01*
X7492Y2400D01*
X7475Y2408D01*
X7459Y2415D01*
X7452Y2419D01*
X7446Y2423D01*
X7444Y2424D01*
X7441Y2427D01*
X7435Y2432D01*
X7429Y2439D01*
X7421Y2446D01*
X7413Y2456D01*
X7406Y2467D01*
X7398Y2478D01*
X7397Y2480D01*
X7396Y2484D01*
X7393Y2491D01*
X7390Y2500D01*
X7387Y2512D01*
X7384Y2524D01*
X7383Y2538D01*
X7382Y2554D01*
Y2554D01*
Y2557D01*
Y2561D01*
X7383Y2566D01*
X7384Y2572D01*
X7384Y2581D01*
X7386Y2589D01*
X7388Y2598D01*
X7393Y2618D01*
X7397Y2627D01*
X7402Y2638D01*
X7408Y2649D01*
X7415Y2659D01*
X7422Y2668D01*
X7430Y2677D01*
X7431Y2678D01*
X7433Y2680D01*
X7435Y2682D01*
X7439Y2685D01*
X7444Y2689D01*
X7450Y2693D01*
X7457Y2697D01*
X7466Y2702D01*
X7475Y2706D01*
X7484Y2710D01*
X7495Y2714D01*
X7507Y2718D01*
X7520Y2722D01*
X7533Y2723D01*
X7548Y2725D01*
X7562Y2726D01*
X7572D01*
X7577Y2725D01*
D02*
G37*
G36*
X14982D02*
X14988D01*
X15001Y2723D01*
X15017Y2720D01*
X15033Y2716D01*
X15051Y2710D01*
X15067Y2703D01*
X15068D01*
X15069Y2702D01*
X15074Y2699D01*
X15082Y2694D01*
X15092Y2686D01*
X15101Y2677D01*
X15113Y2666D01*
X15124Y2653D01*
X15133Y2638D01*
Y2637D01*
X15133Y2636D01*
X15135Y2634D01*
X15137Y2631D01*
X15138Y2627D01*
X15140Y2622D01*
X15145Y2610D01*
X15150Y2595D01*
X15154Y2579D01*
X15157Y2560D01*
X15159Y2540D01*
X15095Y2534D01*
Y2535D01*
Y2536D01*
X15094Y2540D01*
X15093Y2544D01*
X15092Y2549D01*
X15092Y2554D01*
X15088Y2568D01*
X15083Y2582D01*
X15077Y2597D01*
X15069Y2611D01*
X15058Y2623D01*
X15056Y2625D01*
X15052Y2628D01*
X15045Y2632D01*
X15035Y2638D01*
X15023Y2644D01*
X15008Y2648D01*
X14990Y2651D01*
X14970Y2653D01*
X14960D01*
X14955Y2652D01*
X14950Y2651D01*
X14937Y2650D01*
X14923Y2646D01*
X14909Y2642D01*
X14894Y2636D01*
X14882Y2627D01*
X14880Y2626D01*
X14877Y2622D01*
X14873Y2617D01*
X14867Y2609D01*
X14861Y2600D01*
X14857Y2588D01*
X14854Y2575D01*
X14852Y2560D01*
Y2559D01*
Y2554D01*
X14853Y2547D01*
X14855Y2539D01*
X14857Y2530D01*
X14861Y2520D01*
X14866Y2511D01*
X14873Y2502D01*
X14874Y2501D01*
X14878Y2499D01*
X14885Y2495D01*
X14889Y2492D01*
X14894Y2489D01*
X14900Y2486D01*
X14908Y2483D01*
X14916Y2479D01*
X14925Y2476D01*
X14935Y2472D01*
X14947Y2468D01*
X14959Y2464D01*
X14973Y2460D01*
X14974D01*
X14977Y2459D01*
X14981Y2458D01*
X14986Y2457D01*
X14991Y2455D01*
X14999Y2453D01*
X15015Y2448D01*
X15032Y2442D01*
X15050Y2436D01*
X15066Y2430D01*
X15073Y2427D01*
X15079Y2424D01*
X15080D01*
X15082Y2423D01*
X15083Y2422D01*
X15087Y2420D01*
X15096Y2414D01*
X15105Y2408D01*
X15117Y2398D01*
X15128Y2387D01*
X15140Y2375D01*
X15150Y2361D01*
Y2360D01*
X15151Y2359D01*
X15152Y2357D01*
X15154Y2354D01*
X15158Y2346D01*
X15162Y2335D01*
X15167Y2322D01*
X15170Y2306D01*
X15174Y2289D01*
X15174Y2269D01*
Y2268D01*
Y2267D01*
Y2264D01*
Y2260D01*
X15174Y2255D01*
X15173Y2249D01*
X15171Y2236D01*
X15168Y2222D01*
X15164Y2205D01*
X15157Y2188D01*
X15149Y2171D01*
Y2170D01*
X15148Y2169D01*
X15146Y2167D01*
X15144Y2163D01*
X15138Y2156D01*
X15131Y2146D01*
X15121Y2135D01*
X15110Y2125D01*
X15096Y2114D01*
X15080Y2104D01*
X15079D01*
X15078Y2103D01*
X15076Y2103D01*
X15073Y2101D01*
X15069Y2099D01*
X15064Y2097D01*
X15051Y2094D01*
X15036Y2089D01*
X15019Y2085D01*
X14999Y2083D01*
X14977Y2082D01*
X14968D01*
X14961Y2083D01*
X14953Y2084D01*
X14944Y2085D01*
X14933Y2087D01*
X14922Y2089D01*
X14910Y2092D01*
X14898Y2096D01*
X14886Y2100D01*
X14873Y2106D01*
X14860Y2112D01*
X14848Y2120D01*
X14836Y2129D01*
X14825Y2139D01*
X14824Y2140D01*
X14823Y2141D01*
X14820Y2144D01*
X14816Y2149D01*
X14812Y2155D01*
X14807Y2162D01*
X14802Y2171D01*
X14797Y2180D01*
X14791Y2190D01*
X14786Y2202D01*
X14782Y2215D01*
X14777Y2229D01*
X14773Y2244D01*
X14771Y2259D01*
X14768Y2276D01*
X14768Y2294D01*
X14832Y2300D01*
Y2299D01*
Y2298D01*
X14832Y2295D01*
Y2292D01*
X14834Y2282D01*
X14836Y2271D01*
X14840Y2258D01*
X14843Y2244D01*
X14849Y2231D01*
X14855Y2220D01*
X14855Y2218D01*
X14858Y2215D01*
X14862Y2210D01*
X14868Y2203D01*
X14875Y2196D01*
X14883Y2189D01*
X14894Y2181D01*
X14905Y2174D01*
X14907Y2173D01*
X14911Y2171D01*
X14919Y2168D01*
X14928Y2166D01*
X14939Y2162D01*
X14952Y2159D01*
X14966Y2158D01*
X14982Y2157D01*
X14987D01*
X14991Y2158D01*
X14996D01*
X15002Y2158D01*
X15016Y2160D01*
X15031Y2164D01*
X15046Y2169D01*
X15061Y2176D01*
X15075Y2185D01*
X15077Y2187D01*
X15080Y2191D01*
X15086Y2197D01*
X15092Y2206D01*
X15098Y2217D01*
X15104Y2230D01*
X15107Y2245D01*
X15109Y2262D01*
Y2263D01*
Y2267D01*
X15108Y2272D01*
X15107Y2278D01*
X15105Y2285D01*
X15104Y2294D01*
X15101Y2302D01*
X15096Y2310D01*
X15096Y2311D01*
X15094Y2313D01*
X15092Y2317D01*
X15087Y2322D01*
X15082Y2327D01*
X15076Y2333D01*
X15069Y2339D01*
X15060Y2344D01*
X15059Y2345D01*
X15055Y2346D01*
X15051Y2348D01*
X15047Y2349D01*
X15043Y2351D01*
X15037Y2354D01*
X15031Y2356D01*
X15023Y2358D01*
X15014Y2362D01*
X15005Y2365D01*
X14994Y2368D01*
X14982Y2372D01*
X14969Y2376D01*
X14954Y2381D01*
X14953D01*
X14950Y2381D01*
X14947Y2383D01*
X14942Y2385D01*
X14936Y2386D01*
X14929Y2389D01*
X14914Y2394D01*
X14897Y2400D01*
X14880Y2408D01*
X14864Y2415D01*
X14858Y2419D01*
X14851Y2423D01*
X14850Y2424D01*
X14846Y2427D01*
X14841Y2432D01*
X14834Y2439D01*
X14827Y2446D01*
X14818Y2456D01*
X14811Y2467D01*
X14804Y2478D01*
X14803Y2480D01*
X14801Y2484D01*
X14799Y2491D01*
X14796Y2500D01*
X14792Y2512D01*
X14790Y2524D01*
X14788Y2538D01*
X14787Y2554D01*
Y2554D01*
Y2557D01*
Y2561D01*
X14788Y2566D01*
X14789Y2572D01*
X14790Y2581D01*
X14791Y2589D01*
X14793Y2598D01*
X14799Y2618D01*
X14803Y2627D01*
X14808Y2638D01*
X14814Y2649D01*
X14820Y2659D01*
X14827Y2668D01*
X14836Y2677D01*
X14836Y2678D01*
X14838Y2680D01*
X14841Y2682D01*
X14845Y2685D01*
X14850Y2689D01*
X14855Y2693D01*
X14863Y2697D01*
X14871Y2702D01*
X14880Y2706D01*
X14890Y2710D01*
X14900Y2714D01*
X14912Y2718D01*
X14925Y2722D01*
X14938Y2723D01*
X14953Y2725D01*
X14968Y2726D01*
X14978D01*
X14982Y2725D01*
D02*
G37*
G36*
X16349Y2641D02*
X16048D01*
Y2452D01*
X16331D01*
Y2378D01*
X16048D01*
Y2167D01*
X16361D01*
Y2093D01*
X15980D01*
Y2715D01*
X16349D01*
Y2641D01*
D02*
G37*
G36*
X16536Y2093D02*
X16465D01*
Y2180D01*
X16536D01*
Y2093D01*
D02*
G37*
G36*
X14483D02*
X14418D01*
Y2613D01*
X14270Y2093D01*
X14209D01*
X14062Y2622D01*
Y2093D01*
X13997D01*
Y2715D01*
X14098D01*
X14219Y2274D01*
X14243Y2182D01*
X14244Y2184D01*
X14244Y2189D01*
X14247Y2196D01*
X14249Y2208D01*
X14253Y2222D01*
X14258Y2239D01*
X14263Y2258D01*
X14270Y2281D01*
X14392Y2715D01*
X14483D01*
Y2093D01*
D02*
G37*
G36*
X8228Y2641D02*
X8059D01*
Y2093D01*
X7992D01*
Y2641D01*
X7824D01*
Y2715D01*
X8228D01*
Y2641D01*
D02*
G37*
G36*
X8377Y2093D02*
X8309D01*
Y2715D01*
X8377D01*
Y2093D01*
D02*
G37*
G36*
X13681Y2725D02*
X13687D01*
X13694Y2724D01*
X13702Y2723D01*
X13710Y2721D01*
X13729Y2717D01*
X13749Y2709D01*
X13771Y2700D01*
X13781Y2694D01*
X13792Y2687D01*
X13793Y2686D01*
X13794Y2686D01*
X13798Y2683D01*
X13801Y2680D01*
X13806Y2676D01*
X13812Y2671D01*
X13817Y2665D01*
X13824Y2659D01*
X13830Y2651D01*
X13838Y2643D01*
X13845Y2634D01*
X13853Y2624D01*
X13860Y2613D01*
X13867Y2601D01*
X13880Y2576D01*
Y2575D01*
X13882Y2572D01*
X13884Y2568D01*
X13885Y2563D01*
X13888Y2556D01*
X13891Y2548D01*
X13894Y2538D01*
X13897Y2527D01*
X13900Y2515D01*
X13903Y2502D01*
X13906Y2487D01*
X13908Y2472D01*
X13910Y2456D01*
X13912Y2439D01*
X13913Y2403D01*
Y2401D01*
Y2397D01*
Y2390D01*
X13912Y2380D01*
X13912Y2368D01*
X13910Y2354D01*
X13908Y2340D01*
X13905Y2323D01*
X13902Y2305D01*
X13898Y2287D01*
X13893Y2268D01*
X13887Y2249D01*
X13880Y2231D01*
X13871Y2212D01*
X13862Y2194D01*
X13850Y2177D01*
X13849Y2176D01*
X13847Y2173D01*
X13843Y2168D01*
X13838Y2162D01*
X13830Y2155D01*
X13822Y2147D01*
X13812Y2139D01*
X13802Y2130D01*
X13789Y2121D01*
X13775Y2112D01*
X13761Y2104D01*
X13744Y2097D01*
X13727Y2091D01*
X13709Y2086D01*
X13689Y2083D01*
X13669Y2082D01*
X13664D01*
X13658Y2083D01*
X13650Y2084D01*
X13640Y2085D01*
X13629Y2087D01*
X13617Y2090D01*
X13604Y2094D01*
X13589Y2099D01*
X13575Y2106D01*
X13560Y2114D01*
X13545Y2124D01*
X13529Y2135D01*
X13515Y2148D01*
X13501Y2163D01*
X13488Y2181D01*
X13487Y2181D01*
X13485Y2185D01*
X13482Y2190D01*
X13478Y2196D01*
X13473Y2205D01*
X13468Y2215D01*
X13462Y2227D01*
X13456Y2240D01*
X13451Y2256D01*
X13445Y2272D01*
X13440Y2290D01*
X13435Y2308D01*
X13431Y2329D01*
X13428Y2350D01*
X13426Y2372D01*
X13425Y2395D01*
Y2396D01*
Y2397D01*
Y2399D01*
Y2403D01*
X13426Y2411D01*
Y2422D01*
X13428Y2435D01*
X13429Y2450D01*
X13431Y2468D01*
X13434Y2486D01*
X13438Y2505D01*
X13443Y2525D01*
X13448Y2545D01*
X13455Y2566D01*
X13463Y2586D01*
X13472Y2604D01*
X13483Y2623D01*
X13495Y2640D01*
X13496Y2641D01*
X13498Y2644D01*
X13502Y2648D01*
X13507Y2653D01*
X13515Y2659D01*
X13523Y2667D01*
X13532Y2675D01*
X13543Y2683D01*
X13555Y2691D01*
X13568Y2699D01*
X13583Y2706D01*
X13598Y2713D01*
X13615Y2718D01*
X13632Y2723D01*
X13651Y2725D01*
X13670Y2726D01*
X13676D01*
X13681Y2725D01*
D02*
G37*
G36*
X12256D02*
X12262D01*
X12269Y2724D01*
X12276Y2723D01*
X12285Y2721D01*
X12304Y2717D01*
X12324Y2709D01*
X12345Y2700D01*
X12356Y2694D01*
X12367Y2687D01*
X12367Y2686D01*
X12369Y2686D01*
X12372Y2683D01*
X12376Y2680D01*
X12381Y2676D01*
X12386Y2671D01*
X12392Y2665D01*
X12399Y2659D01*
X12405Y2651D01*
X12413Y2643D01*
X12420Y2634D01*
X12427Y2624D01*
X12435Y2613D01*
X12442Y2601D01*
X12455Y2576D01*
Y2575D01*
X12457Y2572D01*
X12459Y2568D01*
X12460Y2563D01*
X12463Y2556D01*
X12466Y2548D01*
X12468Y2538D01*
X12472Y2527D01*
X12475Y2515D01*
X12477Y2502D01*
X12481Y2487D01*
X12483Y2472D01*
X12485Y2456D01*
X12486Y2439D01*
X12488Y2403D01*
Y2401D01*
Y2397D01*
Y2390D01*
X12487Y2380D01*
X12486Y2368D01*
X12485Y2354D01*
X12483Y2340D01*
X12480Y2323D01*
X12477Y2305D01*
X12472Y2287D01*
X12468Y2268D01*
X12462Y2249D01*
X12454Y2231D01*
X12445Y2212D01*
X12436Y2194D01*
X12425Y2177D01*
X12424Y2176D01*
X12422Y2173D01*
X12418Y2168D01*
X12413Y2162D01*
X12405Y2155D01*
X12397Y2147D01*
X12387Y2139D01*
X12377Y2130D01*
X12364Y2121D01*
X12350Y2112D01*
X12336Y2104D01*
X12319Y2097D01*
X12302Y2091D01*
X12284Y2086D01*
X12264Y2083D01*
X12244Y2082D01*
X12239D01*
X12233Y2083D01*
X12225Y2084D01*
X12215Y2085D01*
X12204Y2087D01*
X12192Y2090D01*
X12179Y2094D01*
X12164Y2099D01*
X12149Y2106D01*
X12135Y2114D01*
X12120Y2124D01*
X12104Y2135D01*
X12090Y2148D01*
X12076Y2163D01*
X12062Y2181D01*
X12062Y2181D01*
X12060Y2185D01*
X12057Y2190D01*
X12053Y2196D01*
X12048Y2205D01*
X12043Y2215D01*
X12037Y2227D01*
X12031Y2240D01*
X12026Y2256D01*
X12020Y2272D01*
X12015Y2290D01*
X12010Y2308D01*
X12006Y2329D01*
X12003Y2350D01*
X12001Y2372D01*
X12000Y2395D01*
Y2396D01*
Y2397D01*
Y2399D01*
Y2403D01*
X12001Y2411D01*
Y2422D01*
X12003Y2435D01*
X12004Y2450D01*
X12006Y2468D01*
X12009Y2486D01*
X12012Y2505D01*
X12017Y2525D01*
X12023Y2545D01*
X12030Y2566D01*
X12038Y2586D01*
X12047Y2604D01*
X12058Y2623D01*
X12070Y2640D01*
X12071Y2641D01*
X12073Y2644D01*
X12077Y2648D01*
X12082Y2653D01*
X12090Y2659D01*
X12098Y2667D01*
X12107Y2675D01*
X12118Y2683D01*
X12130Y2691D01*
X12143Y2699D01*
X12158Y2706D01*
X12173Y2713D01*
X12190Y2718D01*
X12207Y2723D01*
X12226Y2725D01*
X12244Y2726D01*
X12251D01*
X12256Y2725D01*
D02*
G37*
G36*
X15285Y1957D02*
X15291D01*
X15304Y1955D01*
X15319Y1952D01*
X15336Y1948D01*
X15353Y1942D01*
X15369Y1935D01*
X15370D01*
X15371Y1934D01*
X15377Y1931D01*
X15384Y1926D01*
X15394Y1918D01*
X15404Y1909D01*
X15415Y1898D01*
X15426Y1885D01*
X15435Y1870D01*
Y1869D01*
X15436Y1868D01*
X15438Y1866D01*
X15439Y1863D01*
X15441Y1858D01*
X15442Y1853D01*
X15447Y1842D01*
X15452Y1827D01*
X15456Y1811D01*
X15460Y1792D01*
X15461Y1771D01*
X15397Y1766D01*
Y1767D01*
Y1768D01*
X15397Y1771D01*
X15396Y1776D01*
X15395Y1781D01*
X15394Y1786D01*
X15391Y1799D01*
X15386Y1814D01*
X15379Y1829D01*
X15371Y1843D01*
X15360Y1855D01*
X15359Y1857D01*
X15355Y1860D01*
X15347Y1864D01*
X15338Y1870D01*
X15325Y1876D01*
X15310Y1880D01*
X15292Y1883D01*
X15273Y1885D01*
X15263D01*
X15258Y1884D01*
X15253Y1883D01*
X15240Y1881D01*
X15225Y1878D01*
X15211Y1874D01*
X15196Y1867D01*
X15184Y1858D01*
X15183Y1858D01*
X15179Y1853D01*
X15175Y1849D01*
X15169Y1840D01*
X15164Y1831D01*
X15160Y1820D01*
X15156Y1807D01*
X15155Y1792D01*
Y1790D01*
Y1786D01*
X15155Y1779D01*
X15157Y1771D01*
X15160Y1762D01*
X15164Y1752D01*
X15169Y1743D01*
X15176Y1734D01*
X15177Y1733D01*
X15181Y1730D01*
X15187Y1726D01*
X15192Y1724D01*
X15196Y1721D01*
X15203Y1718D01*
X15210Y1715D01*
X15219Y1711D01*
X15228Y1708D01*
X15237Y1703D01*
X15250Y1700D01*
X15262Y1696D01*
X15276Y1692D01*
X15277D01*
X15279Y1691D01*
X15283Y1690D01*
X15288Y1689D01*
X15294Y1687D01*
X15301Y1685D01*
X15318Y1680D01*
X15335Y1674D01*
X15352Y1668D01*
X15369Y1662D01*
X15375Y1659D01*
X15382Y1656D01*
X15383D01*
X15384Y1655D01*
X15386Y1653D01*
X15389Y1652D01*
X15398Y1646D01*
X15408Y1639D01*
X15420Y1630D01*
X15431Y1619D01*
X15442Y1607D01*
X15452Y1593D01*
Y1592D01*
X15453Y1591D01*
X15455Y1589D01*
X15456Y1586D01*
X15461Y1578D01*
X15465Y1566D01*
X15470Y1553D01*
X15473Y1538D01*
X15476Y1521D01*
X15477Y1501D01*
Y1500D01*
Y1498D01*
Y1496D01*
Y1492D01*
X15476Y1487D01*
X15475Y1481D01*
X15474Y1468D01*
X15470Y1453D01*
X15466Y1437D01*
X15460Y1420D01*
X15452Y1402D01*
Y1402D01*
X15451Y1401D01*
X15449Y1398D01*
X15447Y1395D01*
X15441Y1388D01*
X15433Y1378D01*
X15424Y1367D01*
X15412Y1357D01*
X15398Y1346D01*
X15383Y1336D01*
X15382D01*
X15381Y1335D01*
X15379Y1334D01*
X15375Y1333D01*
X15371Y1331D01*
X15366Y1329D01*
X15354Y1325D01*
X15338Y1321D01*
X15321Y1317D01*
X15301Y1315D01*
X15279Y1314D01*
X15270D01*
X15264Y1315D01*
X15256Y1316D01*
X15246Y1317D01*
X15236Y1319D01*
X15224Y1321D01*
X15213Y1324D01*
X15201Y1328D01*
X15188Y1332D01*
X15175Y1338D01*
X15163Y1344D01*
X15151Y1352D01*
X15138Y1361D01*
X15128Y1371D01*
X15127Y1371D01*
X15125Y1373D01*
X15123Y1376D01*
X15119Y1381D01*
X15114Y1387D01*
X15110Y1394D01*
X15105Y1402D01*
X15100Y1412D01*
X15094Y1422D01*
X15089Y1434D01*
X15084Y1447D01*
X15080Y1461D01*
X15076Y1475D01*
X15073Y1491D01*
X15071Y1508D01*
X15070Y1526D01*
X15134Y1532D01*
Y1531D01*
Y1530D01*
X15135Y1527D01*
Y1524D01*
X15137Y1514D01*
X15139Y1503D01*
X15142Y1489D01*
X15146Y1476D01*
X15151Y1463D01*
X15157Y1452D01*
X15158Y1450D01*
X15160Y1447D01*
X15165Y1442D01*
X15170Y1435D01*
X15178Y1428D01*
X15186Y1421D01*
X15196Y1412D01*
X15208Y1406D01*
X15210Y1405D01*
X15214Y1403D01*
X15221Y1400D01*
X15230Y1398D01*
X15242Y1394D01*
X15255Y1391D01*
X15269Y1389D01*
X15284Y1389D01*
X15290D01*
X15294Y1389D01*
X15299D01*
X15305Y1390D01*
X15319Y1392D01*
X15333Y1396D01*
X15349Y1401D01*
X15364Y1407D01*
X15378Y1417D01*
X15379Y1419D01*
X15383Y1423D01*
X15388Y1429D01*
X15395Y1438D01*
X15401Y1449D01*
X15406Y1462D01*
X15410Y1477D01*
X15411Y1494D01*
Y1495D01*
Y1498D01*
X15411Y1503D01*
X15410Y1510D01*
X15408Y1517D01*
X15406Y1525D01*
X15403Y1534D01*
X15399Y1542D01*
X15398Y1543D01*
X15397Y1545D01*
X15394Y1549D01*
X15390Y1554D01*
X15384Y1559D01*
X15379Y1565D01*
X15371Y1571D01*
X15362Y1576D01*
X15361Y1576D01*
X15357Y1578D01*
X15354Y1580D01*
X15350Y1581D01*
X15346Y1583D01*
X15340Y1585D01*
X15333Y1588D01*
X15325Y1590D01*
X15317Y1594D01*
X15307Y1597D01*
X15297Y1600D01*
X15284Y1604D01*
X15271Y1608D01*
X15256Y1612D01*
X15256D01*
X15253Y1613D01*
X15250Y1615D01*
X15245Y1617D01*
X15238Y1618D01*
X15232Y1621D01*
X15216Y1626D01*
X15200Y1632D01*
X15183Y1639D01*
X15167Y1647D01*
X15160Y1651D01*
X15154Y1655D01*
X15152Y1656D01*
X15149Y1659D01*
X15143Y1664D01*
X15137Y1671D01*
X15129Y1678D01*
X15121Y1688D01*
X15114Y1699D01*
X15106Y1710D01*
X15105Y1712D01*
X15104Y1716D01*
X15101Y1723D01*
X15098Y1732D01*
X15095Y1744D01*
X15092Y1756D01*
X15091Y1770D01*
X15090Y1785D01*
Y1786D01*
Y1789D01*
Y1793D01*
X15091Y1798D01*
X15092Y1804D01*
X15092Y1812D01*
X15094Y1821D01*
X15096Y1830D01*
X15101Y1849D01*
X15105Y1859D01*
X15110Y1870D01*
X15116Y1881D01*
X15123Y1890D01*
X15130Y1900D01*
X15138Y1909D01*
X15139Y1910D01*
X15141Y1912D01*
X15143Y1913D01*
X15147Y1917D01*
X15152Y1921D01*
X15158Y1925D01*
X15165Y1929D01*
X15174Y1934D01*
X15183Y1938D01*
X15192Y1942D01*
X15203Y1946D01*
X15215Y1950D01*
X15228Y1954D01*
X15241Y1955D01*
X15256Y1957D01*
X15270Y1958D01*
X15280D01*
X15285Y1957D01*
D02*
G37*
G36*
X8844Y2641D02*
X8567D01*
Y2449D01*
X8806D01*
Y2376D01*
X8567D01*
Y2093D01*
X8500D01*
Y2715D01*
X8844D01*
Y2641D01*
D02*
G37*
G36*
X13689Y1957D02*
X13695D01*
X13708Y1955D01*
X13724Y1952D01*
X13740Y1948D01*
X13757Y1942D01*
X13774Y1935D01*
X13775D01*
X13775Y1934D01*
X13781Y1931D01*
X13789Y1926D01*
X13798Y1918D01*
X13808Y1909D01*
X13820Y1898D01*
X13830Y1885D01*
X13839Y1870D01*
Y1869D01*
X13840Y1868D01*
X13842Y1866D01*
X13843Y1863D01*
X13845Y1858D01*
X13847Y1853D01*
X13852Y1842D01*
X13857Y1827D01*
X13861Y1811D01*
X13864Y1792D01*
X13866Y1771D01*
X13802Y1766D01*
Y1767D01*
Y1768D01*
X13801Y1771D01*
X13800Y1776D01*
X13799Y1781D01*
X13798Y1786D01*
X13795Y1799D01*
X13790Y1814D01*
X13784Y1829D01*
X13775Y1843D01*
X13765Y1855D01*
X13763Y1857D01*
X13759Y1860D01*
X13752Y1864D01*
X13742Y1870D01*
X13729Y1876D01*
X13715Y1880D01*
X13697Y1883D01*
X13677Y1885D01*
X13667D01*
X13662Y1884D01*
X13657Y1883D01*
X13644Y1881D01*
X13629Y1878D01*
X13616Y1874D01*
X13601Y1867D01*
X13588Y1858D01*
X13587Y1858D01*
X13584Y1853D01*
X13579Y1849D01*
X13574Y1840D01*
X13568Y1831D01*
X13564Y1820D01*
X13561Y1807D01*
X13559Y1792D01*
Y1790D01*
Y1786D01*
X13560Y1779D01*
X13561Y1771D01*
X13564Y1762D01*
X13568Y1752D01*
X13573Y1743D01*
X13580Y1734D01*
X13581Y1733D01*
X13585Y1730D01*
X13592Y1726D01*
X13596Y1724D01*
X13601Y1721D01*
X13607Y1718D01*
X13615Y1715D01*
X13623Y1711D01*
X13632Y1708D01*
X13642Y1703D01*
X13654Y1700D01*
X13666Y1696D01*
X13680Y1692D01*
X13681D01*
X13684Y1691D01*
X13688Y1690D01*
X13693Y1689D01*
X13698Y1687D01*
X13706Y1685D01*
X13722Y1680D01*
X13739Y1674D01*
X13757Y1668D01*
X13773Y1662D01*
X13780Y1659D01*
X13786Y1656D01*
X13787D01*
X13789Y1655D01*
X13790Y1653D01*
X13793Y1652D01*
X13802Y1646D01*
X13812Y1639D01*
X13824Y1630D01*
X13835Y1619D01*
X13847Y1607D01*
X13857Y1593D01*
Y1592D01*
X13857Y1591D01*
X13859Y1589D01*
X13861Y1586D01*
X13865Y1578D01*
X13869Y1566D01*
X13874Y1553D01*
X13877Y1538D01*
X13880Y1521D01*
X13881Y1501D01*
Y1500D01*
Y1498D01*
Y1496D01*
Y1492D01*
X13880Y1487D01*
X13880Y1481D01*
X13878Y1468D01*
X13875Y1453D01*
X13871Y1437D01*
X13864Y1420D01*
X13856Y1402D01*
Y1402D01*
X13855Y1401D01*
X13853Y1398D01*
X13851Y1395D01*
X13845Y1388D01*
X13838Y1378D01*
X13828Y1367D01*
X13816Y1357D01*
X13802Y1346D01*
X13787Y1336D01*
X13786D01*
X13785Y1335D01*
X13783Y1334D01*
X13780Y1333D01*
X13775Y1331D01*
X13771Y1329D01*
X13758Y1325D01*
X13743Y1321D01*
X13725Y1317D01*
X13706Y1315D01*
X13684Y1314D01*
X13675D01*
X13668Y1315D01*
X13660Y1316D01*
X13651Y1317D01*
X13640Y1319D01*
X13629Y1321D01*
X13617Y1324D01*
X13605Y1328D01*
X13593Y1332D01*
X13579Y1338D01*
X13567Y1344D01*
X13555Y1352D01*
X13543Y1361D01*
X13532Y1371D01*
X13531Y1371D01*
X13529Y1373D01*
X13527Y1376D01*
X13523Y1381D01*
X13519Y1387D01*
X13514Y1394D01*
X13509Y1402D01*
X13504Y1412D01*
X13498Y1422D01*
X13493Y1434D01*
X13488Y1447D01*
X13484Y1461D01*
X13480Y1475D01*
X13478Y1491D01*
X13475Y1508D01*
X13474Y1526D01*
X13538Y1532D01*
Y1531D01*
Y1530D01*
X13539Y1527D01*
Y1524D01*
X13541Y1514D01*
X13543Y1503D01*
X13547Y1489D01*
X13550Y1476D01*
X13556Y1463D01*
X13561Y1452D01*
X13562Y1450D01*
X13565Y1447D01*
X13569Y1442D01*
X13575Y1435D01*
X13582Y1428D01*
X13590Y1421D01*
X13601Y1412D01*
X13612Y1406D01*
X13614Y1405D01*
X13618Y1403D01*
X13625Y1400D01*
X13634Y1398D01*
X13646Y1394D01*
X13659Y1391D01*
X13673Y1389D01*
X13689Y1389D01*
X13694D01*
X13698Y1389D01*
X13703D01*
X13709Y1390D01*
X13723Y1392D01*
X13738Y1396D01*
X13753Y1401D01*
X13768Y1407D01*
X13782Y1417D01*
X13784Y1419D01*
X13787Y1423D01*
X13793Y1429D01*
X13799Y1438D01*
X13805Y1449D01*
X13811Y1462D01*
X13814Y1477D01*
X13816Y1494D01*
Y1495D01*
Y1498D01*
X13815Y1503D01*
X13814Y1510D01*
X13812Y1517D01*
X13811Y1525D01*
X13807Y1534D01*
X13803Y1542D01*
X13802Y1543D01*
X13801Y1545D01*
X13798Y1549D01*
X13794Y1554D01*
X13789Y1559D01*
X13783Y1565D01*
X13775Y1571D01*
X13766Y1576D01*
X13766Y1576D01*
X13761Y1578D01*
X13758Y1580D01*
X13754Y1581D01*
X13750Y1583D01*
X13744Y1585D01*
X13738Y1588D01*
X13729Y1590D01*
X13721Y1594D01*
X13711Y1597D01*
X13701Y1600D01*
X13689Y1604D01*
X13675Y1608D01*
X13661Y1612D01*
X13660D01*
X13657Y1613D01*
X13654Y1615D01*
X13649Y1617D01*
X13643Y1618D01*
X13636Y1621D01*
X13620Y1626D01*
X13604Y1632D01*
X13587Y1639D01*
X13571Y1647D01*
X13565Y1651D01*
X13558Y1655D01*
X13556Y1656D01*
X13553Y1659D01*
X13547Y1664D01*
X13541Y1671D01*
X13534Y1678D01*
X13525Y1688D01*
X13518Y1699D01*
X13511Y1710D01*
X13510Y1712D01*
X13508Y1716D01*
X13506Y1723D01*
X13502Y1732D01*
X13499Y1744D01*
X13497Y1756D01*
X13495Y1770D01*
X13494Y1785D01*
Y1786D01*
Y1789D01*
Y1793D01*
X13495Y1798D01*
X13496Y1804D01*
X13497Y1812D01*
X13498Y1821D01*
X13500Y1830D01*
X13506Y1849D01*
X13510Y1859D01*
X13515Y1870D01*
X13520Y1881D01*
X13527Y1890D01*
X13534Y1900D01*
X13543Y1909D01*
X13543Y1910D01*
X13545Y1912D01*
X13547Y1913D01*
X13552Y1917D01*
X13556Y1921D01*
X13562Y1925D01*
X13570Y1929D01*
X13578Y1934D01*
X13587Y1938D01*
X13597Y1942D01*
X13607Y1946D01*
X13619Y1950D01*
X13632Y1954D01*
X13645Y1955D01*
X13660Y1957D01*
X13675Y1958D01*
X13684D01*
X13689Y1957D01*
D02*
G37*
G36*
X13214D02*
X13219D01*
X13233Y1955D01*
X13248Y1952D01*
X13265Y1948D01*
X13282Y1942D01*
X13298Y1935D01*
X13299D01*
X13300Y1934D01*
X13306Y1931D01*
X13313Y1926D01*
X13323Y1918D01*
X13333Y1909D01*
X13344Y1898D01*
X13355Y1885D01*
X13364Y1870D01*
Y1869D01*
X13365Y1868D01*
X13366Y1866D01*
X13368Y1863D01*
X13370Y1858D01*
X13371Y1853D01*
X13376Y1842D01*
X13381Y1827D01*
X13385Y1811D01*
X13388Y1792D01*
X13390Y1771D01*
X13326Y1766D01*
Y1767D01*
Y1768D01*
X13325Y1771D01*
X13324Y1776D01*
X13324Y1781D01*
X13323Y1786D01*
X13319Y1799D01*
X13315Y1814D01*
X13308Y1829D01*
X13300Y1843D01*
X13289Y1855D01*
X13288Y1857D01*
X13283Y1860D01*
X13276Y1864D01*
X13266Y1870D01*
X13254Y1876D01*
X13239Y1880D01*
X13221Y1883D01*
X13201Y1885D01*
X13192D01*
X13187Y1884D01*
X13182Y1883D01*
X13169Y1881D01*
X13154Y1878D01*
X13140Y1874D01*
X13125Y1867D01*
X13113Y1858D01*
X13111Y1858D01*
X13108Y1853D01*
X13104Y1849D01*
X13098Y1840D01*
X13092Y1831D01*
X13088Y1820D01*
X13085Y1807D01*
X13083Y1792D01*
Y1790D01*
Y1786D01*
X13084Y1779D01*
X13086Y1771D01*
X13088Y1762D01*
X13092Y1752D01*
X13097Y1743D01*
X13105Y1734D01*
X13105Y1733D01*
X13110Y1730D01*
X13116Y1726D01*
X13120Y1724D01*
X13125Y1721D01*
X13132Y1718D01*
X13139Y1715D01*
X13147Y1711D01*
X13156Y1708D01*
X13166Y1703D01*
X13178Y1700D01*
X13191Y1696D01*
X13205Y1692D01*
X13206D01*
X13208Y1691D01*
X13212Y1690D01*
X13217Y1689D01*
X13223Y1687D01*
X13230Y1685D01*
X13247Y1680D01*
X13264Y1674D01*
X13281Y1668D01*
X13297Y1662D01*
X13304Y1659D01*
X13310Y1656D01*
X13311D01*
X13313Y1655D01*
X13315Y1653D01*
X13318Y1652D01*
X13327Y1646D01*
X13337Y1639D01*
X13348Y1630D01*
X13360Y1619D01*
X13371Y1607D01*
X13381Y1593D01*
Y1592D01*
X13382Y1591D01*
X13383Y1589D01*
X13385Y1586D01*
X13389Y1578D01*
X13393Y1566D01*
X13398Y1553D01*
X13401Y1538D01*
X13405Y1521D01*
X13406Y1501D01*
Y1500D01*
Y1498D01*
Y1496D01*
Y1492D01*
X13405Y1487D01*
X13404Y1481D01*
X13402Y1468D01*
X13399Y1453D01*
X13395Y1437D01*
X13388Y1420D01*
X13380Y1402D01*
Y1402D01*
X13379Y1401D01*
X13378Y1398D01*
X13375Y1395D01*
X13370Y1388D01*
X13362Y1378D01*
X13352Y1367D01*
X13341Y1357D01*
X13327Y1346D01*
X13311Y1336D01*
X13310D01*
X13310Y1335D01*
X13307Y1334D01*
X13304Y1333D01*
X13300Y1331D01*
X13295Y1329D01*
X13283Y1325D01*
X13267Y1321D01*
X13250Y1317D01*
X13230Y1315D01*
X13208Y1314D01*
X13199D01*
X13192Y1315D01*
X13184Y1316D01*
X13175Y1317D01*
X13165Y1319D01*
X13153Y1321D01*
X13142Y1324D01*
X13129Y1328D01*
X13117Y1332D01*
X13104Y1338D01*
X13092Y1344D01*
X13079Y1352D01*
X13067Y1361D01*
X13056Y1371D01*
X13055Y1371D01*
X13054Y1373D01*
X13051Y1376D01*
X13047Y1381D01*
X13043Y1387D01*
X13038Y1394D01*
X13033Y1402D01*
X13028Y1412D01*
X13023Y1422D01*
X13018Y1434D01*
X13013Y1447D01*
X13009Y1461D01*
X13005Y1475D01*
X13002Y1491D01*
X13000Y1508D01*
X12999Y1526D01*
X13063Y1532D01*
Y1531D01*
Y1530D01*
X13064Y1527D01*
Y1524D01*
X13065Y1514D01*
X13068Y1503D01*
X13071Y1489D01*
X13074Y1476D01*
X13080Y1463D01*
X13086Y1452D01*
X13087Y1450D01*
X13089Y1447D01*
X13093Y1442D01*
X13099Y1435D01*
X13106Y1428D01*
X13115Y1421D01*
X13125Y1412D01*
X13137Y1406D01*
X13138Y1405D01*
X13142Y1403D01*
X13150Y1400D01*
X13159Y1398D01*
X13170Y1394D01*
X13183Y1391D01*
X13197Y1389D01*
X13213Y1389D01*
X13219D01*
X13223Y1389D01*
X13228D01*
X13233Y1390D01*
X13247Y1392D01*
X13262Y1396D01*
X13278Y1401D01*
X13292Y1407D01*
X13306Y1417D01*
X13308Y1419D01*
X13311Y1423D01*
X13317Y1429D01*
X13324Y1438D01*
X13329Y1449D01*
X13335Y1462D01*
X13338Y1477D01*
X13340Y1494D01*
Y1495D01*
Y1498D01*
X13339Y1503D01*
X13338Y1510D01*
X13337Y1517D01*
X13335Y1525D01*
X13332Y1534D01*
X13328Y1542D01*
X13327Y1543D01*
X13325Y1545D01*
X13323Y1549D01*
X13319Y1554D01*
X13313Y1559D01*
X13307Y1565D01*
X13300Y1571D01*
X13291Y1576D01*
X13290Y1576D01*
X13286Y1578D01*
X13283Y1580D01*
X13279Y1581D01*
X13274Y1583D01*
X13269Y1585D01*
X13262Y1588D01*
X13254Y1590D01*
X13246Y1594D01*
X13236Y1597D01*
X13225Y1600D01*
X13213Y1604D01*
X13200Y1608D01*
X13185Y1612D01*
X13184D01*
X13182Y1613D01*
X13178Y1615D01*
X13174Y1617D01*
X13167Y1618D01*
X13160Y1621D01*
X13145Y1626D01*
X13128Y1632D01*
X13111Y1639D01*
X13096Y1647D01*
X13089Y1651D01*
X13083Y1655D01*
X13081Y1656D01*
X13078Y1659D01*
X13072Y1664D01*
X13065Y1671D01*
X13058Y1678D01*
X13050Y1688D01*
X13042Y1699D01*
X13035Y1710D01*
X13034Y1712D01*
X13033Y1716D01*
X13030Y1723D01*
X13027Y1732D01*
X13023Y1744D01*
X13021Y1756D01*
X13019Y1770D01*
X13019Y1785D01*
Y1786D01*
Y1789D01*
Y1793D01*
X13019Y1798D01*
X13020Y1804D01*
X13021Y1812D01*
X13023Y1821D01*
X13024Y1830D01*
X13030Y1849D01*
X13034Y1859D01*
X13039Y1870D01*
X13045Y1881D01*
X13051Y1890D01*
X13059Y1900D01*
X13067Y1909D01*
X13068Y1910D01*
X13069Y1912D01*
X13072Y1913D01*
X13076Y1917D01*
X13081Y1921D01*
X13087Y1925D01*
X13094Y1929D01*
X13102Y1934D01*
X13111Y1938D01*
X13121Y1942D01*
X13132Y1946D01*
X13143Y1950D01*
X13156Y1954D01*
X13169Y1955D01*
X13184Y1957D01*
X13199Y1958D01*
X13209D01*
X13214Y1957D01*
D02*
G37*
G36*
X9279Y2641D02*
X9002D01*
Y2449D01*
X9242D01*
Y2376D01*
X9002D01*
Y2093D01*
X8935D01*
Y2715D01*
X9279D01*
Y2641D01*
D02*
G37*
G36*
X9735D02*
X9434D01*
Y2452D01*
X9717D01*
Y2378D01*
X9434D01*
Y2167D01*
X9748D01*
Y2093D01*
X9367D01*
Y2715D01*
X9735D01*
Y2641D01*
D02*
G37*
%LPC*%
G36*
X14472Y1722D02*
X14468D01*
X14462Y1721D01*
X14455Y1720D01*
X14447Y1717D01*
X14439Y1713D01*
X14429Y1708D01*
X14419Y1700D01*
X14418Y1699D01*
X14415Y1696D01*
X14410Y1690D01*
X14404Y1682D01*
X14396Y1671D01*
X14388Y1658D01*
X14380Y1640D01*
X14376Y1631D01*
X14372Y1621D01*
Y1620D01*
X14371Y1618D01*
X14370Y1615D01*
X14368Y1611D01*
X14367Y1606D01*
X14365Y1600D01*
X14362Y1585D01*
X14358Y1569D01*
X14354Y1550D01*
X14352Y1530D01*
X14351Y1509D01*
Y1508D01*
Y1507D01*
Y1503D01*
Y1499D01*
X14352Y1494D01*
X14353Y1489D01*
X14354Y1476D01*
X14357Y1462D01*
X14361Y1447D01*
X14367Y1432D01*
X14374Y1419D01*
X14375Y1417D01*
X14378Y1414D01*
X14383Y1409D01*
X14389Y1403D01*
X14397Y1397D01*
X14405Y1392D01*
X14415Y1389D01*
X14426Y1387D01*
X14426D01*
X14430Y1388D01*
X14435Y1389D01*
X14442Y1390D01*
X14449Y1393D01*
X14459Y1398D01*
X14469Y1403D01*
X14480Y1412D01*
X14481Y1412D01*
X14485Y1416D01*
X14490Y1422D01*
X14498Y1430D01*
X14506Y1441D01*
X14514Y1454D01*
X14523Y1471D01*
X14531Y1489D01*
Y1489D01*
X14532Y1491D01*
X14533Y1494D01*
X14535Y1498D01*
X14536Y1503D01*
X14538Y1508D01*
X14542Y1522D01*
X14546Y1539D01*
X14549Y1557D01*
X14552Y1578D01*
X14553Y1599D01*
Y1600D01*
Y1602D01*
Y1605D01*
Y1609D01*
X14552Y1614D01*
Y1620D01*
X14549Y1633D01*
X14547Y1648D01*
X14543Y1663D01*
X14537Y1677D01*
X14529Y1690D01*
X14528Y1692D01*
X14525Y1695D01*
X14520Y1700D01*
X14513Y1707D01*
X14504Y1712D01*
X14495Y1717D01*
X14484Y1721D01*
X14472Y1722D01*
D02*
G37*
G36*
X18767Y1878D02*
X18606D01*
Y1672D01*
X18759D01*
X18767Y1673D01*
X18777Y1674D01*
X18789Y1675D01*
X18801Y1677D01*
X18813Y1680D01*
X18823Y1683D01*
X18823Y1684D01*
X18827Y1685D01*
X18831Y1688D01*
X18836Y1692D01*
X18843Y1697D01*
X18850Y1703D01*
X18856Y1711D01*
X18862Y1719D01*
X18863Y1720D01*
X18864Y1723D01*
X18867Y1729D01*
X18869Y1735D01*
X18872Y1744D01*
X18874Y1753D01*
X18876Y1765D01*
X18877Y1776D01*
Y1777D01*
Y1779D01*
Y1781D01*
Y1785D01*
X18875Y1793D01*
X18873Y1803D01*
X18870Y1816D01*
X18865Y1828D01*
X18858Y1840D01*
X18849Y1851D01*
X18847Y1852D01*
X18844Y1855D01*
X18837Y1859D01*
X18828Y1865D01*
X18817Y1870D01*
X18803Y1874D01*
X18786Y1877D01*
X18767Y1878D01*
D02*
G37*
G36*
X8999Y1881D02*
Y1881D01*
X8998Y1879D01*
Y1876D01*
X8997Y1872D01*
X8996Y1866D01*
X8995Y1859D01*
X8993Y1852D01*
X8992Y1844D01*
X8987Y1826D01*
X8983Y1806D01*
X8978Y1785D01*
X8971Y1762D01*
X8914Y1580D01*
X9087D01*
X9035Y1753D01*
Y1753D01*
X9034Y1756D01*
X9033Y1760D01*
X9031Y1766D01*
X9029Y1772D01*
X9027Y1781D01*
X9024Y1789D01*
X9021Y1799D01*
X9015Y1819D01*
X9010Y1840D01*
X9004Y1862D01*
X8999Y1881D01*
D02*
G37*
G36*
X8060Y1887D02*
X8053D01*
X8048Y1886D01*
X8041Y1885D01*
X8033Y1884D01*
X8025Y1881D01*
X8016Y1879D01*
X8006Y1876D01*
X7996Y1872D01*
X7985Y1867D01*
X7975Y1860D01*
X7964Y1853D01*
X7954Y1844D01*
X7944Y1835D01*
X7935Y1823D01*
X7934Y1822D01*
X7932Y1820D01*
X7930Y1817D01*
X7927Y1811D01*
X7923Y1804D01*
X7919Y1796D01*
X7915Y1786D01*
X7910Y1775D01*
X7905Y1762D01*
X7901Y1747D01*
X7897Y1730D01*
X7893Y1713D01*
X7890Y1694D01*
X7888Y1673D01*
X7886Y1650D01*
X7885Y1626D01*
Y1625D01*
Y1621D01*
Y1616D01*
X7886Y1607D01*
X7887Y1598D01*
X7888Y1586D01*
X7889Y1574D01*
X7892Y1561D01*
X7898Y1532D01*
X7902Y1517D01*
X7907Y1503D01*
X7912Y1488D01*
X7919Y1474D01*
X7926Y1460D01*
X7935Y1448D01*
X7936Y1447D01*
X7938Y1445D01*
X7940Y1442D01*
X7944Y1438D01*
X7949Y1433D01*
X7955Y1428D01*
X7962Y1422D01*
X7970Y1416D01*
X7978Y1410D01*
X7988Y1404D01*
X8008Y1394D01*
X8021Y1390D01*
X8032Y1387D01*
X8045Y1385D01*
X8058Y1384D01*
X8062D01*
X8066Y1385D01*
X8071D01*
X8077Y1386D01*
X8085Y1388D01*
X8093Y1390D01*
X8102Y1393D01*
X8112Y1396D01*
X8122Y1400D01*
X8132Y1405D01*
X8143Y1412D01*
X8153Y1419D01*
X8163Y1427D01*
X8173Y1437D01*
X8183Y1448D01*
X8184Y1449D01*
X8185Y1452D01*
X8188Y1455D01*
X8191Y1461D01*
X8195Y1467D01*
X8199Y1475D01*
X8204Y1484D01*
X8208Y1496D01*
X8213Y1508D01*
X8217Y1522D01*
X8222Y1538D01*
X8226Y1555D01*
X8229Y1573D01*
X8231Y1594D01*
X8233Y1614D01*
X8234Y1637D01*
Y1638D01*
Y1640D01*
Y1644D01*
Y1650D01*
X8233Y1658D01*
X8232Y1666D01*
X8231Y1675D01*
X8231Y1685D01*
X8227Y1707D01*
X8223Y1731D01*
X8217Y1756D01*
X8208Y1781D01*
Y1781D01*
X8207Y1783D01*
X8205Y1785D01*
X8204Y1789D01*
X8199Y1798D01*
X8193Y1808D01*
X8185Y1821D01*
X8174Y1834D01*
X8162Y1846D01*
X8148Y1858D01*
X8147D01*
X8146Y1859D01*
X8144Y1860D01*
X8140Y1863D01*
X8132Y1867D01*
X8122Y1872D01*
X8108Y1878D01*
X8094Y1882D01*
X8077Y1885D01*
X8060Y1887D01*
D02*
G37*
G36*
X19587Y1886D02*
X19583D01*
X19579Y1885D01*
X19572Y1884D01*
X19562Y1880D01*
X19551Y1873D01*
X19545Y1869D01*
X19538Y1864D01*
X19533Y1858D01*
X19527Y1851D01*
X19521Y1843D01*
X19515Y1834D01*
Y1833D01*
X19515Y1831D01*
X19513Y1828D01*
X19511Y1823D01*
X19509Y1817D01*
X19506Y1809D01*
X19504Y1800D01*
X19501Y1789D01*
X19499Y1776D01*
X19497Y1762D01*
X19494Y1744D01*
X19492Y1726D01*
X19490Y1706D01*
X19488Y1683D01*
X19488Y1658D01*
Y1631D01*
Y1630D01*
Y1630D01*
Y1625D01*
Y1617D01*
X19488Y1607D01*
Y1594D01*
X19489Y1580D01*
X19490Y1566D01*
X19491Y1549D01*
X19495Y1515D01*
X19497Y1498D01*
X19500Y1481D01*
X19503Y1466D01*
X19506Y1452D01*
X19511Y1439D01*
X19516Y1428D01*
Y1427D01*
X19518Y1425D01*
X19520Y1423D01*
X19521Y1420D01*
X19528Y1412D01*
X19537Y1402D01*
X19547Y1393D01*
X19560Y1385D01*
X19567Y1382D01*
X19574Y1380D01*
X19583Y1378D01*
X19591Y1377D01*
X19595D01*
X19598Y1378D01*
X19606Y1380D01*
X19615Y1384D01*
X19627Y1389D01*
X19633Y1394D01*
X19639Y1399D01*
X19645Y1405D01*
X19651Y1412D01*
X19656Y1420D01*
X19662Y1429D01*
Y1430D01*
X19664Y1431D01*
X19665Y1434D01*
X19667Y1439D01*
X19669Y1445D01*
X19671Y1453D01*
X19675Y1462D01*
X19677Y1474D01*
X19679Y1487D01*
X19683Y1501D01*
X19685Y1518D01*
X19687Y1536D01*
X19689Y1557D01*
X19690Y1580D01*
X19692Y1604D01*
Y1631D01*
Y1632D01*
Y1633D01*
Y1638D01*
Y1646D01*
X19691Y1656D01*
Y1668D01*
X19690Y1682D01*
X19689Y1698D01*
X19688Y1713D01*
X19684Y1748D01*
X19682Y1765D01*
X19679Y1781D01*
X19676Y1797D01*
X19672Y1811D01*
X19667Y1824D01*
X19662Y1835D01*
Y1835D01*
X19661Y1837D01*
X19659Y1840D01*
X19657Y1843D01*
X19651Y1851D01*
X19642Y1861D01*
X19631Y1870D01*
X19618Y1878D01*
X19611Y1881D01*
X19603Y1884D01*
X19595Y1885D01*
X19587Y1886D01*
D02*
G37*
G36*
X11059Y2646D02*
X10898D01*
Y2440D01*
X11051D01*
X11059Y2441D01*
X11069Y2442D01*
X11081Y2443D01*
X11093Y2445D01*
X11105Y2448D01*
X11115Y2451D01*
X11115Y2452D01*
X11119Y2454D01*
X11123Y2456D01*
X11128Y2460D01*
X11135Y2465D01*
X11142Y2472D01*
X11148Y2479D01*
X11154Y2487D01*
X11155Y2488D01*
X11156Y2491D01*
X11159Y2497D01*
X11161Y2504D01*
X11164Y2512D01*
X11166Y2522D01*
X11168Y2533D01*
X11169Y2545D01*
Y2545D01*
Y2547D01*
Y2550D01*
Y2553D01*
X11167Y2561D01*
X11165Y2572D01*
X11162Y2584D01*
X11157Y2596D01*
X11150Y2609D01*
X11141Y2619D01*
X11139Y2620D01*
X11136Y2623D01*
X11129Y2627D01*
X11120Y2633D01*
X11109Y2638D01*
X11095Y2642D01*
X11078Y2645D01*
X11059Y2646D01*
D02*
G37*
G36*
X11730Y2641D02*
X11608D01*
Y2454D01*
X11733D01*
X11742Y2455D01*
X11752Y2456D01*
X11762Y2457D01*
X11772Y2458D01*
X11780Y2460D01*
X11781Y2461D01*
X11784Y2462D01*
X11789Y2464D01*
X11795Y2468D01*
X11802Y2472D01*
X11808Y2477D01*
X11815Y2482D01*
X11821Y2490D01*
X11821Y2490D01*
X11823Y2494D01*
X11825Y2498D01*
X11828Y2504D01*
X11830Y2513D01*
X11833Y2522D01*
X11834Y2533D01*
X11835Y2546D01*
Y2548D01*
Y2552D01*
X11834Y2558D01*
X11834Y2566D01*
X11832Y2575D01*
X11830Y2584D01*
X11826Y2593D01*
X11822Y2602D01*
X11821Y2603D01*
X11820Y2605D01*
X11817Y2609D01*
X11813Y2614D01*
X11808Y2619D01*
X11802Y2624D01*
X11795Y2629D01*
X11787Y2632D01*
X11786Y2633D01*
X11783Y2634D01*
X11777Y2636D01*
X11770Y2637D01*
X11759Y2639D01*
X11746Y2640D01*
X11730Y2641D01*
D02*
G37*
G36*
X11726Y2381D02*
X11608D01*
Y2167D01*
X11742D01*
X11749Y2167D01*
X11759D01*
X11769Y2168D01*
X11779Y2170D01*
X11789Y2171D01*
X11797Y2174D01*
X11798Y2175D01*
X11802Y2176D01*
X11807Y2179D01*
X11813Y2182D01*
X11821Y2187D01*
X11828Y2194D01*
X11835Y2201D01*
X11841Y2210D01*
X11842Y2211D01*
X11844Y2215D01*
X11846Y2220D01*
X11849Y2227D01*
X11852Y2237D01*
X11854Y2248D01*
X11856Y2260D01*
X11857Y2274D01*
Y2275D01*
Y2276D01*
Y2280D01*
X11856Y2286D01*
X11855Y2294D01*
X11853Y2304D01*
X11850Y2314D01*
X11847Y2324D01*
X11842Y2333D01*
X11841Y2334D01*
X11839Y2337D01*
X11836Y2341D01*
X11831Y2347D01*
X11825Y2353D01*
X11819Y2358D01*
X11812Y2364D01*
X11803Y2369D01*
X11802Y2370D01*
X11798Y2371D01*
X11792Y2372D01*
X11784Y2375D01*
X11774Y2377D01*
X11761Y2379D01*
X11744Y2380D01*
X11726Y2381D01*
D02*
G37*
G36*
X15637Y2641D02*
X15530D01*
Y2167D01*
X15649D01*
X15655Y2167D01*
X15661D01*
X15675Y2169D01*
X15692Y2171D01*
X15708Y2176D01*
X15724Y2181D01*
X15738Y2188D01*
X15739Y2189D01*
X15743Y2192D01*
X15749Y2197D01*
X15757Y2204D01*
X15766Y2214D01*
X15775Y2226D01*
X15783Y2240D01*
X15790Y2257D01*
Y2258D01*
X15791Y2260D01*
X15793Y2263D01*
X15794Y2268D01*
X15796Y2274D01*
X15798Y2281D01*
X15800Y2290D01*
X15802Y2299D01*
X15805Y2310D01*
X15807Y2322D01*
X15809Y2334D01*
X15811Y2347D01*
X15814Y2376D01*
X15815Y2408D01*
Y2408D01*
Y2412D01*
Y2417D01*
Y2423D01*
X15814Y2431D01*
X15813Y2440D01*
X15812Y2450D01*
X15811Y2462D01*
X15808Y2486D01*
X15804Y2510D01*
X15798Y2534D01*
X15793Y2545D01*
X15789Y2556D01*
Y2557D01*
X15788Y2559D01*
X15786Y2561D01*
X15784Y2565D01*
X15779Y2574D01*
X15770Y2586D01*
X15761Y2598D01*
X15750Y2609D01*
X15738Y2621D01*
X15730Y2625D01*
X15723Y2629D01*
X15721Y2630D01*
X15718Y2631D01*
X15711Y2633D01*
X15702Y2636D01*
X15690Y2637D01*
X15675Y2640D01*
X15657Y2641D01*
X15637Y2641D01*
D02*
G37*
G36*
X13670Y2655D02*
X13662D01*
X13657Y2654D01*
X13651Y2654D01*
X13643Y2652D01*
X13634Y2650D01*
X13625Y2647D01*
X13616Y2644D01*
X13606Y2640D01*
X13595Y2635D01*
X13584Y2628D01*
X13574Y2621D01*
X13564Y2613D01*
X13554Y2603D01*
X13544Y2591D01*
X13543Y2591D01*
X13542Y2588D01*
X13539Y2585D01*
X13537Y2579D01*
X13533Y2572D01*
X13529Y2564D01*
X13525Y2554D01*
X13520Y2543D01*
X13515Y2530D01*
X13511Y2515D01*
X13506Y2499D01*
X13502Y2481D01*
X13500Y2462D01*
X13497Y2441D01*
X13496Y2418D01*
X13495Y2395D01*
Y2393D01*
Y2390D01*
Y2384D01*
X13496Y2376D01*
X13497Y2366D01*
X13497Y2354D01*
X13499Y2342D01*
X13502Y2329D01*
X13507Y2300D01*
X13511Y2285D01*
X13516Y2271D01*
X13522Y2256D01*
X13529Y2242D01*
X13536Y2228D01*
X13545Y2216D01*
X13546Y2215D01*
X13547Y2213D01*
X13550Y2210D01*
X13554Y2206D01*
X13559Y2201D01*
X13565Y2196D01*
X13572Y2190D01*
X13579Y2185D01*
X13588Y2178D01*
X13597Y2172D01*
X13618Y2162D01*
X13630Y2158D01*
X13642Y2155D01*
X13655Y2153D01*
X13668Y2153D01*
X13671D01*
X13675Y2153D01*
X13680D01*
X13687Y2154D01*
X13694Y2156D01*
X13702Y2158D01*
X13711Y2161D01*
X13721Y2164D01*
X13731Y2168D01*
X13742Y2173D01*
X13752Y2180D01*
X13762Y2187D01*
X13773Y2195D01*
X13783Y2205D01*
X13793Y2217D01*
X13793Y2217D01*
X13795Y2220D01*
X13798Y2223D01*
X13801Y2229D01*
X13804Y2235D01*
X13809Y2244D01*
X13813Y2253D01*
X13818Y2264D01*
X13823Y2276D01*
X13827Y2290D01*
X13832Y2306D01*
X13835Y2323D01*
X13839Y2341D01*
X13841Y2362D01*
X13843Y2382D01*
X13843Y2405D01*
Y2406D01*
Y2408D01*
Y2413D01*
Y2418D01*
X13843Y2426D01*
X13842Y2434D01*
X13841Y2443D01*
X13840Y2453D01*
X13837Y2475D01*
X13833Y2499D01*
X13826Y2524D01*
X13817Y2549D01*
Y2550D01*
X13816Y2551D01*
X13815Y2554D01*
X13814Y2557D01*
X13809Y2566D01*
X13802Y2577D01*
X13794Y2589D01*
X13784Y2602D01*
X13771Y2614D01*
X13757Y2626D01*
X13757D01*
X13756Y2627D01*
X13753Y2628D01*
X13750Y2631D01*
X13742Y2635D01*
X13731Y2641D01*
X13718Y2646D01*
X13703Y2650D01*
X13687Y2654D01*
X13670Y2655D01*
D02*
G37*
G36*
X12244D02*
X12237D01*
X12232Y2654D01*
X12226Y2654D01*
X12217Y2652D01*
X12209Y2650D01*
X12200Y2647D01*
X12190Y2644D01*
X12181Y2640D01*
X12170Y2635D01*
X12159Y2628D01*
X12149Y2621D01*
X12139Y2613D01*
X12129Y2603D01*
X12119Y2591D01*
X12118Y2591D01*
X12117Y2588D01*
X12114Y2585D01*
X12112Y2579D01*
X12108Y2572D01*
X12103Y2564D01*
X12099Y2554D01*
X12094Y2543D01*
X12090Y2530D01*
X12085Y2515D01*
X12081Y2499D01*
X12077Y2481D01*
X12075Y2462D01*
X12072Y2441D01*
X12071Y2418D01*
X12070Y2395D01*
Y2393D01*
Y2390D01*
Y2384D01*
X12071Y2376D01*
X12071Y2366D01*
X12072Y2354D01*
X12074Y2342D01*
X12076Y2329D01*
X12082Y2300D01*
X12086Y2285D01*
X12091Y2271D01*
X12097Y2256D01*
X12103Y2242D01*
X12111Y2228D01*
X12120Y2216D01*
X12121Y2215D01*
X12122Y2213D01*
X12125Y2210D01*
X12129Y2206D01*
X12134Y2201D01*
X12140Y2196D01*
X12147Y2190D01*
X12154Y2185D01*
X12162Y2178D01*
X12172Y2172D01*
X12193Y2162D01*
X12205Y2158D01*
X12217Y2155D01*
X12230Y2153D01*
X12243Y2153D01*
X12246D01*
X12250Y2153D01*
X12255D01*
X12262Y2154D01*
X12269Y2156D01*
X12277Y2158D01*
X12286Y2161D01*
X12296Y2164D01*
X12306Y2168D01*
X12317Y2173D01*
X12327Y2180D01*
X12337Y2187D01*
X12348Y2195D01*
X12358Y2205D01*
X12367Y2217D01*
X12368Y2217D01*
X12370Y2220D01*
X12372Y2223D01*
X12376Y2229D01*
X12379Y2235D01*
X12384Y2244D01*
X12388Y2253D01*
X12393Y2264D01*
X12398Y2276D01*
X12402Y2290D01*
X12407Y2306D01*
X12410Y2323D01*
X12413Y2341D01*
X12416Y2362D01*
X12418Y2382D01*
X12418Y2405D01*
Y2406D01*
Y2408D01*
Y2413D01*
Y2418D01*
X12418Y2426D01*
X12417Y2434D01*
X12416Y2443D01*
X12415Y2453D01*
X12412Y2475D01*
X12408Y2499D01*
X12401Y2524D01*
X12392Y2549D01*
Y2550D01*
X12391Y2551D01*
X12390Y2554D01*
X12389Y2557D01*
X12384Y2566D01*
X12377Y2577D01*
X12369Y2589D01*
X12358Y2602D01*
X12346Y2614D01*
X12332Y2626D01*
X12331D01*
X12331Y2627D01*
X12328Y2628D01*
X12325Y2631D01*
X12317Y2635D01*
X12306Y2641D01*
X12293Y2646D01*
X12278Y2650D01*
X12262Y2654D01*
X12244Y2655D01*
D02*
G37*
%LPD*%
D17*
X5410Y2080D02*
G03*
X5153Y2330I-253J-3D01*
G01*
X4773Y2520D02*
G03*
X4973Y2330I190J0D01*
G01*
X7020D02*
G03*
X7220Y2520I10J190D01*
G01*
X6850Y2330D02*
G03*
X6593Y2080I-3J-253D01*
G01*
X4773Y2520D02*
Y2966D01*
X7223D01*
Y2520D02*
Y2966D01*
X5410Y1080D02*
Y2080D01*
X4973Y2330D02*
X5153D01*
X6850D02*
X7020D01*
X6593Y1080D02*
Y2080D01*
X5410Y1080D02*
X6593D01*
M02*
