G04 Layer_Color=16711935*
%FSLAX24Y24*%
%MOIN*%
G70*
G01*
G75*
%ADD18C,0.0295*%
%ADD19C,0.0010*%
G36*
X13884Y1934D02*
X13891D01*
X13907Y1932D01*
X13924Y1931D01*
X13941Y1927D01*
X13957Y1922D01*
X13965Y1920D01*
X13971Y1917D01*
X13973Y1916D01*
X13977Y1913D01*
X13983Y1909D01*
X13991Y1903D01*
X13999Y1895D01*
X14009Y1885D01*
X14018Y1872D01*
X14026Y1859D01*
Y1858D01*
X14027Y1857D01*
X14029Y1854D01*
X14030Y1851D01*
X14034Y1843D01*
X14038Y1831D01*
X14041Y1818D01*
X14045Y1802D01*
X14048Y1785D01*
X14048Y1765D01*
Y1764D01*
Y1762D01*
Y1758D01*
X14048Y1754D01*
Y1747D01*
X14047Y1740D01*
X14044Y1724D01*
X14039Y1706D01*
X14033Y1687D01*
X14024Y1668D01*
X14018Y1659D01*
X14012Y1650D01*
Y1649D01*
X14010Y1649D01*
X14007Y1646D01*
X14005Y1644D01*
X14001Y1640D01*
X13996Y1636D01*
X13991Y1631D01*
X13985Y1627D01*
X13970Y1617D01*
X13951Y1608D01*
X13930Y1601D01*
X13905Y1595D01*
X13907Y1594D01*
X13910Y1592D01*
X13915Y1589D01*
X13921Y1585D01*
X13935Y1573D01*
X13942Y1567D01*
X13948Y1561D01*
X13950Y1559D01*
X13953Y1554D01*
X13959Y1547D01*
X13966Y1537D01*
X13974Y1526D01*
X13983Y1512D01*
X13992Y1497D01*
X14001Y1481D01*
X14090Y1312D01*
X14005D01*
X13937Y1441D01*
X13936Y1442D01*
X13935Y1444D01*
X13933Y1449D01*
X13930Y1453D01*
X13927Y1460D01*
X13924Y1467D01*
X13915Y1483D01*
X13905Y1499D01*
X13895Y1517D01*
X13885Y1531D01*
X13881Y1538D01*
X13877Y1544D01*
X13876Y1544D01*
X13874Y1548D01*
X13870Y1553D01*
X13865Y1558D01*
X13859Y1564D01*
X13853Y1570D01*
X13846Y1575D01*
X13839Y1579D01*
X13838Y1580D01*
X13835Y1581D01*
X13831Y1582D01*
X13825Y1584D01*
X13817Y1585D01*
X13808Y1587D01*
X13798Y1589D01*
X13708D01*
Y1312D01*
X13641D01*
Y1935D01*
X13878D01*
X13884Y1934D01*
D02*
G37*
G36*
X14703Y1861D02*
X14426D01*
Y1669D01*
X14665D01*
Y1595D01*
X14426D01*
Y1312D01*
X14358D01*
Y1935D01*
X14703D01*
Y1861D01*
D02*
G37*
G36*
X12181Y1934D02*
X12189D01*
X12204Y1932D01*
X12222Y1931D01*
X12239Y1927D01*
X12255Y1922D01*
X12263Y1920D01*
X12269Y1917D01*
X12271Y1916D01*
X12275Y1913D01*
X12281Y1909D01*
X12289Y1903D01*
X12297Y1895D01*
X12307Y1885D01*
X12316Y1872D01*
X12324Y1859D01*
Y1858D01*
X12325Y1857D01*
X12326Y1854D01*
X12327Y1851D01*
X12331Y1843D01*
X12336Y1831D01*
X12339Y1818D01*
X12343Y1802D01*
X12345Y1785D01*
X12346Y1765D01*
Y1764D01*
Y1762D01*
Y1758D01*
X12345Y1754D01*
Y1747D01*
X12345Y1740D01*
X12341Y1724D01*
X12337Y1706D01*
X12331Y1687D01*
X12322Y1668D01*
X12316Y1659D01*
X12309Y1650D01*
Y1649D01*
X12308Y1649D01*
X12305Y1646D01*
X12303Y1644D01*
X12299Y1640D01*
X12294Y1636D01*
X12289Y1631D01*
X12282Y1627D01*
X12267Y1617D01*
X12249Y1608D01*
X12227Y1601D01*
X12203Y1595D01*
X12204Y1594D01*
X12208Y1592D01*
X12213Y1589D01*
X12218Y1585D01*
X12233Y1573D01*
X12240Y1567D01*
X12246Y1561D01*
X12248Y1559D01*
X12251Y1554D01*
X12257Y1547D01*
X12264Y1537D01*
X12272Y1526D01*
X12281Y1512D01*
X12290Y1497D01*
X12299Y1481D01*
X12388Y1312D01*
X12303D01*
X12235Y1441D01*
X12234Y1442D01*
X12233Y1444D01*
X12231Y1449D01*
X12228Y1453D01*
X12225Y1460D01*
X12222Y1467D01*
X12213Y1483D01*
X12203Y1499D01*
X12193Y1517D01*
X12183Y1531D01*
X12179Y1538D01*
X12175Y1544D01*
X12174Y1544D01*
X12171Y1548D01*
X12167Y1553D01*
X12162Y1558D01*
X12157Y1564D01*
X12150Y1570D01*
X12144Y1575D01*
X12136Y1579D01*
X12135Y1580D01*
X12133Y1581D01*
X12129Y1582D01*
X12122Y1584D01*
X12115Y1585D01*
X12106Y1587D01*
X12096Y1589D01*
X12006D01*
Y1312D01*
X11939D01*
Y1935D01*
X12176D01*
X12181Y1934D01*
D02*
G37*
G36*
X13001Y1861D02*
X12723D01*
Y1669D01*
X12963D01*
Y1595D01*
X12723D01*
Y1312D01*
X12656D01*
Y1935D01*
X13001D01*
Y1861D01*
D02*
G37*
G36*
X14852Y1386D02*
X15104D01*
Y1312D01*
X14785D01*
Y1935D01*
X14852D01*
Y1386D01*
D02*
G37*
G36*
X18806Y1934D02*
X18821Y1933D01*
X18837Y1931D01*
X18855Y1930D01*
X18870Y1927D01*
X18877Y1925D01*
X18883Y1922D01*
X18884D01*
X18885Y1922D01*
X18887Y1921D01*
X18891Y1919D01*
X18899Y1915D01*
X18909Y1909D01*
X18920Y1900D01*
X18932Y1890D01*
X18943Y1877D01*
X18954Y1863D01*
Y1862D01*
X18955Y1861D01*
X18956Y1859D01*
X18958Y1855D01*
X18960Y1850D01*
X18962Y1845D01*
X18968Y1833D01*
X18973Y1818D01*
X18977Y1799D01*
X18980Y1778D01*
X18981Y1755D01*
Y1754D01*
Y1751D01*
Y1747D01*
X18980Y1741D01*
X18979Y1734D01*
X18978Y1726D01*
X18978Y1717D01*
X18975Y1706D01*
X18970Y1685D01*
X18963Y1662D01*
X18958Y1650D01*
X18952Y1639D01*
X18945Y1628D01*
X18937Y1617D01*
X18937Y1617D01*
X18936Y1615D01*
X18932Y1613D01*
X18929Y1609D01*
X18924Y1605D01*
X18918Y1601D01*
X18911Y1596D01*
X18903Y1591D01*
X18893Y1586D01*
X18882Y1581D01*
X18870Y1577D01*
X18857Y1573D01*
X18842Y1570D01*
X18826Y1567D01*
X18808Y1566D01*
X18789Y1565D01*
X18659D01*
Y1312D01*
X18591D01*
Y1935D01*
X18800D01*
X18806Y1934D01*
D02*
G37*
G36*
X19821Y1312D02*
X19754D01*
Y1935D01*
X19821D01*
Y1312D01*
D02*
G37*
G36*
X15555Y1861D02*
X15254D01*
Y1672D01*
X15537D01*
Y1598D01*
X15254D01*
Y1386D01*
X15567D01*
Y1312D01*
X15187D01*
Y1935D01*
X15555D01*
Y1861D01*
D02*
G37*
G36*
X17969D02*
X17800D01*
Y1312D01*
X17733D01*
Y1861D01*
X17565D01*
Y1935D01*
X17969D01*
Y1861D01*
D02*
G37*
G36*
X16572Y1945D02*
X16577D01*
X16585Y1944D01*
X16592Y1942D01*
X16600Y1941D01*
X16619Y1936D01*
X16640Y1929D01*
X16661Y1920D01*
X16672Y1913D01*
X16682Y1907D01*
X16683Y1906D01*
X16685Y1905D01*
X16688Y1903D01*
X16691Y1900D01*
X16696Y1895D01*
X16702Y1890D01*
X16708Y1885D01*
X16714Y1878D01*
X16721Y1871D01*
X16728Y1863D01*
X16736Y1854D01*
X16743Y1844D01*
X16750Y1833D01*
X16758Y1821D01*
X16771Y1795D01*
Y1795D01*
X16773Y1792D01*
X16774Y1788D01*
X16776Y1782D01*
X16778Y1776D01*
X16782Y1767D01*
X16784Y1758D01*
X16787Y1747D01*
X16791Y1735D01*
X16793Y1722D01*
X16796Y1707D01*
X16799Y1692D01*
X16800Y1676D01*
X16802Y1658D01*
X16804Y1622D01*
Y1621D01*
Y1617D01*
Y1609D01*
X16803Y1599D01*
X16802Y1588D01*
X16800Y1574D01*
X16799Y1559D01*
X16795Y1543D01*
X16792Y1525D01*
X16788Y1507D01*
X16783Y1488D01*
X16777Y1469D01*
X16770Y1450D01*
X16761Y1432D01*
X16752Y1414D01*
X16741Y1397D01*
X16740Y1396D01*
X16737Y1393D01*
X16733Y1388D01*
X16728Y1382D01*
X16721Y1375D01*
X16713Y1367D01*
X16703Y1358D01*
X16692Y1349D01*
X16680Y1340D01*
X16666Y1332D01*
X16651Y1324D01*
X16635Y1316D01*
X16618Y1311D01*
X16600Y1306D01*
X16580Y1303D01*
X16559Y1302D01*
X16554D01*
X16549Y1303D01*
X16540Y1303D01*
X16531Y1305D01*
X16520Y1307D01*
X16508Y1310D01*
X16495Y1314D01*
X16480Y1319D01*
X16465Y1326D01*
X16450Y1334D01*
X16436Y1344D01*
X16420Y1354D01*
X16405Y1367D01*
X16391Y1383D01*
X16378Y1400D01*
X16377Y1401D01*
X16376Y1404D01*
X16372Y1409D01*
X16368Y1416D01*
X16363Y1425D01*
X16358Y1435D01*
X16353Y1447D01*
X16347Y1460D01*
X16341Y1476D01*
X16335Y1491D01*
X16331Y1509D01*
X16326Y1528D01*
X16322Y1549D01*
X16318Y1570D01*
X16317Y1592D01*
X16316Y1615D01*
Y1616D01*
Y1617D01*
Y1619D01*
Y1622D01*
X16317Y1631D01*
Y1641D01*
X16318Y1654D01*
X16320Y1670D01*
X16322Y1687D01*
X16325Y1705D01*
X16328Y1725D01*
X16333Y1745D01*
X16339Y1765D01*
X16345Y1786D01*
X16354Y1805D01*
X16363Y1824D01*
X16373Y1843D01*
X16385Y1859D01*
X16386Y1860D01*
X16389Y1863D01*
X16393Y1868D01*
X16398Y1872D01*
X16405Y1879D01*
X16413Y1886D01*
X16422Y1895D01*
X16434Y1903D01*
X16445Y1910D01*
X16458Y1918D01*
X16473Y1926D01*
X16489Y1932D01*
X16505Y1937D01*
X16522Y1942D01*
X16541Y1945D01*
X16560Y1945D01*
X16567D01*
X16572Y1945D01*
D02*
G37*
G36*
X18274D02*
X18280D01*
X18287Y1944D01*
X18294Y1942D01*
X18303Y1941D01*
X18321Y1936D01*
X18342Y1929D01*
X18363Y1920D01*
X18374Y1913D01*
X18385Y1907D01*
X18385Y1906D01*
X18387Y1905D01*
X18390Y1903D01*
X18394Y1900D01*
X18399Y1895D01*
X18404Y1890D01*
X18410Y1885D01*
X18417Y1878D01*
X18423Y1871D01*
X18431Y1863D01*
X18438Y1854D01*
X18445Y1844D01*
X18453Y1833D01*
X18460Y1821D01*
X18473Y1795D01*
Y1795D01*
X18475Y1792D01*
X18476Y1788D01*
X18478Y1782D01*
X18481Y1776D01*
X18484Y1767D01*
X18486Y1758D01*
X18490Y1747D01*
X18493Y1735D01*
X18495Y1722D01*
X18499Y1707D01*
X18501Y1692D01*
X18503Y1676D01*
X18504Y1658D01*
X18506Y1622D01*
Y1621D01*
Y1617D01*
Y1609D01*
X18505Y1599D01*
X18504Y1588D01*
X18503Y1574D01*
X18501Y1559D01*
X18498Y1543D01*
X18495Y1525D01*
X18490Y1507D01*
X18486Y1488D01*
X18480Y1469D01*
X18472Y1450D01*
X18463Y1432D01*
X18454Y1414D01*
X18443Y1397D01*
X18442Y1396D01*
X18440Y1393D01*
X18435Y1388D01*
X18431Y1382D01*
X18423Y1375D01*
X18415Y1367D01*
X18405Y1358D01*
X18394Y1349D01*
X18382Y1340D01*
X18368Y1332D01*
X18353Y1324D01*
X18337Y1316D01*
X18320Y1311D01*
X18302Y1306D01*
X18282Y1303D01*
X18262Y1302D01*
X18257D01*
X18251Y1303D01*
X18243Y1303D01*
X18233Y1305D01*
X18222Y1307D01*
X18210Y1310D01*
X18197Y1314D01*
X18182Y1319D01*
X18167Y1326D01*
X18153Y1334D01*
X18138Y1344D01*
X18122Y1354D01*
X18107Y1367D01*
X18094Y1383D01*
X18080Y1400D01*
X18080Y1401D01*
X18078Y1404D01*
X18075Y1409D01*
X18071Y1416D01*
X18066Y1425D01*
X18061Y1435D01*
X18055Y1447D01*
X18049Y1460D01*
X18044Y1476D01*
X18038Y1491D01*
X18033Y1509D01*
X18028Y1528D01*
X18024Y1549D01*
X18021Y1570D01*
X18019Y1592D01*
X18018Y1615D01*
Y1616D01*
Y1617D01*
Y1619D01*
Y1622D01*
X18019Y1631D01*
Y1641D01*
X18021Y1654D01*
X18022Y1670D01*
X18024Y1687D01*
X18027Y1705D01*
X18030Y1725D01*
X18035Y1745D01*
X18041Y1765D01*
X18048Y1786D01*
X18056Y1805D01*
X18065Y1824D01*
X18076Y1843D01*
X18088Y1859D01*
X18089Y1860D01*
X18091Y1863D01*
X18095Y1868D01*
X18100Y1872D01*
X18107Y1879D01*
X18116Y1886D01*
X18125Y1895D01*
X18136Y1903D01*
X18148Y1910D01*
X18161Y1918D01*
X18176Y1926D01*
X18191Y1932D01*
X18208Y1937D01*
X18225Y1942D01*
X18244Y1945D01*
X18262Y1945D01*
X18269D01*
X18274Y1945D01*
D02*
G37*
G36*
X8135D02*
X8140D01*
X8148Y1944D01*
X8155Y1942D01*
X8163Y1941D01*
X8182Y1936D01*
X8203Y1929D01*
X8224Y1920D01*
X8235Y1913D01*
X8245Y1907D01*
X8246Y1906D01*
X8248Y1905D01*
X8251Y1903D01*
X8254Y1900D01*
X8259Y1895D01*
X8265Y1890D01*
X8271Y1885D01*
X8277Y1878D01*
X8284Y1871D01*
X8291Y1863D01*
X8299Y1854D01*
X8306Y1844D01*
X8313Y1833D01*
X8321Y1821D01*
X8334Y1795D01*
Y1795D01*
X8336Y1792D01*
X8337Y1788D01*
X8339Y1782D01*
X8341Y1776D01*
X8345Y1767D01*
X8347Y1758D01*
X8350Y1747D01*
X8354Y1735D01*
X8356Y1722D01*
X8359Y1707D01*
X8362Y1692D01*
X8363Y1676D01*
X8365Y1658D01*
X8367Y1622D01*
Y1621D01*
Y1617D01*
Y1609D01*
X8366Y1599D01*
X8365Y1588D01*
X8363Y1574D01*
X8362Y1559D01*
X8359Y1543D01*
X8355Y1525D01*
X8351Y1507D01*
X8346Y1488D01*
X8340Y1469D01*
X8333Y1450D01*
X8324Y1432D01*
X8315Y1414D01*
X8304Y1397D01*
X8303Y1396D01*
X8300Y1393D01*
X8296Y1388D01*
X8291Y1382D01*
X8284Y1375D01*
X8276Y1367D01*
X8266Y1358D01*
X8255Y1349D01*
X8243Y1340D01*
X8229Y1332D01*
X8214Y1324D01*
X8198Y1316D01*
X8181Y1311D01*
X8163Y1306D01*
X8143Y1303D01*
X8122Y1302D01*
X8117D01*
X8112Y1303D01*
X8103Y1303D01*
X8094Y1305D01*
X8083Y1307D01*
X8071Y1310D01*
X8058Y1314D01*
X8043Y1319D01*
X8028Y1326D01*
X8013Y1334D01*
X7999Y1344D01*
X7983Y1354D01*
X7968Y1367D01*
X7954Y1383D01*
X7941Y1400D01*
X7940Y1401D01*
X7939Y1404D01*
X7935Y1409D01*
X7931Y1416D01*
X7926Y1425D01*
X7921Y1435D01*
X7916Y1447D01*
X7910Y1460D01*
X7904Y1476D01*
X7898Y1491D01*
X7894Y1509D01*
X7889Y1528D01*
X7885Y1549D01*
X7881Y1570D01*
X7880Y1592D01*
X7879Y1615D01*
Y1616D01*
Y1617D01*
Y1619D01*
Y1622D01*
X7880Y1631D01*
Y1641D01*
X7881Y1654D01*
X7883Y1670D01*
X7885Y1687D01*
X7888Y1705D01*
X7891Y1725D01*
X7896Y1745D01*
X7902Y1765D01*
X7908Y1786D01*
X7917Y1805D01*
X7926Y1824D01*
X7936Y1843D01*
X7949Y1859D01*
X7949Y1860D01*
X7952Y1863D01*
X7956Y1868D01*
X7961Y1872D01*
X7968Y1879D01*
X7976Y1886D01*
X7985Y1895D01*
X7997Y1903D01*
X8008Y1910D01*
X8021Y1918D01*
X8036Y1926D01*
X8052Y1932D01*
X8068Y1937D01*
X8085Y1942D01*
X8104Y1945D01*
X8123Y1945D01*
X8130D01*
X8135Y1945D01*
D02*
G37*
G36*
X13324D02*
X13329D01*
X13337Y1944D01*
X13344Y1942D01*
X13352Y1941D01*
X13371Y1936D01*
X13392Y1929D01*
X13413Y1920D01*
X13424Y1913D01*
X13434Y1907D01*
X13435Y1906D01*
X13437Y1905D01*
X13440Y1903D01*
X13443Y1900D01*
X13448Y1895D01*
X13454Y1890D01*
X13460Y1885D01*
X13466Y1878D01*
X13473Y1871D01*
X13480Y1863D01*
X13488Y1854D01*
X13495Y1844D01*
X13502Y1833D01*
X13510Y1821D01*
X13523Y1795D01*
Y1795D01*
X13525Y1792D01*
X13526Y1788D01*
X13528Y1782D01*
X13530Y1776D01*
X13534Y1767D01*
X13536Y1758D01*
X13539Y1747D01*
X13543Y1735D01*
X13545Y1722D01*
X13548Y1707D01*
X13551Y1692D01*
X13552Y1676D01*
X13554Y1658D01*
X13556Y1622D01*
Y1621D01*
Y1617D01*
Y1609D01*
X13555Y1599D01*
X13554Y1588D01*
X13552Y1574D01*
X13551Y1559D01*
X13547Y1543D01*
X13544Y1525D01*
X13540Y1507D01*
X13535Y1488D01*
X13529Y1469D01*
X13522Y1450D01*
X13513Y1432D01*
X13504Y1414D01*
X13493Y1397D01*
X13492Y1396D01*
X13489Y1393D01*
X13485Y1388D01*
X13480Y1382D01*
X13473Y1375D01*
X13465Y1367D01*
X13455Y1358D01*
X13444Y1349D01*
X13432Y1340D01*
X13418Y1332D01*
X13403Y1324D01*
X13387Y1316D01*
X13370Y1311D01*
X13351Y1306D01*
X13332Y1303D01*
X13311Y1302D01*
X13306D01*
X13301Y1303D01*
X13292Y1303D01*
X13283Y1305D01*
X13272Y1307D01*
X13260Y1310D01*
X13247Y1314D01*
X13232Y1319D01*
X13217Y1326D01*
X13202Y1334D01*
X13187Y1344D01*
X13172Y1354D01*
X13157Y1367D01*
X13143Y1383D01*
X13130Y1400D01*
X13129Y1401D01*
X13128Y1404D01*
X13124Y1409D01*
X13120Y1416D01*
X13115Y1425D01*
X13110Y1435D01*
X13105Y1447D01*
X13099Y1460D01*
X13093Y1476D01*
X13087Y1491D01*
X13083Y1509D01*
X13078Y1528D01*
X13074Y1549D01*
X13070Y1570D01*
X13069Y1592D01*
X13068Y1615D01*
Y1616D01*
Y1617D01*
Y1619D01*
Y1622D01*
X13069Y1631D01*
Y1641D01*
X13070Y1654D01*
X13072Y1670D01*
X13074Y1687D01*
X13077Y1705D01*
X13080Y1725D01*
X13085Y1745D01*
X13091Y1765D01*
X13097Y1786D01*
X13105Y1805D01*
X13115Y1824D01*
X13125Y1843D01*
X13137Y1859D01*
X13138Y1860D01*
X13141Y1863D01*
X13145Y1868D01*
X13150Y1872D01*
X13157Y1879D01*
X13165Y1886D01*
X13174Y1895D01*
X13186Y1903D01*
X13197Y1910D01*
X13210Y1918D01*
X13225Y1926D01*
X13241Y1932D01*
X13257Y1937D01*
X13274Y1942D01*
X13293Y1945D01*
X13312Y1945D01*
X13319D01*
X13324Y1945D01*
D02*
G37*
G36*
X9297Y1861D02*
X8996D01*
Y1672D01*
X9279D01*
Y1598D01*
X8996D01*
Y1386D01*
X9310D01*
Y1312D01*
X8929D01*
Y1935D01*
X9297D01*
Y1861D01*
D02*
G37*
G36*
X10933Y1312D02*
X10855D01*
X10796Y1501D01*
X10582D01*
X10527Y1312D01*
X10456D01*
X10651Y1935D01*
X10725D01*
X10933Y1312D01*
D02*
G37*
G36*
X11833Y1861D02*
X11532D01*
Y1672D01*
X11815D01*
Y1598D01*
X11532D01*
Y1386D01*
X11845D01*
Y1312D01*
X11465D01*
Y1935D01*
X11833D01*
Y1861D01*
D02*
G37*
G36*
X9646Y1934D02*
X9653D01*
X9669Y1932D01*
X9686Y1931D01*
X9703Y1927D01*
X9720Y1922D01*
X9727Y1920D01*
X9734Y1917D01*
X9735Y1916D01*
X9739Y1913D01*
X9745Y1909D01*
X9753Y1903D01*
X9762Y1895D01*
X9771Y1885D01*
X9780Y1872D01*
X9789Y1859D01*
Y1858D01*
X9789Y1857D01*
X9791Y1854D01*
X9792Y1851D01*
X9796Y1843D01*
X9800Y1831D01*
X9803Y1818D01*
X9807Y1802D01*
X9810Y1785D01*
X9811Y1765D01*
Y1764D01*
Y1762D01*
Y1758D01*
X9810Y1754D01*
Y1747D01*
X9809Y1740D01*
X9806Y1724D01*
X9802Y1706D01*
X9795Y1687D01*
X9786Y1668D01*
X9780Y1659D01*
X9774Y1650D01*
Y1649D01*
X9772Y1649D01*
X9770Y1646D01*
X9767Y1644D01*
X9763Y1640D01*
X9758Y1636D01*
X9753Y1631D01*
X9747Y1627D01*
X9732Y1617D01*
X9713Y1608D01*
X9692Y1601D01*
X9667Y1595D01*
X9669Y1594D01*
X9672Y1592D01*
X9677Y1589D01*
X9683Y1585D01*
X9698Y1573D01*
X9704Y1567D01*
X9711Y1561D01*
X9712Y1559D01*
X9716Y1554D01*
X9721Y1547D01*
X9729Y1537D01*
X9736Y1526D01*
X9745Y1512D01*
X9754Y1497D01*
X9763Y1481D01*
X9853Y1312D01*
X9767D01*
X9699Y1441D01*
X9698Y1442D01*
X9698Y1444D01*
X9695Y1449D01*
X9693Y1453D01*
X9689Y1460D01*
X9686Y1467D01*
X9677Y1483D01*
X9667Y1499D01*
X9657Y1517D01*
X9648Y1531D01*
X9643Y1538D01*
X9639Y1544D01*
X9639Y1544D01*
X9636Y1548D01*
X9632Y1553D01*
X9627Y1558D01*
X9621Y1564D01*
X9615Y1570D01*
X9608Y1575D01*
X9601Y1579D01*
X9600Y1580D01*
X9598Y1581D01*
X9593Y1582D01*
X9587Y1584D01*
X9579Y1585D01*
X9570Y1587D01*
X9561Y1589D01*
X9470D01*
Y1312D01*
X9403D01*
Y1935D01*
X9640D01*
X9646Y1934D01*
D02*
G37*
G36*
X10179Y1386D02*
X10431D01*
Y1312D01*
X10112D01*
Y1935D01*
X10179D01*
Y1386D01*
D02*
G37*
G36*
X11198Y1576D02*
Y1312D01*
X11131D01*
Y1576D01*
X10934Y1935D01*
X11015D01*
X11116Y1747D01*
Y1746D01*
X11118Y1745D01*
X11119Y1741D01*
X11121Y1738D01*
X11124Y1733D01*
X11127Y1727D01*
X11134Y1713D01*
X11142Y1697D01*
X11151Y1680D01*
X11160Y1661D01*
X11169Y1642D01*
Y1643D01*
X11169Y1644D01*
X11171Y1647D01*
X11173Y1651D01*
X11175Y1655D01*
X11178Y1661D01*
X11180Y1667D01*
X11184Y1674D01*
X11192Y1690D01*
X11201Y1709D01*
X11212Y1730D01*
X11224Y1752D01*
X11323Y1935D01*
X11402D01*
X11198Y1576D01*
D02*
G37*
G36*
X17289Y1312D02*
X17219D01*
X16952Y1799D01*
Y1312D01*
X16887D01*
Y1935D01*
X16956D01*
X17224Y1446D01*
Y1935D01*
X17289D01*
Y1312D01*
D02*
G37*
G36*
X8667D02*
X8597D01*
X8400Y1935D01*
X8473D01*
X8605Y1482D01*
Y1481D01*
X8606Y1480D01*
X8607Y1477D01*
X8608Y1473D01*
X8609Y1468D01*
X8611Y1463D01*
X8614Y1450D01*
X8618Y1435D01*
X8623Y1417D01*
X8628Y1399D01*
X8632Y1380D01*
Y1381D01*
X8633Y1383D01*
X8634Y1385D01*
X8635Y1389D01*
X8636Y1394D01*
X8637Y1399D01*
X8641Y1412D01*
X8645Y1428D01*
X8649Y1445D01*
X8654Y1463D01*
X8659Y1482D01*
X8798Y1935D01*
X8866D01*
X8667Y1312D01*
D02*
G37*
G36*
X19457Y1945D02*
X19463D01*
X19476Y1943D01*
X19492Y1940D01*
X19508Y1936D01*
X19525Y1930D01*
X19542Y1922D01*
X19542D01*
X19543Y1922D01*
X19549Y1918D01*
X19556Y1913D01*
X19566Y1906D01*
X19576Y1897D01*
X19588Y1886D01*
X19598Y1872D01*
X19607Y1858D01*
Y1857D01*
X19608Y1856D01*
X19610Y1854D01*
X19611Y1850D01*
X19613Y1846D01*
X19615Y1841D01*
X19620Y1830D01*
X19624Y1815D01*
X19629Y1799D01*
X19632Y1780D01*
X19634Y1759D01*
X19570Y1754D01*
Y1754D01*
Y1756D01*
X19569Y1759D01*
X19568Y1763D01*
X19567Y1768D01*
X19566Y1774D01*
X19563Y1787D01*
X19558Y1802D01*
X19552Y1817D01*
X19543Y1831D01*
X19533Y1843D01*
X19531Y1845D01*
X19527Y1848D01*
X19520Y1852D01*
X19510Y1858D01*
X19497Y1863D01*
X19483Y1868D01*
X19465Y1871D01*
X19445Y1872D01*
X19435D01*
X19430Y1872D01*
X19425Y1871D01*
X19412Y1869D01*
X19397Y1866D01*
X19383Y1862D01*
X19369Y1855D01*
X19356Y1846D01*
X19355Y1845D01*
X19351Y1841D01*
X19347Y1836D01*
X19342Y1828D01*
X19336Y1819D01*
X19332Y1808D01*
X19328Y1795D01*
X19327Y1780D01*
Y1778D01*
Y1774D01*
X19328Y1767D01*
X19329Y1758D01*
X19332Y1749D01*
X19336Y1740D01*
X19341Y1731D01*
X19348Y1722D01*
X19349Y1721D01*
X19353Y1718D01*
X19360Y1714D01*
X19364Y1712D01*
X19369Y1708D01*
X19375Y1706D01*
X19383Y1703D01*
X19391Y1699D01*
X19400Y1695D01*
X19410Y1691D01*
X19422Y1688D01*
X19434Y1684D01*
X19448Y1680D01*
X19449D01*
X19451Y1679D01*
X19456Y1678D01*
X19460Y1676D01*
X19466Y1675D01*
X19474Y1672D01*
X19490Y1667D01*
X19507Y1662D01*
X19524Y1656D01*
X19541Y1649D01*
X19547Y1647D01*
X19554Y1644D01*
X19555D01*
X19556Y1643D01*
X19558Y1641D01*
X19561Y1640D01*
X19570Y1634D01*
X19580Y1627D01*
X19592Y1617D01*
X19603Y1607D01*
X19615Y1594D01*
X19624Y1581D01*
Y1580D01*
X19625Y1579D01*
X19627Y1576D01*
X19629Y1574D01*
X19633Y1566D01*
X19637Y1554D01*
X19642Y1541D01*
X19645Y1526D01*
X19648Y1508D01*
X19649Y1489D01*
Y1488D01*
Y1486D01*
Y1484D01*
Y1480D01*
X19648Y1475D01*
X19647Y1469D01*
X19646Y1456D01*
X19643Y1441D01*
X19638Y1425D01*
X19632Y1408D01*
X19624Y1390D01*
Y1389D01*
X19623Y1389D01*
X19621Y1386D01*
X19619Y1383D01*
X19613Y1376D01*
X19606Y1366D01*
X19596Y1355D01*
X19584Y1344D01*
X19570Y1334D01*
X19555Y1324D01*
X19554D01*
X19553Y1323D01*
X19551Y1322D01*
X19547Y1321D01*
X19543Y1319D01*
X19538Y1316D01*
X19526Y1313D01*
X19511Y1309D01*
X19493Y1305D01*
X19474Y1303D01*
X19451Y1302D01*
X19442D01*
X19436Y1303D01*
X19428Y1303D01*
X19419Y1305D01*
X19408Y1307D01*
X19397Y1309D01*
X19385Y1312D01*
X19373Y1316D01*
X19360Y1320D01*
X19347Y1326D01*
X19335Y1332D01*
X19323Y1339D01*
X19310Y1348D01*
X19300Y1358D01*
X19299Y1359D01*
X19297Y1361D01*
X19295Y1364D01*
X19291Y1369D01*
X19287Y1375D01*
X19282Y1382D01*
X19277Y1390D01*
X19272Y1399D01*
X19266Y1410D01*
X19261Y1421D01*
X19256Y1435D01*
X19252Y1449D01*
X19248Y1463D01*
X19246Y1479D01*
X19243Y1496D01*
X19242Y1514D01*
X19306Y1520D01*
Y1519D01*
Y1517D01*
X19307Y1515D01*
Y1512D01*
X19309Y1502D01*
X19311Y1490D01*
X19315Y1477D01*
X19318Y1464D01*
X19324Y1451D01*
X19329Y1439D01*
X19330Y1438D01*
X19333Y1435D01*
X19337Y1430D01*
X19342Y1423D01*
X19350Y1416D01*
X19358Y1408D01*
X19369Y1400D01*
X19380Y1394D01*
X19382Y1393D01*
X19386Y1391D01*
X19393Y1388D01*
X19402Y1385D01*
X19414Y1382D01*
X19427Y1379D01*
X19441Y1377D01*
X19456Y1376D01*
X19462D01*
X19466Y1377D01*
X19471D01*
X19477Y1378D01*
X19491Y1380D01*
X19506Y1384D01*
X19521Y1389D01*
X19536Y1395D01*
X19550Y1405D01*
X19552Y1407D01*
X19555Y1411D01*
X19561Y1417D01*
X19567Y1426D01*
X19573Y1437D01*
X19579Y1449D01*
X19582Y1465D01*
X19583Y1481D01*
Y1483D01*
Y1486D01*
X19583Y1491D01*
X19582Y1498D01*
X19580Y1505D01*
X19579Y1513D01*
X19575Y1521D01*
X19571Y1530D01*
X19570Y1531D01*
X19569Y1533D01*
X19566Y1537D01*
X19562Y1542D01*
X19556Y1547D01*
X19551Y1553D01*
X19543Y1558D01*
X19534Y1563D01*
X19533Y1564D01*
X19529Y1566D01*
X19526Y1567D01*
X19522Y1569D01*
X19518Y1571D01*
X19512Y1573D01*
X19506Y1576D01*
X19497Y1578D01*
X19489Y1581D01*
X19479Y1585D01*
X19469Y1588D01*
X19456Y1592D01*
X19443Y1596D01*
X19429Y1600D01*
X19428D01*
X19425Y1601D01*
X19422Y1603D01*
X19417Y1604D01*
X19410Y1606D01*
X19404Y1608D01*
X19388Y1613D01*
X19372Y1620D01*
X19355Y1627D01*
X19339Y1635D01*
X19333Y1639D01*
X19326Y1643D01*
X19324Y1644D01*
X19321Y1647D01*
X19315Y1652D01*
X19309Y1658D01*
X19301Y1666D01*
X19293Y1676D01*
X19286Y1686D01*
X19278Y1698D01*
X19278Y1699D01*
X19276Y1704D01*
X19274Y1711D01*
X19270Y1720D01*
X19267Y1731D01*
X19265Y1744D01*
X19263Y1758D01*
X19262Y1773D01*
Y1774D01*
Y1777D01*
Y1781D01*
X19263Y1786D01*
X19264Y1792D01*
X19265Y1800D01*
X19266Y1808D01*
X19268Y1818D01*
X19274Y1837D01*
X19278Y1847D01*
X19283Y1858D01*
X19288Y1868D01*
X19295Y1878D01*
X19302Y1888D01*
X19310Y1897D01*
X19311Y1898D01*
X19313Y1900D01*
X19315Y1901D01*
X19319Y1904D01*
X19324Y1909D01*
X19330Y1913D01*
X19337Y1917D01*
X19346Y1922D01*
X19355Y1926D01*
X19365Y1930D01*
X19375Y1934D01*
X19387Y1938D01*
X19400Y1941D01*
X19413Y1943D01*
X19428Y1945D01*
X19442Y1945D01*
X19452D01*
X19457Y1945D01*
D02*
G37*
G36*
X7616D02*
X7622Y1944D01*
X7630Y1943D01*
X7638Y1941D01*
X7647Y1940D01*
X7666Y1934D01*
X7677Y1931D01*
X7688Y1926D01*
X7699Y1920D01*
X7710Y1914D01*
X7721Y1907D01*
X7730Y1899D01*
X7731Y1898D01*
X7733Y1896D01*
X7735Y1894D01*
X7739Y1890D01*
X7744Y1886D01*
X7748Y1880D01*
X7754Y1872D01*
X7760Y1865D01*
X7766Y1856D01*
X7772Y1845D01*
X7778Y1835D01*
X7785Y1822D01*
X7790Y1809D01*
X7796Y1795D01*
X7801Y1781D01*
X7805Y1764D01*
X7739Y1745D01*
Y1747D01*
X7737Y1751D01*
X7734Y1758D01*
X7732Y1766D01*
X7727Y1776D01*
X7722Y1786D01*
X7716Y1798D01*
X7708Y1810D01*
X7700Y1822D01*
X7690Y1834D01*
X7679Y1845D01*
X7666Y1854D01*
X7652Y1863D01*
X7637Y1869D01*
X7621Y1873D01*
X7602Y1875D01*
X7593D01*
X7584Y1873D01*
X7571Y1872D01*
X7557Y1868D01*
X7543Y1864D01*
X7528Y1858D01*
X7513Y1849D01*
X7511Y1848D01*
X7507Y1844D01*
X7500Y1837D01*
X7492Y1829D01*
X7483Y1818D01*
X7473Y1803D01*
X7463Y1786D01*
X7454Y1767D01*
Y1766D01*
X7453Y1764D01*
X7452Y1761D01*
X7451Y1757D01*
X7449Y1751D01*
X7447Y1745D01*
X7445Y1737D01*
X7443Y1729D01*
X7441Y1719D01*
X7439Y1708D01*
X7437Y1697D01*
X7435Y1685D01*
X7434Y1672D01*
X7433Y1658D01*
X7432Y1627D01*
Y1626D01*
Y1622D01*
Y1615D01*
X7433Y1606D01*
X7434Y1595D01*
X7434Y1584D01*
X7436Y1570D01*
X7438Y1555D01*
X7443Y1524D01*
X7451Y1493D01*
X7456Y1477D01*
X7461Y1462D01*
X7469Y1449D01*
X7476Y1435D01*
X7477Y1435D01*
X7479Y1433D01*
X7481Y1430D01*
X7484Y1426D01*
X7489Y1421D01*
X7494Y1416D01*
X7501Y1410D01*
X7508Y1404D01*
X7516Y1398D01*
X7525Y1392D01*
X7535Y1387D01*
X7546Y1382D01*
X7557Y1378D01*
X7570Y1375D01*
X7582Y1373D01*
X7596Y1372D01*
X7602D01*
X7605Y1373D01*
X7610D01*
X7616Y1375D01*
X7629Y1377D01*
X7643Y1382D01*
X7659Y1389D01*
X7675Y1398D01*
X7684Y1404D01*
X7691Y1411D01*
X7692Y1412D01*
X7693Y1412D01*
X7695Y1415D01*
X7698Y1418D01*
X7701Y1422D01*
X7704Y1427D01*
X7708Y1434D01*
X7713Y1440D01*
X7717Y1449D01*
X7722Y1458D01*
X7726Y1467D01*
X7731Y1478D01*
X7735Y1490D01*
X7739Y1503D01*
X7742Y1516D01*
X7745Y1531D01*
X7813Y1510D01*
Y1509D01*
X7812Y1505D01*
X7811Y1500D01*
X7809Y1493D01*
X7806Y1484D01*
X7803Y1474D01*
X7799Y1462D01*
X7794Y1451D01*
X7784Y1425D01*
X7770Y1399D01*
X7753Y1374D01*
X7744Y1363D01*
X7734Y1353D01*
X7733Y1352D01*
X7731Y1350D01*
X7728Y1348D01*
X7724Y1344D01*
X7718Y1341D01*
X7712Y1336D01*
X7704Y1332D01*
X7696Y1327D01*
X7686Y1322D01*
X7676Y1318D01*
X7665Y1313D01*
X7652Y1310D01*
X7640Y1307D01*
X7626Y1304D01*
X7612Y1303D01*
X7598Y1302D01*
X7591D01*
X7585Y1303D01*
X7580D01*
X7572Y1303D01*
X7565Y1305D01*
X7556Y1306D01*
X7537Y1310D01*
X7516Y1316D01*
X7496Y1325D01*
X7476Y1336D01*
X7475Y1337D01*
X7474Y1338D01*
X7471Y1340D01*
X7468Y1343D01*
X7464Y1347D01*
X7459Y1351D01*
X7453Y1357D01*
X7447Y1363D01*
X7441Y1371D01*
X7434Y1378D01*
X7428Y1388D01*
X7420Y1398D01*
X7414Y1408D01*
X7407Y1421D01*
X7401Y1433D01*
X7394Y1447D01*
Y1448D01*
X7393Y1450D01*
X7391Y1454D01*
X7389Y1461D01*
X7387Y1467D01*
X7384Y1476D01*
X7381Y1486D01*
X7379Y1498D01*
X7375Y1511D01*
X7372Y1525D01*
X7370Y1540D01*
X7367Y1555D01*
X7365Y1572D01*
X7364Y1590D01*
X7362Y1627D01*
Y1628D01*
Y1632D01*
Y1637D01*
X7363Y1644D01*
Y1654D01*
X7364Y1663D01*
X7365Y1675D01*
X7366Y1687D01*
X7368Y1701D01*
X7370Y1715D01*
X7375Y1744D01*
X7384Y1773D01*
X7394Y1801D01*
Y1802D01*
X7396Y1804D01*
X7397Y1808D01*
X7400Y1813D01*
X7403Y1819D01*
X7407Y1826D01*
X7417Y1841D01*
X7429Y1859D01*
X7444Y1877D01*
X7461Y1894D01*
X7470Y1901D01*
X7480Y1909D01*
X7481Y1909D01*
X7483Y1910D01*
X7486Y1912D01*
X7490Y1914D01*
X7495Y1917D01*
X7502Y1920D01*
X7508Y1923D01*
X7516Y1927D01*
X7534Y1934D01*
X7556Y1940D01*
X7579Y1944D01*
X7591Y1945D01*
X7611D01*
X7616Y1945D01*
D02*
G37*
G36*
X15884Y1641D02*
X16076Y1312D01*
X15993D01*
X15864Y1534D01*
X15863Y1535D01*
X15862Y1537D01*
X15860Y1540D01*
X15857Y1546D01*
X15854Y1552D01*
X15850Y1558D01*
X15842Y1575D01*
X15841Y1573D01*
X15839Y1570D01*
X15836Y1564D01*
X15833Y1557D01*
X15825Y1542D01*
X15821Y1535D01*
X15817Y1529D01*
X15689Y1312D01*
X15609D01*
X15806Y1636D01*
X15632Y1935D01*
X15711D01*
X15805Y1775D01*
Y1774D01*
X15807Y1772D01*
X15807Y1770D01*
X15810Y1767D01*
X15815Y1758D01*
X15821Y1747D01*
X15828Y1735D01*
X15834Y1722D01*
X15841Y1710D01*
X15846Y1699D01*
X15847Y1700D01*
X15849Y1704D01*
X15852Y1711D01*
X15857Y1720D01*
X15863Y1731D01*
X15870Y1742D01*
X15878Y1755D01*
X15886Y1769D01*
X15989Y1935D01*
X16062D01*
X15884Y1641D01*
D02*
G37*
G36*
X20823Y1861D02*
X20522D01*
Y1672D01*
X20805D01*
Y1598D01*
X20522D01*
Y1386D01*
X20836D01*
Y1312D01*
X20455D01*
Y1935D01*
X20823D01*
Y1861D01*
D02*
G37*
G36*
X20136Y1934D02*
X20150Y1933D01*
X20166Y1932D01*
X20183Y1930D01*
X20198Y1927D01*
X20212Y1923D01*
X20213D01*
X20214Y1922D01*
X20217Y1922D01*
X20220Y1920D01*
X20228Y1916D01*
X20239Y1911D01*
X20251Y1903D01*
X20263Y1894D01*
X20277Y1882D01*
X20289Y1868D01*
Y1868D01*
X20291Y1867D01*
X20293Y1864D01*
X20295Y1861D01*
X20301Y1853D01*
X20308Y1841D01*
X20317Y1827D01*
X20325Y1810D01*
X20333Y1790D01*
X20340Y1769D01*
Y1768D01*
X20341Y1767D01*
X20342Y1763D01*
X20344Y1758D01*
X20344Y1753D01*
X20346Y1746D01*
X20348Y1738D01*
X20350Y1729D01*
X20352Y1719D01*
X20353Y1708D01*
X20355Y1696D01*
X20356Y1684D01*
X20358Y1657D01*
X20359Y1626D01*
Y1626D01*
Y1622D01*
Y1617D01*
X20358Y1608D01*
Y1599D01*
X20358Y1589D01*
X20357Y1577D01*
X20355Y1564D01*
X20353Y1550D01*
X20352Y1536D01*
X20346Y1506D01*
X20339Y1476D01*
X20328Y1447D01*
Y1446D01*
X20326Y1444D01*
X20325Y1440D01*
X20322Y1435D01*
X20319Y1429D01*
X20316Y1422D01*
X20307Y1407D01*
X20295Y1389D01*
X20281Y1372D01*
X20266Y1356D01*
X20258Y1349D01*
X20249Y1343D01*
X20248D01*
X20246Y1341D01*
X20244Y1340D01*
X20239Y1338D01*
X20235Y1335D01*
X20229Y1333D01*
X20222Y1330D01*
X20215Y1328D01*
X20206Y1325D01*
X20196Y1322D01*
X20186Y1320D01*
X20175Y1317D01*
X20149Y1314D01*
X20121Y1312D01*
X19938D01*
Y1935D01*
X20130D01*
X20136Y1934D01*
D02*
G37*
%LPC*%
G36*
X13869Y1866D02*
X13708D01*
Y1660D01*
X13861D01*
X13869Y1661D01*
X13880Y1662D01*
X13891Y1663D01*
X13903Y1665D01*
X13915Y1667D01*
X13925Y1671D01*
X13925Y1672D01*
X13929Y1673D01*
X13933Y1676D01*
X13939Y1680D01*
X13945Y1685D01*
X13952Y1691D01*
X13958Y1699D01*
X13964Y1707D01*
X13965Y1708D01*
X13966Y1711D01*
X13969Y1717D01*
X13971Y1723D01*
X13974Y1731D01*
X13976Y1741D01*
X13978Y1753D01*
X13979Y1764D01*
Y1765D01*
Y1767D01*
Y1769D01*
Y1772D01*
X13977Y1781D01*
X13976Y1791D01*
X13972Y1804D01*
X13967Y1816D01*
X13960Y1828D01*
X13951Y1839D01*
X13949Y1840D01*
X13946Y1843D01*
X13939Y1847D01*
X13930Y1853D01*
X13919Y1858D01*
X13905Y1862D01*
X13888Y1865D01*
X13869Y1866D01*
D02*
G37*
G36*
X12167D02*
X12006D01*
Y1660D01*
X12158D01*
X12167Y1661D01*
X12177Y1662D01*
X12189Y1663D01*
X12201Y1665D01*
X12213Y1667D01*
X12222Y1671D01*
X12223Y1672D01*
X12226Y1673D01*
X12231Y1676D01*
X12236Y1680D01*
X12243Y1685D01*
X12249Y1691D01*
X12256Y1699D01*
X12262Y1707D01*
X12263Y1708D01*
X12264Y1711D01*
X12267Y1717D01*
X12269Y1723D01*
X12272Y1731D01*
X12274Y1741D01*
X12276Y1753D01*
X12276Y1764D01*
Y1765D01*
Y1767D01*
Y1769D01*
Y1772D01*
X12275Y1781D01*
X12273Y1791D01*
X12270Y1804D01*
X12265Y1816D01*
X12258Y1828D01*
X12249Y1839D01*
X12247Y1840D01*
X12244Y1843D01*
X12237Y1847D01*
X12228Y1853D01*
X12217Y1858D01*
X12203Y1862D01*
X12185Y1865D01*
X12167Y1866D01*
D02*
G37*
G36*
X18808Y1861D02*
X18659D01*
Y1639D01*
X18796D01*
X18800Y1640D01*
X18806D01*
X18812Y1640D01*
X18825Y1642D01*
X18841Y1645D01*
X18855Y1650D01*
X18869Y1658D01*
X18882Y1667D01*
X18883Y1668D01*
X18886Y1672D01*
X18891Y1678D01*
X18896Y1688D01*
X18902Y1699D01*
X18906Y1714D01*
X18909Y1731D01*
X18911Y1752D01*
Y1753D01*
Y1754D01*
Y1758D01*
X18910Y1765D01*
X18909Y1774D01*
X18908Y1784D01*
X18905Y1795D01*
X18901Y1805D01*
X18896Y1815D01*
X18896Y1816D01*
X18894Y1819D01*
X18891Y1824D01*
X18886Y1830D01*
X18882Y1836D01*
X18876Y1841D01*
X18869Y1847D01*
X18862Y1851D01*
X18861Y1852D01*
X18858Y1853D01*
X18853Y1854D01*
X18845Y1856D01*
X18836Y1858D01*
X18823Y1859D01*
X18808Y1861D01*
D02*
G37*
G36*
X16560Y1875D02*
X16553D01*
X16548Y1874D01*
X16541Y1873D01*
X16533Y1872D01*
X16525Y1869D01*
X16516Y1867D01*
X16506Y1863D01*
X16496Y1859D01*
X16486Y1854D01*
X16475Y1848D01*
X16464Y1840D01*
X16454Y1832D01*
X16445Y1822D01*
X16435Y1811D01*
X16434Y1810D01*
X16432Y1808D01*
X16430Y1804D01*
X16427Y1799D01*
X16423Y1792D01*
X16419Y1784D01*
X16415Y1774D01*
X16410Y1763D01*
X16405Y1749D01*
X16401Y1735D01*
X16397Y1718D01*
X16393Y1701D01*
X16390Y1681D01*
X16388Y1661D01*
X16386Y1638D01*
X16385Y1614D01*
Y1613D01*
Y1609D01*
Y1603D01*
X16386Y1595D01*
X16387Y1585D01*
X16388Y1574D01*
X16390Y1562D01*
X16392Y1549D01*
X16398Y1520D01*
X16402Y1505D01*
X16407Y1490D01*
X16413Y1476D01*
X16419Y1462D01*
X16426Y1448D01*
X16436Y1435D01*
X16436Y1435D01*
X16438Y1433D01*
X16440Y1430D01*
X16445Y1426D01*
X16449Y1421D01*
X16455Y1416D01*
X16463Y1410D01*
X16470Y1404D01*
X16478Y1398D01*
X16488Y1392D01*
X16508Y1382D01*
X16521Y1378D01*
X16532Y1375D01*
X16545Y1373D01*
X16559Y1372D01*
X16562D01*
X16566Y1373D01*
X16571D01*
X16577Y1374D01*
X16585Y1376D01*
X16593Y1378D01*
X16602Y1380D01*
X16612Y1384D01*
X16622Y1388D01*
X16632Y1393D01*
X16643Y1399D01*
X16653Y1407D01*
X16663Y1415D01*
X16673Y1425D01*
X16683Y1436D01*
X16684Y1437D01*
X16686Y1439D01*
X16688Y1443D01*
X16691Y1449D01*
X16695Y1455D01*
X16700Y1463D01*
X16704Y1472D01*
X16709Y1484D01*
X16713Y1496D01*
X16718Y1510D01*
X16723Y1526D01*
X16726Y1543D01*
X16729Y1561D01*
X16732Y1581D01*
X16733Y1602D01*
X16734Y1625D01*
Y1626D01*
Y1628D01*
Y1632D01*
Y1638D01*
X16733Y1645D01*
X16732Y1654D01*
X16732Y1663D01*
X16731Y1672D01*
X16727Y1695D01*
X16723Y1719D01*
X16717Y1744D01*
X16708Y1768D01*
Y1769D01*
X16707Y1771D01*
X16705Y1773D01*
X16704Y1777D01*
X16700Y1786D01*
X16693Y1796D01*
X16685Y1808D01*
X16674Y1822D01*
X16662Y1834D01*
X16648Y1845D01*
X16647D01*
X16646Y1847D01*
X16644Y1848D01*
X16641Y1850D01*
X16632Y1854D01*
X16622Y1860D01*
X16609Y1866D01*
X16594Y1870D01*
X16577Y1873D01*
X16560Y1875D01*
D02*
G37*
G36*
X18262D02*
X18255D01*
X18250Y1874D01*
X18244Y1873D01*
X18235Y1872D01*
X18227Y1869D01*
X18218Y1867D01*
X18208Y1863D01*
X18199Y1859D01*
X18188Y1854D01*
X18177Y1848D01*
X18167Y1840D01*
X18157Y1832D01*
X18147Y1822D01*
X18137Y1811D01*
X18136Y1810D01*
X18135Y1808D01*
X18132Y1804D01*
X18130Y1799D01*
X18126Y1792D01*
X18121Y1784D01*
X18117Y1774D01*
X18112Y1763D01*
X18107Y1749D01*
X18103Y1735D01*
X18099Y1718D01*
X18095Y1701D01*
X18093Y1681D01*
X18090Y1661D01*
X18089Y1638D01*
X18088Y1614D01*
Y1613D01*
Y1609D01*
Y1603D01*
X18089Y1595D01*
X18089Y1585D01*
X18090Y1574D01*
X18092Y1562D01*
X18094Y1549D01*
X18100Y1520D01*
X18104Y1505D01*
X18109Y1490D01*
X18115Y1476D01*
X18121Y1462D01*
X18129Y1448D01*
X18138Y1435D01*
X18139Y1435D01*
X18140Y1433D01*
X18143Y1430D01*
X18147Y1426D01*
X18152Y1421D01*
X18158Y1416D01*
X18165Y1410D01*
X18172Y1404D01*
X18180Y1398D01*
X18190Y1392D01*
X18211Y1382D01*
X18223Y1378D01*
X18235Y1375D01*
X18248Y1373D01*
X18261Y1372D01*
X18264D01*
X18268Y1373D01*
X18273D01*
X18280Y1374D01*
X18287Y1376D01*
X18295Y1378D01*
X18304Y1380D01*
X18314Y1384D01*
X18324Y1388D01*
X18335Y1393D01*
X18345Y1399D01*
X18355Y1407D01*
X18366Y1415D01*
X18376Y1425D01*
X18385Y1436D01*
X18386Y1437D01*
X18388Y1439D01*
X18390Y1443D01*
X18394Y1449D01*
X18397Y1455D01*
X18402Y1463D01*
X18406Y1472D01*
X18411Y1484D01*
X18416Y1496D01*
X18420Y1510D01*
X18425Y1526D01*
X18428Y1543D01*
X18431Y1561D01*
X18434Y1581D01*
X18435Y1602D01*
X18436Y1625D01*
Y1626D01*
Y1628D01*
Y1632D01*
Y1638D01*
X18435Y1645D01*
X18435Y1654D01*
X18434Y1663D01*
X18433Y1672D01*
X18430Y1695D01*
X18426Y1719D01*
X18419Y1744D01*
X18410Y1768D01*
Y1769D01*
X18409Y1771D01*
X18408Y1773D01*
X18407Y1777D01*
X18402Y1786D01*
X18395Y1796D01*
X18387Y1808D01*
X18376Y1822D01*
X18364Y1834D01*
X18350Y1845D01*
X18349D01*
X18349Y1847D01*
X18346Y1848D01*
X18343Y1850D01*
X18335Y1854D01*
X18324Y1860D01*
X18311Y1866D01*
X18296Y1870D01*
X18280Y1873D01*
X18262Y1875D01*
D02*
G37*
G36*
X8123D02*
X8116D01*
X8111Y1874D01*
X8104Y1873D01*
X8096Y1872D01*
X8088Y1869D01*
X8079Y1867D01*
X8069Y1863D01*
X8059Y1859D01*
X8049Y1854D01*
X8038Y1848D01*
X8027Y1840D01*
X8017Y1832D01*
X8008Y1822D01*
X7998Y1811D01*
X7997Y1810D01*
X7995Y1808D01*
X7993Y1804D01*
X7990Y1799D01*
X7986Y1792D01*
X7982Y1784D01*
X7978Y1774D01*
X7973Y1763D01*
X7968Y1749D01*
X7964Y1735D01*
X7960Y1718D01*
X7956Y1701D01*
X7953Y1681D01*
X7951Y1661D01*
X7949Y1638D01*
X7949Y1614D01*
Y1613D01*
Y1609D01*
Y1603D01*
X7949Y1595D01*
X7950Y1585D01*
X7951Y1574D01*
X7953Y1562D01*
X7955Y1549D01*
X7961Y1520D01*
X7965Y1505D01*
X7970Y1490D01*
X7976Y1476D01*
X7982Y1462D01*
X7990Y1448D01*
X7999Y1435D01*
X7999Y1435D01*
X8001Y1433D01*
X8003Y1430D01*
X8008Y1426D01*
X8012Y1421D01*
X8018Y1416D01*
X8026Y1410D01*
X8033Y1404D01*
X8041Y1398D01*
X8051Y1392D01*
X8072Y1382D01*
X8084Y1378D01*
X8095Y1375D01*
X8108Y1373D01*
X8122Y1372D01*
X8125D01*
X8129Y1373D01*
X8134D01*
X8140Y1374D01*
X8148Y1376D01*
X8156Y1378D01*
X8165Y1380D01*
X8175Y1384D01*
X8185Y1388D01*
X8195Y1393D01*
X8206Y1399D01*
X8216Y1407D01*
X8226Y1415D01*
X8236Y1425D01*
X8246Y1436D01*
X8247Y1437D01*
X8249Y1439D01*
X8251Y1443D01*
X8254Y1449D01*
X8258Y1455D01*
X8263Y1463D01*
X8267Y1472D01*
X8272Y1484D01*
X8277Y1496D01*
X8281Y1510D01*
X8286Y1526D01*
X8289Y1543D01*
X8292Y1561D01*
X8295Y1581D01*
X8296Y1602D01*
X8297Y1625D01*
Y1626D01*
Y1628D01*
Y1632D01*
Y1638D01*
X8296Y1645D01*
X8295Y1654D01*
X8295Y1663D01*
X8294Y1672D01*
X8290Y1695D01*
X8286Y1719D01*
X8280Y1744D01*
X8271Y1768D01*
Y1769D01*
X8270Y1771D01*
X8268Y1773D01*
X8267Y1777D01*
X8263Y1786D01*
X8256Y1796D01*
X8248Y1808D01*
X8237Y1822D01*
X8225Y1834D01*
X8211Y1845D01*
X8210D01*
X8209Y1847D01*
X8207Y1848D01*
X8204Y1850D01*
X8195Y1854D01*
X8185Y1860D01*
X8172Y1866D01*
X8157Y1870D01*
X8140Y1873D01*
X8123Y1875D01*
D02*
G37*
G36*
X13312D02*
X13305D01*
X13300Y1874D01*
X13293Y1873D01*
X13285Y1872D01*
X13277Y1869D01*
X13268Y1867D01*
X13258Y1863D01*
X13248Y1859D01*
X13238Y1854D01*
X13227Y1848D01*
X13216Y1840D01*
X13206Y1832D01*
X13197Y1822D01*
X13187Y1811D01*
X13186Y1810D01*
X13184Y1808D01*
X13182Y1804D01*
X13179Y1799D01*
X13175Y1792D01*
X13171Y1784D01*
X13167Y1774D01*
X13162Y1763D01*
X13157Y1749D01*
X13153Y1735D01*
X13149Y1718D01*
X13145Y1701D01*
X13142Y1681D01*
X13140Y1661D01*
X13138Y1638D01*
X13137Y1614D01*
Y1613D01*
Y1609D01*
Y1603D01*
X13138Y1595D01*
X13139Y1585D01*
X13140Y1574D01*
X13142Y1562D01*
X13144Y1549D01*
X13150Y1520D01*
X13154Y1505D01*
X13159Y1490D01*
X13165Y1476D01*
X13171Y1462D01*
X13178Y1448D01*
X13187Y1435D01*
X13188Y1435D01*
X13190Y1433D01*
X13192Y1430D01*
X13197Y1426D01*
X13201Y1421D01*
X13207Y1416D01*
X13215Y1410D01*
X13222Y1404D01*
X13230Y1398D01*
X13240Y1392D01*
X13260Y1382D01*
X13273Y1378D01*
X13284Y1375D01*
X13297Y1373D01*
X13310Y1372D01*
X13314D01*
X13318Y1373D01*
X13323D01*
X13329Y1374D01*
X13337Y1376D01*
X13345Y1378D01*
X13354Y1380D01*
X13364Y1384D01*
X13374Y1388D01*
X13384Y1393D01*
X13395Y1399D01*
X13405Y1407D01*
X13415Y1415D01*
X13425Y1425D01*
X13435Y1436D01*
X13436Y1437D01*
X13438Y1439D01*
X13440Y1443D01*
X13443Y1449D01*
X13447Y1455D01*
X13452Y1463D01*
X13456Y1472D01*
X13461Y1484D01*
X13465Y1496D01*
X13470Y1510D01*
X13474Y1526D01*
X13478Y1543D01*
X13481Y1561D01*
X13484Y1581D01*
X13485Y1602D01*
X13486Y1625D01*
Y1626D01*
Y1628D01*
Y1632D01*
Y1638D01*
X13485Y1645D01*
X13484Y1654D01*
X13484Y1663D01*
X13483Y1672D01*
X13479Y1695D01*
X13475Y1719D01*
X13469Y1744D01*
X13460Y1768D01*
Y1769D01*
X13459Y1771D01*
X13457Y1773D01*
X13456Y1777D01*
X13452Y1786D01*
X13445Y1796D01*
X13437Y1808D01*
X13426Y1822D01*
X13414Y1834D01*
X13400Y1845D01*
X13399D01*
X13398Y1847D01*
X13396Y1848D01*
X13392Y1850D01*
X13384Y1854D01*
X13374Y1860D01*
X13361Y1866D01*
X13346Y1870D01*
X13329Y1873D01*
X13312Y1875D01*
D02*
G37*
G36*
X10686Y1869D02*
Y1868D01*
X10686Y1867D01*
Y1863D01*
X10685Y1859D01*
X10684Y1854D01*
X10682Y1847D01*
X10681Y1840D01*
X10679Y1832D01*
X10675Y1814D01*
X10671Y1794D01*
X10665Y1772D01*
X10659Y1750D01*
X10602Y1568D01*
X10775D01*
X10723Y1740D01*
Y1741D01*
X10722Y1744D01*
X10720Y1748D01*
X10718Y1754D01*
X10717Y1760D01*
X10714Y1768D01*
X10712Y1777D01*
X10709Y1786D01*
X10703Y1807D01*
X10697Y1828D01*
X10691Y1849D01*
X10686Y1869D01*
D02*
G37*
G36*
X9631Y1866D02*
X9470D01*
Y1660D01*
X9623D01*
X9631Y1661D01*
X9642Y1662D01*
X9653Y1663D01*
X9666Y1665D01*
X9677Y1667D01*
X9687Y1671D01*
X9688Y1672D01*
X9691Y1673D01*
X9695Y1676D01*
X9701Y1680D01*
X9707Y1685D01*
X9714Y1691D01*
X9721Y1699D01*
X9726Y1707D01*
X9727Y1708D01*
X9729Y1711D01*
X9731Y1717D01*
X9734Y1723D01*
X9736Y1731D01*
X9739Y1741D01*
X9740Y1753D01*
X9741Y1764D01*
Y1765D01*
Y1767D01*
Y1769D01*
Y1772D01*
X9739Y1781D01*
X9738Y1791D01*
X9734Y1804D01*
X9730Y1816D01*
X9722Y1828D01*
X9713Y1839D01*
X9711Y1840D01*
X9708Y1843D01*
X9702Y1847D01*
X9693Y1853D01*
X9681Y1858D01*
X9667Y1862D01*
X9650Y1865D01*
X9631Y1866D01*
D02*
G37*
G36*
X20112Y1861D02*
X20005D01*
Y1386D01*
X20124D01*
X20130Y1387D01*
X20136D01*
X20150Y1389D01*
X20166Y1391D01*
X20183Y1395D01*
X20198Y1400D01*
X20212Y1408D01*
X20214Y1408D01*
X20218Y1412D01*
X20224Y1417D01*
X20232Y1424D01*
X20240Y1434D01*
X20249Y1445D01*
X20258Y1460D01*
X20265Y1476D01*
Y1477D01*
X20266Y1480D01*
X20267Y1483D01*
X20269Y1488D01*
X20271Y1494D01*
X20273Y1501D01*
X20275Y1509D01*
X20277Y1519D01*
X20280Y1530D01*
X20282Y1541D01*
X20284Y1553D01*
X20285Y1567D01*
X20289Y1595D01*
X20289Y1627D01*
Y1628D01*
Y1631D01*
Y1636D01*
Y1643D01*
X20289Y1651D01*
X20288Y1660D01*
X20287Y1670D01*
X20286Y1681D01*
X20283Y1705D01*
X20279Y1730D01*
X20272Y1754D01*
X20268Y1765D01*
X20263Y1776D01*
Y1777D01*
X20262Y1778D01*
X20261Y1781D01*
X20258Y1785D01*
X20253Y1794D01*
X20245Y1805D01*
X20236Y1818D01*
X20225Y1829D01*
X20212Y1840D01*
X20205Y1845D01*
X20198Y1849D01*
X20196Y1849D01*
X20193Y1850D01*
X20186Y1853D01*
X20177Y1855D01*
X20165Y1857D01*
X20150Y1859D01*
X20132Y1860D01*
X20112Y1861D01*
D02*
G37*
%LPD*%
D18*
X5807Y1080D02*
Y2458D01*
X6201Y1080D02*
Y2458D01*
D19*
X5411Y2125D02*
X5415Y2080D01*
X5414Y2089D02*
X6589D01*
X5413Y2099D02*
X6590D01*
X5399Y2168D02*
X5411Y2125D01*
X5379Y2208D02*
X5399Y2168D01*
X5412Y2109D02*
X6591D01*
X5411Y2119D02*
X6592D01*
X5415Y1319D02*
X6588D01*
X5415Y1269D02*
X6588D01*
X5415Y1279D02*
X6588D01*
X5415Y1349D02*
X6588D01*
X5415Y1359D02*
X6588D01*
X5415Y1329D02*
X6588D01*
X5415Y1339D02*
X6588D01*
X4893Y2349D02*
X4927Y2338D01*
X4964Y2335D02*
X4967Y2334D01*
X4927Y2338D02*
X4964Y2335D01*
X4809Y2417D02*
X4833Y2389D01*
X4792Y2449D02*
X4809Y2417D01*
X4861Y2366D02*
X4893Y2349D01*
X4833Y2389D02*
X4861Y2366D01*
X5285Y2301D02*
X5322Y2276D01*
X5245Y2320D02*
X5285Y2301D01*
X5354Y2244D02*
X5379Y2208D01*
X5322Y2276D02*
X5354Y2244D01*
X4970Y2335D02*
X5157D01*
X4967Y2334D02*
X4970Y2335D01*
X5201Y2331D02*
X5245Y2320D01*
X5157Y2335D02*
X5201Y2331D01*
X5384Y2199D02*
X6620D01*
X5379Y2209D02*
X6625D01*
X5372Y2219D02*
X6632D01*
X5365Y2229D02*
X6639D01*
X5357Y2239D02*
X6646D01*
X5349Y2249D02*
X6655D01*
X5339Y2259D02*
X6665D01*
X5409Y2129D02*
X6594D01*
X5407Y2139D02*
X6597D01*
X5404Y2149D02*
X6599D01*
X5401Y2159D02*
X6602D01*
X5398Y2169D02*
X6605D01*
X5393Y2179D02*
X6610D01*
X5389Y2189D02*
X6615D01*
X4893Y2349D02*
X7099D01*
X4874Y2359D02*
X7119D01*
X4857Y2369D02*
X7136D01*
X4845Y2379D02*
X7148D01*
X4833Y2389D02*
X7160D01*
X4824Y2399D02*
X7169D01*
X4816Y2409D02*
X7177D01*
X5329Y2269D02*
X6675D01*
X5317Y2279D02*
X6686D01*
X5303Y2289D02*
X6701D01*
X5288Y2299D02*
X6715D01*
X5268Y2309D02*
X6735D01*
X5247Y2319D02*
X6757D01*
X5211Y2329D02*
X6793D01*
X4926Y2339D02*
X7067D01*
X4778Y2520D02*
X4782Y2483D01*
X4792Y2449D01*
X4781Y2489D02*
X7212D01*
X4780Y2499D02*
X7213D01*
X4779Y2509D02*
X7214D01*
X4778Y2519D02*
X7215D01*
X4778Y2819D02*
X7215D01*
X4808Y2419D02*
X7185D01*
X4803Y2429D02*
X7190D01*
X4798Y2439D02*
X7195D01*
X4792Y2449D02*
X7201D01*
X4789Y2459D02*
X7204D01*
X4786Y2469D02*
X7207D01*
X4783Y2479D02*
X7210D01*
X4778Y2520D02*
Y2949D01*
Y2909D02*
X7215D01*
X4778Y2919D02*
X7215D01*
X4778Y2949D02*
X7215D01*
X4778Y2949D02*
X7215D01*
X4778Y2929D02*
X7215D01*
X4778Y2939D02*
X7215D01*
X4778Y2849D02*
X7215D01*
X4778Y2859D02*
X7215D01*
X4778Y2829D02*
X7215D01*
X4778Y2839D02*
X7215D01*
X4778Y2889D02*
X7215D01*
X4778Y2899D02*
X7215D01*
X4778Y2869D02*
X7215D01*
X4778Y2879D02*
X7215D01*
X4778Y2619D02*
X7215D01*
X4778Y2599D02*
X7215D01*
X4778Y2609D02*
X7215D01*
X4778Y2649D02*
X7215D01*
X4778Y2659D02*
X7215D01*
X4778Y2629D02*
X7215D01*
X4778Y2639D02*
X7215D01*
X4778Y2549D02*
X7215D01*
X4778Y2529D02*
X7215D01*
X4778Y2539D02*
X7215D01*
X4778Y2579D02*
X7215D01*
X4778Y2589D02*
X7215D01*
X4778Y2559D02*
X7215D01*
X4778Y2569D02*
X7215D01*
X4778Y2769D02*
X7215D01*
X4778Y2749D02*
X7215D01*
X4778Y2759D02*
X7215D01*
X4778Y2799D02*
X7215D01*
X4778Y2809D02*
X7215D01*
X4778Y2779D02*
X7215D01*
X4778Y2789D02*
X7215D01*
X4778Y2689D02*
X7215D01*
X4778Y2699D02*
X7215D01*
X4778Y2669D02*
X7215D01*
X4778Y2679D02*
X7215D01*
X4778Y2729D02*
X7215D01*
X4778Y2739D02*
X7215D01*
X4778Y2709D02*
X7215D01*
X4778Y2719D02*
X7215D01*
X5415Y1169D02*
X6588D01*
X5415Y1149D02*
X6588D01*
X5415Y1159D02*
X6588D01*
X5415Y1199D02*
X6588D01*
X5415Y1209D02*
X6588D01*
X5415Y1179D02*
X6588D01*
X5415Y1189D02*
X6588D01*
X5415Y1099D02*
X6588D01*
X5415Y1085D02*
X6588D01*
X5415Y1089D02*
X6588D01*
X5415Y1129D02*
X6588D01*
X5415Y1139D02*
X6588D01*
X5415Y1109D02*
X6588D01*
X5415Y1119D02*
X6588D01*
X5415Y1239D02*
X6588D01*
X5415Y1219D02*
X6588D01*
X5415Y1229D02*
X6588D01*
X5415Y1289D02*
X6588D01*
X5415Y1299D02*
X6588D01*
X5415Y1249D02*
X6588D01*
X5415Y1259D02*
X6588D01*
X5415Y1085D02*
Y2080D01*
X6588Y1085D02*
Y2080D01*
X5415Y1309D02*
X6588D01*
X5415Y1369D02*
X6588D01*
X5415Y1399D02*
X6588D01*
X5415Y1409D02*
X6588D01*
X5415Y1379D02*
X6588D01*
X5415Y1389D02*
X6588D01*
X5415Y1509D02*
X6588D01*
X5415Y1489D02*
X6588D01*
X5415Y1499D02*
X6588D01*
X5415Y1539D02*
X6588D01*
X5415Y1549D02*
X6588D01*
X5415Y1519D02*
X6588D01*
X5415Y1529D02*
X6588D01*
X5415Y1439D02*
X6588D01*
X5415Y1419D02*
X6588D01*
X5415Y1429D02*
X6588D01*
X5415Y1469D02*
X6588D01*
X5415Y1479D02*
X6588D01*
X5415Y1449D02*
X6588D01*
X5415Y1459D02*
X6588D01*
X5415Y1659D02*
X6588D01*
X5415Y1639D02*
X6588D01*
X5415Y1649D02*
X6588D01*
X5415Y1689D02*
X6588D01*
X5415Y1699D02*
X6588D01*
X5415Y1669D02*
X6588D01*
X5415Y1679D02*
X6588D01*
X5415Y1579D02*
X6588D01*
X5415Y1589D02*
X6588D01*
X5415Y1559D02*
X6588D01*
X5415Y1569D02*
X6588D01*
X5415Y1619D02*
X6588D01*
X5415Y1629D02*
X6588D01*
X5415Y1599D02*
X6588D01*
X5415Y1609D02*
X6588D01*
X5415Y1799D02*
X6588D01*
X5415Y1779D02*
X6588D01*
X5415Y1789D02*
X6588D01*
X5415Y1829D02*
X6588D01*
X5415Y1839D02*
X6588D01*
X5415Y1809D02*
X6588D01*
X5415Y1819D02*
X6588D01*
X5415Y1729D02*
X6588D01*
X5415Y1709D02*
X6588D01*
X5415Y1719D02*
X6588D01*
X5415Y1759D02*
X6588D01*
X5415Y1769D02*
X6588D01*
X5415Y1739D02*
X6588D01*
X5415Y1749D02*
X6588D01*
X5415Y1949D02*
X6588D01*
X5415Y1929D02*
X6588D01*
X5415Y1939D02*
X6588D01*
X5415Y1979D02*
X6588D01*
X5415Y1989D02*
X6588D01*
X5415Y1959D02*
X6588D01*
X5415Y1969D02*
X6588D01*
X5415Y1869D02*
X6588D01*
X5415Y1879D02*
X6588D01*
X5415Y1849D02*
X6588D01*
X5415Y1859D02*
X6588D01*
X5415Y1909D02*
X6588D01*
X5415Y1919D02*
X6588D01*
X5415Y1889D02*
X6588D01*
X5415Y1899D02*
X6588D01*
X5415Y2019D02*
X6588D01*
X5415Y1999D02*
X6588D01*
X5415Y2009D02*
X6588D01*
X5415Y2049D02*
X6588D01*
X5415Y2059D02*
X6588D01*
X5415Y2029D02*
X6588D01*
X5415Y2039D02*
X6588D01*
X5415Y2069D02*
X6588D01*
X5415Y2079D02*
X6588D01*
Y2080D02*
X6593Y2125D01*
X6605Y2168D01*
X6624Y2208D01*
X6650Y2244D01*
X6682Y2276D01*
X6719Y2301D01*
X6759Y2320D01*
X6802Y2331D01*
X6847Y2335D02*
X7030D01*
X6802Y2331D02*
X6847Y2335D01*
X7030D02*
X7033Y2335D01*
X7033Y2335D02*
X7069Y2339D01*
X7104Y2350D01*
X7135Y2367D01*
X7162Y2391D01*
X7185Y2419D01*
X7201Y2450D01*
X7212Y2485D01*
X7215Y2520D01*
X7215Y2949D02*
X7215Y2520D01*
M02*
