G04 Layer_Physical_Order=2*
G04 Layer_Color=16711680*
%FSLAX24Y24*%
%MOIN*%
G70*
G01*
G75*
%ADD10C,0.0118*%
%ADD12C,0.0118*%
%ADD13C,0.0500*%
G36*
X6664Y15582D02*
X6614Y15514D01*
X6602Y15494D01*
X6592Y15474D01*
X6585Y15456D01*
X6579Y15439D01*
X6576Y15423D01*
X6575Y15408D01*
X6555Y15406D01*
X6555Y15402D01*
X6505D01*
X6457Y15398D01*
X6456Y15402D01*
X6437D01*
X6436Y15418D01*
X6432Y15434D01*
X6426Y15451D01*
X6418Y15469D01*
X6408Y15487D01*
X6395Y15507D01*
X6380Y15527D01*
X6343Y15569D01*
X6321Y15592D01*
X6503D01*
X6685Y15606D01*
X6664Y15582D01*
D02*
G37*
G36*
X5552Y3732D02*
X5556Y3716D01*
X5562Y3699D01*
X5570Y3681D01*
X5580Y3663D01*
X5593Y3643D01*
X5608Y3623D01*
X5645Y3581D01*
X5667Y3559D01*
X5317D01*
X5339Y3581D01*
X5376Y3623D01*
X5391Y3643D01*
X5404Y3663D01*
X5415Y3681D01*
X5423Y3699D01*
X5429Y3716D01*
X5432Y3732D01*
X5433Y3748D01*
X5551D01*
X5552Y3732D01*
D02*
G37*
D10*
X5610Y4048D02*
G03*
X5492Y3763I285J-285D01*
G01*
X6400Y4833D02*
G03*
X6516Y5111I-278J278D01*
G01*
Y8261D02*
G03*
X6400Y8539I-394J0D01*
G01*
X5492Y9599D02*
G03*
X5600Y9340I367J0D01*
G01*
X6400Y13396D02*
G03*
X6516Y13674I-278J278D01*
G01*
X5608Y12608D02*
G03*
X5492Y12330I278J-278D01*
G01*
X6516Y5111D02*
Y5111D01*
X5600Y9340D02*
X5619Y9321D01*
X5492Y12330D02*
Y12330D01*
D12*
X5492Y3380D02*
Y3761D01*
Y3379D02*
Y3380D01*
X5608Y12608D02*
X6400Y13396D01*
X6516Y13674D02*
Y15800D01*
X5610Y4048D02*
X6400Y4833D01*
X6516Y5111D02*
Y8261D01*
X5619Y9321D02*
X6400Y8539D01*
X5492Y9599D02*
X5492Y12330D01*
D13*
X5492Y3380D02*
D03*
X6496Y15770D02*
D03*
M02*
